Kreon-Light-TTF.ufo
<glyph name="exclam" format="1">
  <advance width="253"/>
  <unicode hex="0021"/>
  <outline>
    <contour>
      <point x="95" y="228" type="line" name="hr00"/>
      <point x="77" y="679" type="line" name="mh01"/>
      <point x="159" y="691" type="line"/>
      <point x="180" y="653" type="line"/>
      <point x="153" y="228" type="line"/>
    </contour>
    <contour>
      <point x="72" y="49" type="curve" smooth="yes" name="hr01"/>
      <point x="72" y="77.8601"/>
      <point x="95.2058" y="101"/>
      <point x="124" y="101" type="curve" smooth="yes"/>
      <point x="152.133" y="101"/>
      <point x="176" y="77.1331"/>
      <point x="176" y="49" type="curve" smooth="yes"/>
      <point x="176" y="20.2058"/>
      <point x="152.86" y="-3"/>
      <point x="124" y="-3" type="curve" smooth="yes"/>
      <point x="94.6973" y="-3"/>
      <point x="72" y="19.6973"/>
    </contour>
  </outline>
</glyph>
<glyph name="numbersign" format="1">
  <advance width="593"/>
  <unicode hex="0023"/>
  <outline>
    <contour>
      <point x="37" y="251" type="line" name="hr00"/>
      <point x="30" y="291" type="line"/>
      <point x="37" y="303" type="line"/>
      <point x="173" y="303" type="line"/>
      <point x="210" y="423" type="line"/>
      <point x="92" y="423" type="line" name="ah04"/>
      <point x="85" y="463" type="line"/>
      <point x="92" y="476" type="line" name="ah05"/>
      <point x="227" y="476" type="line" name="ah03"/>
      <point x="288" y="670" type="line" name="mh01"/>
      <point x="339" y="670" type="line" name="ah01"/>
      <point x="347" y="656" type="line" name="mh02"/>
      <point x="290" y="476" type="line" name="ah02"/>
      <point x="379" y="476" type="line" name="ah06"/>
      <point x="440" y="670" type="line" name="ah07"/>
      <point x="489" y="670" type="line" name="ah08"/>
      <point x="497" y="656" type="line" name="ah09"/>
      <point x="441" y="476" type="line"/>
      <point x="554" y="476" type="line" smooth="yes"/>
      <point x="567.051" y="476"/>
      <point x="560" y="429.553"/>
      <point x="560" y="423" type="curve"/>
      <point x="424" y="423" type="line"/>
      <point x="387" y="303" type="line"/>
      <point x="509" y="303" type="line" smooth="yes"/>
      <point x="521.974" y="303"/>
      <point x="515" y="257.428"/>
      <point x="515" y="251" type="curve"/>
      <point x="371" y="251" type="line" name="hr02"/>
      <point x="308" y="48" type="line" name="ah15"/>
      <point x="259" y="48" type="line"/>
      <point x="250" y="61" type="line" name="hr03"/>
      <point x="309" y="251" type="line" name="ah14"/>
      <point x="219" y="251" type="line" name="hr04"/>
      <point x="155" y="48" type="line"/>
      <point x="106" y="48" type="line"/>
      <point x="97" y="61" type="line" name="mh03"/>
      <point x="156" y="251" type="line"/>
    </contour>
    <contour>
      <point x="235" y="303" type="line" name="ah13"/>
      <point x="325" y="303" type="line" name="ah10"/>
      <point x="363" y="423" type="line" name="ah11"/>
      <point x="273" y="423" type="line" name="ah12"/>
    </contour>
  </outline>
</glyph>
<glyph name="dollar" format="1">
  <advance width="474"/>
  <unicode hex="0024"/>
  <outline>
    <contour>
      <point x="214" y="-108" type="line" name="hr00"/>
      <point x="214" y="-4" type="line"/>
      <point x="160.066" y="-2.68462"/>
      <point x="105.111" y="5.80866"/>
      <point x="56" y="29" type="curve"/>
      <point x="45" y="183" type="line" name="mh01"/>
      <point x="103" y="183" type="line" name="mh02"/>
      <point x="130" y="84" type="line"/>
      <point x="155.139" y="72.1788"/>
      <point x="186.313" y="65.3215"/>
      <point x="214" y="64" type="curve"/>
      <point x="214" y="334" type="line"/>
      <point x="128.637" y="372.801"/>
      <point x="45" y="412.235"/>
      <point x="45" y="520" type="curve" smooth="yes" name="mh03"/>
      <point x="45" y="616.823"/>
      <point x="125.165" y="675.313"/>
      <point x="214" y="688" type="curve" name="mh04"/>
      <point x="214" y="770" type="line" name="ah01"/>
      <point x="272" y="770" type="line" name="mh05"/>
      <point x="272" y="690" type="line"/>
      <point x="317.109" y="687.424"/>
      <point x="359.906" y="674.786"/>
      <point x="402" y="659" type="curve" name="ah04"/>
      <point x="415" y="505" type="line"/>
      <point x="360" y="505" type="line" name="mh06"/>
      <point x="318" y="611" type="line" name="ah03"/>
      <point x="303.207" y="616.79"/>
      <point x="287.761" y="620.944"/>
      <point x="272" y="623" type="curve"/>
      <point x="272" y="386" type="line"/>
      <point x="360.064" y="352.152"/>
      <point x="437" y="290.804"/>
      <point x="437" y="189" type="curve" smooth="yes" name="mh07"/>
      <point x="437" y="87.3761"/>
      <point x="368.151" y="19.7936"/>
      <point x="272" y="0" type="curve"/>
      <point x="272" y="-108" type="line"/>
    </contour>
    <contour>
      <point x="366" y="181" type="curve" smooth="yes"/>
      <point x="366" y="242.451"/>
      <point x="333.474" y="278.591"/>
      <point x="280" y="304" type="curve" smooth="yes"/>
      <point x="277.255" y="305.304"/>
      <point x="274.53" y="306.276"/>
      <point x="272" y="308" type="curve"/>
      <point x="272" y="70" type="line"/>
      <point x="327.248" y="84.5333"/>
      <point x="366" y="121.668"/>
    </contour>
    <contour>
      <point x="116" y="528" type="curve" smooth="yes" name="mh08"/>
      <point x="116" y="466.612"/>
      <point x="163.298" y="433.815"/>
      <point x="214" y="411" type="curve" name="mh09"/>
      <point x="214" y="622" type="line" name="ah02"/>
      <point x="163.775" y="614.07"/>
      <point x="116" y="584"/>
    </contour>
  </outline>
</glyph>
<glyph name="percent" format="1">
  <advance width="636"/>
  <unicode hex="0025"/>
  <outline>
    <contour>
      <point x="124" y="0" type="line" name="hr00"/>
      <point x="77" y="0" type="line"/>
      <point x="74" y="13" type="line"/>
      <point x="516" y="692" type="line" name="mh01"/>
      <point x="559" y="692" type="line" name="mh02"/>
      <point x="558" y="677" type="line" name="mh03"/>
    </contour>
    <contour>
      <point x="406" y="167" type="curve" smooth="yes"/>
      <point x="406" y="125.022"/>
      <point x="417.756" y="48"/>
      <point x="473" y="48" type="curve" smooth="yes"/>
      <point x="530.443" y="48"/>
      <point x="542" y="127.422"/>
      <point x="542" y="171" type="curve" smooth="yes"/>
      <point x="542" y="214.538"/>
      <point x="530.186" y="292"/>
      <point x="473" y="292" type="curve" smooth="yes"/>
      <point x="415.526" y="292"/>
      <point x="406" y="210.117"/>
    </contour>
    <contour>
      <point x="348" y="177" type="curve" smooth="yes"/>
      <point x="348" y="253.327"/>
      <point x="383.953" y="344"/>
      <point x="473" y="344" type="curve" smooth="yes"/>
      <point x="567.256" y="344"/>
      <point x="599" y="250.497"/>
      <point x="599" y="171" type="curve" smooth="yes"/>
      <point x="599" y="93.0384"/>
      <point x="565.853" y="-4"/>
      <point x="473" y="-4" type="curve" smooth="yes"/>
      <point x="375.994" y="-4"/>
      <point x="348" y="96.9355"/>
    </contour>
    <contour>
      <point x="96" y="514" type="curve" smooth="yes"/>
      <point x="96" y="472.022"/>
      <point x="107.756" y="395"/>
      <point x="163" y="395" type="curve" smooth="yes"/>
      <point x="220.721" y="395"/>
      <point x="232" y="474.351"/>
      <point x="232" y="518" type="curve" smooth="yes"/>
      <point x="232" y="562.009"/>
      <point x="220.678" y="638"/>
      <point x="163" y="638" type="curve" smooth="yes"/>
      <point x="105.6" y="638"/>
      <point x="96" y="557.08"/>
    </contour>
    <contour>
      <point x="38" y="524" type="curve" smooth="yes"/>
      <point x="38" y="599.847"/>
      <point x="74.5039" y="691"/>
      <point x="163" y="691" type="curve" smooth="yes" name="mh04"/>
      <point x="256.235" y="691"/>
      <point x="289" y="596.633"/>
      <point x="289" y="518" type="curve" smooth="yes"/>
      <point x="289" y="438.943"/>
      <point x="257.365" y="342"/>
      <point x="163" y="342" type="curve" smooth="yes"/>
      <point x="66.0861" y="342"/>
      <point x="38" y="444.332"/>
    </contour>
  </outline>
</glyph>
<glyph name="ampersand" format="1">
  <advance width="602"/>
  <unicode hex="0026"/>
  <outline>
    <contour>
      <point x="540" y="386" type="line" name="mh01"/>
      <point x="528.988" y="298.217"/>
      <point x="497.02" y="208.385"/>
      <point x="455" y="131" type="curve"/>
      <point x="469.144" y="115.222"/>
      <point x="515.387" y="65"/>
      <point x="536" y="65" type="curve" smooth="yes" name="mh02"/>
      <point x="545.881" y="65"/>
      <point x="561.943" y="72.4781"/>
      <point x="571" y="77" type="curve"/>
      <point x="574.413" y="53.2703"/>
      <point x="580.438" y="28.7565"/>
      <point x="588" y="6" type="curve"/>
      <point x="572.455" y="0.42722"/>
      <point x="564.543" y="-1"/>
      <point x="548" y="-1" type="curve" smooth="yes"/>
      <point x="500.201" y="-1"/>
      <point x="450.556" y="44.513"/>
      <point x="419" y="77" type="curve"/>
      <point x="372.793" y="22.24"/>
      <point x="314.205" y="-4"/>
      <point x="243" y="-4" type="curve" smooth="yes"/>
      <point x="135.711" y="-4"/>
      <point x="35" y="61.8367"/>
      <point x="35" y="178" type="curve" smooth="yes"/>
      <point x="35" y="268.651"/>
      <point x="106.291" y="343.253"/>
      <point x="179" y="388" type="curve"/>
      <point x="150.288" y="441.888"/>
      <point x="115" y="479.495"/>
      <point x="115" y="545" type="curve" smooth="yes"/>
      <point x="115" y="626.907"/>
      <point x="186.736" y="690"/>
      <point x="266" y="690" type="curve" smooth="yes" name="mh03"/>
      <point x="339.951" y="690"/>
      <point x="400" y="632.471"/>
      <point x="400" y="558" type="curve" smooth="yes"/>
      <point x="400" y="474.483"/>
      <point x="336.417" y="410.809"/>
      <point x="274" y="364" type="curve" name="mh04"/>
      <point x="319.479" y="303.361"/>
      <point x="361.075" y="241.098"/>
      <point x="410" y="183" type="curve"/>
      <point x="437.791" y="231.636"/>
      <point x="454.557" y="286.175"/>
      <point x="465" y="341" type="curve"/>
      <point x="424" y="341" type="line"/>
      <point x="411" y="398" type="line"/>
      <point x="533" y="398" type="line"/>
    </contour>
    <contour>
      <point x="214" y="340" type="curve"/>
      <point x="157.225" y="297.418"/>
      <point x="108" y="248.911"/>
      <point x="108" y="173" type="curve" smooth="yes"/>
      <point x="108" y="100.33"/>
      <point x="176.67" y="59"/>
      <point x="243" y="59" type="curve" smooth="yes"/>
      <point x="295.935" y="59"/>
      <point x="340.463" y="87.9504"/>
      <point x="373" y="128" type="curve"/>
      <point x="325" y="186.379"/>
      <point x="284.748" y="250.105"/>
      <point x="238" y="309" type="curve" smooth="yes" name="mh05"/>
      <point x="229.779" y="319.357"/>
      <point x="221.062" y="328.702"/>
    </contour>
    <contour>
      <point x="336" y="551" type="curve" smooth="yes" name="mh06"/>
      <point x="336" y="593.983"/>
      <point x="306.956" y="632"/>
      <point x="262" y="632" type="curve" smooth="yes" name="mh08"/>
      <point x="206.733" y="632"/>
      <point x="180" y="597.133"/>
      <point x="180" y="544" type="curve" smooth="yes"/>
      <point x="180" y="497.218"/>
      <point x="215.763" y="444.336"/>
      <point x="242" y="407" type="curve" name="mh09"/>
      <point x="285.126" y="441.303"/>
      <point x="336" y="492.003"/>
    </contour>
  </outline>
</glyph>
<glyph name="parenleft" format="1">
  <advance width="258"/>
  <unicode hex="0028"/>
  <outline>
    <contour>
      <point x="164" y="-162" type="line" name="hr00"/>
      <point x="96.061" y="-19.8601"/>
      <point x="54" y="131.653"/>
      <point x="54" y="290" type="curve" smooth="yes" name="mh01"/>
      <point x="54" y="440.836"/>
      <point x="86.4295" y="611.006"/>
      <point x="164" y="742" type="curve"/>
      <point x="224" y="742" type="line"/>
      <point x="155.111" y="612.75"/>
      <point x="125" y="436.374"/>
      <point x="125" y="291" type="curve" smooth="yes"/>
      <point x="125" y="131.199"/>
      <point x="165.146" y="-14.8463"/>
      <point x="224" y="-162" type="curve"/>
    </contour>
  </outline>
</glyph>
<glyph name="parenright" format="1">
  <advance width="259"/>
  <unicode hex="0029"/>
  <outline>
    <contour>
      <point x="35" y="-162" type="line" name="hr00"/>
      <point x="93.8543" y="-14.8463"/>
      <point x="134" y="131.199"/>
      <point x="134" y="291" type="curve" smooth="yes"/>
      <point x="134" y="436.374"/>
      <point x="103.889" y="612.75"/>
      <point x="35" y="742" type="curve"/>
      <point x="95" y="742" type="line"/>
      <point x="172.571" y="611.006"/>
      <point x="205" y="440.836"/>
      <point x="205" y="290" type="curve" smooth="yes" name="mh01"/>
      <point x="205" y="131.653"/>
      <point x="162.939" y="-19.8601"/>
      <point x="95" y="-162" type="curve"/>
    </contour>
  </outline>
</glyph>
<glyph name="period" format="1">
  <advance width="206"/>
  <unicode hex="002E"/>
  <outline>
    <contour>
      <point x="51" y="49" type="curve" smooth="yes" name="hr00"/>
      <point x="51" y="77.8601"/>
      <point x="74.2058" y="101"/>
      <point x="103" y="101" type="curve" smooth="yes"/>
      <point x="131.133" y="101"/>
      <point x="155" y="77.1331"/>
      <point x="155" y="49" type="curve" smooth="yes"/>
      <point x="155" y="20.2058"/>
      <point x="131.86" y="-3"/>
      <point x="103" y="-3" type="curve" smooth="yes"/>
      <point x="73.6973" y="-3"/>
      <point x="51" y="19.6973"/>
    </contour>
  </outline>
</glyph>
<glyph name="slash" format="1">
  <advance width="437"/>
  <unicode hex="002F"/>
  <outline>
    <contour>
      <point x="75" y="0" type="line" name="hr00"/>
      <point x="27" y="0" type="line"/>
      <point x="24" y="13" type="line"/>
      <point x="363" y="692" type="line" name="mh01"/>
      <point x="414" y="692" type="line" name="mh02"/>
      <point x="413" y="677" type="line"/>
    </contour>
  </outline>
</glyph>
<glyph name="zero" format="1">
  <advance width="567"/>
  <unicode hex="0030"/>
  <outline>
    <contour>
      <point x="53" y="344" type="curve" smooth="yes" name="hr00"/>
      <point x="53" y="488.821"/>
      <point x="104.663" y="692"/>
      <point x="284" y="692" type="curve" smooth="yes" name="mh01"/>
      <point x="462.398" y="692"/>
      <point x="514" y="487.757"/>
      <point x="514" y="344" type="curve" smooth="yes"/>
      <point x="514" y="200.243"/>
      <point x="462.398" y="-4"/>
      <point x="284" y="-4" type="curve" smooth="yes"/>
      <point x="104.663" y="-4"/>
      <point x="53" y="199.179"/>
    </contour>
    <contour>
      <point x="122" y="344" type="curve" smooth="yes"/>
      <point x="122" y="241.382"/>
      <point x="149.112" y="63"/>
      <point x="284" y="63" type="curve" smooth="yes"/>
      <point x="417.986" y="63"/>
      <point x="445" y="242.201"/>
      <point x="445" y="344" type="curve" smooth="yes"/>
      <point x="445" y="446.065"/>
      <point x="418.299" y="625"/>
      <point x="284" y="625" type="curve" smooth="yes" name="mh02"/>
      <point x="148.796" y="625"/>
      <point x="122" y="446.88"/>
    </contour>
  </outline>
</glyph>
<glyph name="two" format="1">
  <advance width="504"/>
  <unicode hex="0032"/>
  <outline>
    <contour>
      <point x="48" y="0" type="line" name="hr00"/>
      <point x="38" y="58" type="line"/>
      <point x="145.873" y="180.559"/>
      <point x="368" y="332.788"/>
      <point x="368" y="513" type="curve" smooth="yes"/>
      <point x="368" y="588.116"/>
      <point x="312.343" y="628"/>
      <point x="241" y="628" type="curve" smooth="yes"/>
      <point x="211.669" y="628"/>
      <point x="181.054" y="623.34"/>
      <point x="155" y="609" type="curve"/>
      <point x="141.552" y="579.296"/>
      <point x="122.685" y="549.756"/>
      <point x="107" y="521" type="curve"/>
      <point x="34" y="566" type="line"/>
      <point x="83.6001" y="648.245"/>
      <point x="149.588" y="692"/>
      <point x="247" y="692" type="curve" smooth="yes"/>
      <point x="358.715" y="692"/>
      <point x="438" y="622.315"/>
      <point x="438" y="508" type="curve" smooth="yes"/>
      <point x="438" y="350.249"/>
      <point x="234.883" y="167.983"/>
      <point x="131" y="63" type="curve"/>
      <point x="374" y="63" type="line"/>
      <point x="408" y="171" type="line"/>
      <point x="457" y="171" type="line"/>
      <point x="437" y="0" type="line"/>
    </contour>
  </outline>
</glyph>
<glyph name="three" format="1">
  <advance width="515"/>
  <unicode hex="0033"/>
  <outline>
    <contour>
      <point x="71" y="112" type="line" name="hr00"/>
      <point x="118.167" y="76.9605"/>
      <point x="176.403" y="59"/>
      <point x="235" y="59" type="curve" smooth="yes"/>
      <point x="313.4" y="59"/>
      <point x="389" y="101.767"/>
      <point x="389" y="188" type="curve" smooth="yes"/>
      <point x="389" y="313.825"/>
      <point x="239.128" y="319"/>
      <point x="147" y="319" type="curve"/>
      <point x="147" y="382" type="line"/>
      <point x="243.997" y="382.003"/>
      <point x="372" y="390.809"/>
      <point x="372" y="518" type="curve" smooth="yes"/>
      <point x="372" y="587.065"/>
      <point x="305.171" y="628"/>
      <point x="242" y="628" type="curve" smooth="yes" name="mh01"/>
      <point x="212.833" y="628"/>
      <point x="181.411" y="624.232"/>
      <point x="157" y="607" type="curve"/>
      <point x="111" y="521" type="line"/>
      <point x="37" y="566" type="line"/>
      <point x="84.4704" y="651.46"/>
      <point x="152.062" y="692"/>
      <point x="250" y="692" type="curve" smooth="yes" name="mh02"/>
      <point x="347.885" y="692"/>
      <point x="445" y="624.499"/>
      <point x="445" y="520" type="curve" smooth="yes"/>
      <point x="445" y="445.468"/>
      <point x="399.431" y="376.802"/>
      <point x="328" y="353" type="curve"/>
      <point x="407.949" y="337.625"/>
      <point x="464" y="272.889"/>
      <point x="464" y="191" type="curve" smooth="yes" name="hr01"/>
      <point x="464" y="54.8868"/>
      <point x="355.125" y="-4"/>
      <point x="232" y="-4" type="curve" smooth="yes"/>
      <point x="162.78" y="-4"/>
      <point x="93.4753" y="16.237"/>
      <point x="36" y="55" type="curve"/>
    </contour>
  </outline>
</glyph>
<glyph name="five" format="1">
  <advance width="502"/>
  <unicode hex="0035"/>
  <outline>
    <contour>
      <point x="111" y="690" type="line" name="hr00"/>
      <point x="442" y="690" type="line"/>
      <point x="442" y="623" type="line"/>
      <point x="143" y="623" type="line"/>
      <point x="143" y="451" type="line"/>
      <point x="162.938" y="453.495"/>
      <point x="182.947" y="453"/>
      <point x="203" y="453" type="curve" smooth="yes"/>
      <point x="339.751" y="453"/>
      <point x="456" y="378.442"/>
      <point x="456" y="231" type="curve" smooth="yes"/>
      <point x="456" y="90.1749"/>
      <point x="352.527" y="-4"/>
      <point x="214" y="-4" type="curve" smooth="yes"/>
      <point x="146.381" y="-4"/>
      <point x="82.4417" y="12.2419"/>
      <point x="29" y="55" type="curve"/>
      <point x="65" y="112" type="line"/>
      <point x="104.723" y="76.3872"/>
      <point x="162.235" y="59"/>
      <point x="215" y="59" type="curve" smooth="yes"/>
      <point x="310.56" y="59"/>
      <point x="384" y="129.765"/>
      <point x="384" y="226" type="curve" smooth="yes"/>
      <point x="384" y="354.032"/>
      <point x="283.956" y="390"/>
      <point x="173" y="390" type="curve" smooth="yes"/>
      <point x="141.811" y="390"/>
      <point x="110.815" y="386.62"/>
      <point x="80" y="382" type="curve"/>
      <point x="80" y="657" type="line"/>
    </contour>
  </outline>
</glyph>
<glyph name="six" format="1">
  <advance width="563"/>
  <unicode hex="0036"/>
  <outline>
    <contour>
      <point x="303" y="430" type="curve" smooth="yes" name="mh01"/>
      <point x="426.762" y="430"/>
      <point x="515" y="343.054"/>
      <point x="515" y="219" type="curve" smooth="yes"/>
      <point x="515" y="91.3327"/>
      <point x="427.523" y="-4"/>
      <point x="298" y="-4" type="curve" smooth="yes"/>
      <point x="122.041" y="-4"/>
      <point x="51" y="178.71"/>
      <point x="51" y="329" type="curve" smooth="yes"/>
      <point x="51" y="488.614"/>
      <point x="124.762" y="692"/>
      <point x="314" y="692" type="curve" smooth="yes" name="mh02"/>
      <point x="379.917" y="692"/>
      <point x="467.128" y="663.644"/>
      <point x="511" y="612" type="curve"/>
      <point x="438" y="541" type="line"/>
      <point x="386" y="613" type="line"/>
      <point x="364.351" y="623.72"/>
      <point x="339.07" y="629"/>
      <point x="315" y="629" type="curve" smooth="yes" name="mh03"/>
      <point x="174.415" y="629"/>
      <point x="124.01" y="449.733"/>
      <point x="124" y="336" type="curve"/>
      <point x="165.055" y="395.464"/>
      <point x="230.824" y="430"/>
    </contour>
    <contour>
      <point x="299" y="59" type="curve" smooth="yes"/>
      <point x="389.596" y="59"/>
      <point x="443" y="132.163"/>
      <point x="443" y="218" type="curve" smooth="yes"/>
      <point x="443" y="307.355"/>
      <point x="386.001" y="367"/>
      <point x="296" y="367" type="curve" smooth="yes"/>
      <point x="211.379" y="367"/>
      <point x="140" y="295.595"/>
      <point x="140" y="211" type="curve" smooth="yes"/>
      <point x="140" y="197.153"/>
      <point x="151.844" y="165.488"/>
      <point x="158" y="152.5" type="curve" smooth="yes"/>
      <point x="185.115" y="95.2957"/>
      <point x="234.638" y="59"/>
    </contour>
  </outline>
</glyph>
<glyph name="seven" format="1">
  <advance width="427"/>
  <unicode hex="0037"/>
  <outline>
    <contour>
      <point x="102" y="625" type="line" name="hr00"/>
      <point x="72" y="513" type="line"/>
      <point x="30" y="513" type="line"/>
      <point x="30" y="690" type="line" name="mh01"/>
      <point x="399" y="690" type="line"/>
      <point x="417" y="665" type="line"/>
      <point x="196" y="0" type="line"/>
      <point x="126" y="0" type="line"/>
      <point x="121" y="14" type="line" name="mh02"/>
      <point x="345" y="625" type="line" name="mh03"/>
    </contour>
  </outline>
</glyph>
<glyph name="eight" format="1">
  <advance width="513"/>
  <unicode hex="0038"/>
  <outline>
    <contour>
      <point x="80" y="533" type="curve" smooth="yes" name="hr00"/>
      <point x="80" y="634.496"/>
      <point x="157.903" y="692"/>
      <point x="254" y="692" type="curve" smooth="yes" name="mh01"/>
      <point x="355.931" y="692"/>
      <point x="430" y="641.039"/>
      <point x="430" y="533" type="curve" smooth="yes"/>
      <point x="430" y="462.227"/>
      <point x="372.356" y="413.275"/>
      <point x="321" y="373" type="curve"/>
      <point x="400.413" y="325.737"/>
      <point x="466" y="272.075"/>
      <point x="466" y="172" type="curve" smooth="yes"/>
      <point x="466" y="55.5978"/>
      <point x="358.365" y="-4"/>
      <point x="254" y="-4" type="curve" smooth="yes"/>
      <point x="147.797" y="-4"/>
      <point x="47" y="54.9269"/>
      <point x="47" y="172" type="curve" smooth="yes"/>
      <point x="47" y="265.925"/>
      <point x="115.407" y="322.539"/>
      <point x="188" y="369" type="curve"/>
      <point x="129.378" y="409.38"/>
      <point x="80" y="457.273"/>
    </contour>
    <contour>
      <point x="115" y="173" type="curve" smooth="yes"/>
      <point x="115" y="96.2703"/>
      <point x="185.202" y="59"/>
      <point x="254" y="59" type="curve" smooth="yes"/>
      <point x="322.547" y="59"/>
      <point x="397" y="95.4495"/>
      <point x="397" y="173" type="curve" smooth="yes"/>
      <point x="397" y="263.156"/>
      <point x="304.954" y="292.816"/>
      <point x="243" y="335" type="curve"/>
      <point x="185.775" y="294.125"/>
      <point x="115" y="252.632"/>
    </contour>
    <contour>
      <point x="362" y="539" type="curve" smooth="yes"/>
      <point x="362" y="599.52"/>
      <point x="309.04" y="629"/>
      <point x="254" y="629" type="curve" smooth="yes" name="mh02"/>
      <point x="203.413" y="629"/>
      <point x="148" y="597.728"/>
      <point x="148" y="542" type="curve" smooth="yes"/>
      <point x="148" y="468.797"/>
      <point x="210.101" y="437.532"/>
      <point x="265" y="405" type="curve" name="mh03"/>
      <point x="304.137" y="437.958"/>
      <point x="362" y="482.882"/>
    </contour>
  </outline>
</glyph>
<glyph name="nine" format="1">
  <advance width="535"/>
  <unicode hex="0039"/>
  <outline>
    <contour>
      <point x="252" y="257" type="curve" smooth="yes" name="hr00"/>
      <point x="129.34" y="257"/>
      <point x="51" y="355.032"/>
      <point x="51" y="473" type="curve" smooth="yes"/>
      <point x="51" y="595.397"/>
      <point x="129.76" y="691"/>
      <point x="256" y="691" type="curve" smooth="yes" name="mh01"/>
      <point x="457.803" y="691"/>
      <point x="480" y="483.581"/>
      <point x="480" y="328" type="curve" smooth="yes"/>
      <point x="480" y="179.11"/>
      <point x="418.26" y="-4"/>
      <point x="240" y="-4" type="curve" smooth="yes"/>
      <point x="169.842" y="-4"/>
      <point x="99.9141" y="18.4125"/>
      <point x="46" y="64" type="curve"/>
      <point x="89" y="124" type="line"/>
      <point x="123.834" y="89.1899"/>
      <point x="183.177" y="59"/>
      <point x="233" y="59" type="curve" smooth="yes"/>
      <point x="375.158" y="59"/>
      <point x="404.191" y="217.847"/>
      <point x="407" y="329" type="curve"/>
      <point x="370.553" y="281.747"/>
      <point x="310.941" y="257"/>
    </contour>
    <contour>
      <point x="259" y="628" type="curve" smooth="yes" name="mh02"/>
      <point x="173.835" y="628"/>
      <point x="124" y="558.071"/>
      <point x="124" y="478" type="curve" smooth="yes"/>
      <point x="124" y="394.378"/>
      <point x="167.908" y="321"/>
      <point x="259" y="321" type="curve" smooth="yes" name="mh03"/>
      <point x="309.158" y="321"/>
      <point x="355.991" y="351.629"/>
      <point x="382" y="393.5" type="curve" smooth="yes"/>
      <point x="388.728" y="404.331"/>
      <point x="401" y="431.544"/>
      <point x="401" y="444" type="curve" smooth="yes"/>
      <point x="401" y="465.856"/>
      <point x="391.825" y="497.996"/>
      <point x="385" y="519" type="curve" smooth="yes"/>
      <point x="365.363" y="579.435"/>
      <point x="327.719" y="628"/>
    </contour>
  </outline>
</glyph>
<glyph name="colon" format="1">
  <advance width="230"/>
  <unicode hex="003A"/>
  <outline>
    <contour>
      <point x="63" y="229" type="curve" smooth="yes" name="hr00"/>
      <point x="63" y="258.005"/>
      <point x="87.3405" y="281"/>
      <point x="116" y="281" type="curve" smooth="yes" name="mh01"/>
      <point x="144.238" y="281"/>
      <point x="167" y="256.958"/>
      <point x="167" y="229" type="curve" smooth="yes"/>
      <point x="167" y="200.387"/>
      <point x="144.978" y="177"/>
      <point x="116" y="177" type="curve" smooth="yes"/>
      <point x="86.808" y="177"/>
      <point x="63" y="199.52"/>
    </contour>
    <contour>
      <point x="63" y="439" type="curve" smooth="yes"/>
      <point x="63" y="468.005"/>
      <point x="87.3405" y="491"/>
      <point x="116" y="491" type="curve" smooth="yes" name="mh02"/>
      <point x="144.238" y="491"/>
      <point x="167" y="466.958"/>
      <point x="167" y="439" type="curve" smooth="yes"/>
      <point x="167" y="410.387"/>
      <point x="144.978" y="387"/>
      <point x="116" y="387" type="curve" smooth="yes"/>
      <point x="86.808" y="387"/>
      <point x="63" y="409.52"/>
    </contour>
  </outline>
</glyph>
<glyph name="semicolon" format="1">
  <advance width="228"/>
  <unicode hex="003B"/>
  <outline>
    <contour>
      <point x="56" y="-95" type="line" name="hr00"/>
      <point x="92" y="-113" type="line"/>
      <point x="133.497" y="-74.2631"/>
      <point x="163" y="4.73399"/>
      <point x="163" y="61" type="curve" smooth="yes"/>
      <point x="163" y="83.6544"/>
      <point x="159.469" y="106.044"/>
      <point x="154" y="128" type="curve"/>
      <point x="76" y="115" type="line"/>
      <point x="99" y="-1" type="line"/>
      <point x="56" y="-81" type="line"/>
    </contour>
    <contour>
      <point x="56" y="259" type="curve" smooth="yes"/>
      <point x="56" y="288.005"/>
      <point x="80.3405" y="311"/>
      <point x="109" y="311" type="curve" smooth="yes"/>
      <point x="137.238" y="311"/>
      <point x="160" y="286.958"/>
      <point x="160" y="259" type="curve" smooth="yes"/>
      <point x="160" y="230.387"/>
      <point x="137.978" y="207"/>
      <point x="109" y="207" type="curve" smooth="yes"/>
      <point x="79.808" y="207"/>
      <point x="56" y="229.52"/>
    </contour>
  </outline>
</glyph>
<glyph name="question" format="1">
  <advance width="397"/>
  <unicode hex="003F"/>
  <outline>
    <contour>
      <point x="104" y="237" type="line" name="hr00"/>
      <point x="102.143" y="246.485"/>
      <point x="102" y="256.365"/>
      <point x="102" y="266" type="curve" smooth="yes"/>
      <point x="102" y="410.819"/>
      <point x="291" y="399.586"/>
      <point x="291" y="543" type="curve" smooth="yes"/>
      <point x="291" y="601.878"/>
      <point x="245.237" y="627"/>
      <point x="192" y="627" type="curve" smooth="yes" name="mh01"/>
      <point x="169.894" y="627"/>
      <point x="146.287" y="624.076"/>
      <point x="125" y="618" type="curve"/>
      <point x="98" y="522" type="line"/>
      <point x="47" y="522" type="line"/>
      <point x="66" y="665" type="line"/>
      <point x="109.258" y="678.954"/>
      <point x="153.285" y="690"/>
      <point x="199" y="690" type="curve" smooth="yes" name="mh02"/>
      <point x="291.672" y="690"/>
      <point x="365" y="648.234"/>
      <point x="365" y="547" type="curve" smooth="yes"/>
      <point x="365" y="364.199"/>
      <point x="147.062" y="380.361"/>
      <point x="162" y="238" type="curve"/>
    </contour>
    <contour>
      <point x="87" y="49" type="curve" smooth="yes"/>
      <point x="87" y="78.0053"/>
      <point x="111.34" y="101"/>
      <point x="140" y="101" type="curve" smooth="yes"/>
      <point x="168.238" y="101"/>
      <point x="191" y="76.9582"/>
      <point x="191" y="49" type="curve" smooth="yes"/>
      <point x="191" y="20.3871"/>
      <point x="168.978" y="-3"/>
      <point x="140" y="-3" type="curve" smooth="yes"/>
      <point x="110.808" y="-3"/>
      <point x="87" y="19.5196"/>
    </contour>
  </outline>
</glyph>
<glyph name="at" format="1">
  <advance width="807"/>
  <unicode hex="0040"/>
  <outline>
    <contour>
      <point x="397" y="-4" type="curve" smooth="yes" name="hr00"/>
      <point x="276.765" y="-4"/>
      <point x="214" y="89.8987"/>
      <point x="214" y="202" type="curve" smooth="yes" name="mh01"/>
      <point x="214" y="317.232"/>
      <point x="276.66" y="408"/>
      <point x="400" y="408" type="curve" smooth="yes" name="mh02"/>
      <point x="429.368" y="408"/>
      <point x="458.459" y="401.61"/>
      <point x="485" y="389" type="curve"/>
      <point x="528" y="409" type="line"/>
      <point x="550" y="403" type="line"/>
      <point x="550" y="85" type="line" smooth="yes"/>
      <point x="550" y="64.1265"/>
      <point x="563.896" y="59"/>
      <point x="582" y="59" type="curve" smooth="yes"/>
      <point x="651.459" y="59"/>
      <point x="687" y="176.626"/>
      <point x="687" y="232" type="curve" smooth="yes"/>
      <point x="687" y="395.469"/>
      <point x="583.815" y="512"/>
      <point x="417" y="512" type="curve" smooth="yes" name="mh03"/>
      <point x="247.503" y="512"/>
      <point x="110" y="387.802"/>
      <point x="110" y="215" type="curve" smooth="yes" name="ah01"/>
      <point x="110" y="54.7218"/>
      <point x="235.896" y="-97"/>
      <point x="402" y="-97" type="curve" smooth="yes" name="mv01"/>
      <point x="443.612" y="-97"/>
      <point x="486.31" y="-90.7577"/>
      <point x="525" y="-75" type="curve"/>
      <point x="538" y="-79" type="line"/>
      <point x="521" y="-143" type="line"/>
      <point x="481.706" y="-154.322"/>
      <point x="440.888" y="-160"/>
      <point x="400" y="-160" type="curve" smooth="yes"/>
      <point x="195.292" y="-160"/>
      <point x="42" y="17.8674"/>
      <point x="42" y="217" type="curve" smooth="yes" name="mh04"/>
      <point x="42" y="421.61"/>
      <point x="219.968" y="575"/>
      <point x="419" y="575" type="curve" smooth="yes" name="mh06"/>
      <point x="622.401" y="575"/>
      <point x="755" y="430.356"/>
      <point x="755" y="230" type="curve" smooth="yes"/>
      <point x="755" y="128.02"/>
      <point x="697.37" y="-4"/>
      <point x="579" y="-4" type="curve" smooth="yes"/>
      <point x="549.116" y="-4"/>
      <point x="516.911" y="2.77134"/>
      <point x="498" y="28" type="curve"/>
      <point x="470.417" y="4.77977"/>
      <point x="432.235" y="-4"/>
    </contour>
    <contour>
      <point x="405" y="345" type="curve" smooth="yes" name="mh07"/>
      <point x="321.323" y="345"/>
      <point x="281" y="284.042"/>
      <point x="281" y="206" type="curve" smooth="yes" name="mh08"/>
      <point x="281" y="126.42"/>
      <point x="315.044" y="59"/>
      <point x="404" y="59" type="curve" smooth="yes"/>
      <point x="431.291" y="59"/>
      <point x="459.76" y="68.1232"/>
      <point x="482" y="84" type="curve"/>
      <point x="482" y="325" type="line"/>
      <point x="458.799" y="338.25"/>
      <point x="431.636" y="345"/>
    </contour>
  </outline>
</glyph>
<glyph name="B" format="1">
  <advance width="557"/>
  <unicode hex="0042"/>
  <outline>
    <contour>
      <point x="181" y="314" type="line" name="hr00"/>
      <point x="181" y="68" type="line"/>
      <point x="309" y="68" type="line" smooth="yes"/>
      <point x="389.588" y="68"/>
      <point x="439" y="112.994"/>
      <point x="439" y="195" type="curve" smooth="yes"/>
      <point x="439" y="273.564"/>
      <point x="363.034" y="314"/>
      <point x="293" y="314" type="curve" smooth="yes"/>
    </contour>
    <contour>
      <point x="409" y="505" type="curve" smooth="yes"/>
      <point x="409" y="593.027"/>
      <point x="338.046" y="623"/>
      <point x="261" y="623" type="curve" smooth="yes" name="mh01"/>
      <point x="181" y="623" type="line" name="hr01"/>
      <point x="181" y="377" type="line"/>
      <point x="276" y="377" type="line" smooth="yes"/>
      <point x="353.822" y="377"/>
      <point x="409" y="425.187"/>
    </contour>
    <contour>
      <point x="62" y="0" type="line"/>
      <point x="55" y="56" type="line"/>
      <point x="112" y="68" type="line"/>
      <point x="112" y="627" type="line"/>
      <point x="55" y="632" type="line"/>
      <point x="55" y="691" type="line" name="mh02"/>
      <point x="263" y="691" type="line" smooth="yes"/>
      <point x="375.254" y="691"/>
      <point x="480" y="634.806"/>
      <point x="480" y="510" type="curve" smooth="yes"/>
      <point x="480" y="441.647"/>
      <point x="453.712" y="386.929"/>
      <point x="392" y="354" type="curve"/>
      <point x="468.227" y="319.693"/>
      <point x="510" y="274.087"/>
      <point x="510" y="187" type="curve" smooth="yes"/>
      <point x="510" y="52.8755"/>
      <point x="410.727" y="0"/>
      <point x="289" y="0" type="curve" smooth="yes"/>
    </contour>
  </outline>
</glyph>
<glyph name="C" format="1">
  <advance width="556"/>
  <unicode hex="0043"/>
  <outline>
    <contour>
      <point x="111" y="348" type="curve" smooth="yes" name="hr00"/>
      <point x="111" y="192.619"/>
      <point x="209.234" y="64"/>
      <point x="372" y="64" type="curve" smooth="yes"/>
      <point x="414.892" y="64"/>
      <point x="463.641" y="75.7443"/>
      <point x="500" y="99" type="curve"/>
      <point x="525" y="38" type="line"/>
      <point x="484.643" y="10.0883"/>
      <point x="421.614" y="-4"/>
      <point x="373" y="-4" type="curve" smooth="yes"/>
      <point x="168.328" y="-4"/>
      <point x="40" y="147.134"/>
      <point x="40" y="346" type="curve" smooth="yes"/>
      <point x="40" y="537.859"/>
      <point x="180.199" y="691"/>
      <point x="375" y="691" type="curve" smooth="yes" name="mh01"/>
      <point x="414.442" y="691"/>
      <point x="453.417" y="685.984"/>
      <point x="492" y="678" type="curve"/>
      <point x="510" y="520" type="line"/>
      <point x="453" y="520" type="line"/>
      <point x="429" y="618" type="line"/>
      <point x="411.039" y="620.264"/>
      <point x="395.384" y="623"/>
      <point x="377" y="623" type="curve" smooth="yes" name="mh02"/>
      <point x="223.135" y="623"/>
      <point x="111" y="499.764"/>
    </contour>
  </outline>
</glyph>
<glyph name="D" format="1">
  <advance width="605"/>
  <unicode hex="0044"/>
  <outline>
    <contour>
      <point x="55" y="56" type="line" name="hr00"/>
      <point x="112" y="69" type="line"/>
      <point x="112" y="627" type="line"/>
      <point x="55" y="632" type="line"/>
      <point x="55" y="691" type="line"/>
      <point x="198" y="691" type="line" smooth="yes" name="mh01"/>
      <point x="413.93" y="691"/>
      <point x="561" y="572.621"/>
      <point x="561" y="349" type="curve" smooth="yes"/>
      <point x="561" y="123.458"/>
      <point x="436.699" y="0"/>
      <point x="211" y="0" type="curve" smooth="yes"/>
      <point x="62" y="0" type="line"/>
    </contour>
    <contour>
      <point x="490" y="348" type="curve" smooth="yes"/>
      <point x="490" y="462.622"/>
      <point x="437.859" y="560.85"/>
      <point x="327.5" y="603" type="curve" smooth="yes"/>
      <point x="279.201" y="621.447"/>
      <point x="231.986" y="623"/>
      <point x="181" y="623" type="curve"/>
      <point x="181" y="68" type="line"/>
      <point x="225" y="68" type="line" smooth="yes"/>
      <point x="403.771" y="68"/>
      <point x="490" y="174.048"/>
    </contour>
  </outline>
</glyph>
<glyph name="G" format="1">
  <advance width="607"/>
  <unicode hex="0047"/>
  <outline>
    <contour>
      <point x="544" y="313" type="line" name="hr00"/>
      <point x="544" y="17" type="line"/>
      <point x="492.879" y="1.80282"/>
      <point x="439.217" y="-4"/>
      <point x="386" y="-4" type="curve" smooth="yes"/>
      <point x="185.687" y="-4"/>
      <point x="40" y="139.064"/>
      <point x="40" y="340" type="curve" smooth="yes"/>
      <point x="40" y="546.387"/>
      <point x="177.849" y="691"/>
      <point x="386" y="691" type="curve" smooth="yes" name="mh01"/>
      <point x="432.868" y="691"/>
      <point x="479.568" y="684.356"/>
      <point x="525" y="673" type="curve"/>
      <point x="536" y="519" type="line"/>
      <point x="473" y="519" type="line"/>
      <point x="450" y="618" type="line"/>
      <point x="427.21" y="621.028"/>
      <point x="404.001" y="623"/>
      <point x="381" y="623" type="curve" smooth="yes" name="mh02"/>
      <point x="214.357" y="623"/>
      <point x="111" y="506.243"/>
      <point x="111" y="343" type="curve" smooth="yes"/>
      <point x="111" y="175.879"/>
      <point x="225.577" y="64"/>
      <point x="392" y="64" type="curve" smooth="yes"/>
      <point x="419.477" y="64"/>
      <point x="448.109" y="65.0411"/>
      <point x="475" y="71" type="curve"/>
      <point x="475" y="238" type="line"/>
      <point x="352" y="252" type="line"/>
      <point x="370" y="313" type="line"/>
    </contour>
  </outline>
</glyph>
<glyph name="P" format="1">
  <advance width="520"/>
  <unicode hex="0050"/>
  <outline>
    <contour>
      <point x="235" y="332" type="line" smooth="yes" name="hr00"/>
      <point x="338.612" y="332"/>
      <point x="423" y="360.682"/>
      <point x="423" y="480" type="curve" smooth="yes"/>
      <point x="423" y="584.716"/>
      <point x="337.424" y="623"/>
      <point x="245" y="623" type="curve" smooth="yes"/>
      <point x="181" y="623" type="line"/>
      <point x="181" y="332" type="line"/>
    </contour>
    <contour>
      <point x="55" y="55" type="line"/>
      <point x="112" y="68" type="line"/>
      <point x="112" y="627" type="line"/>
      <point x="55" y="632" type="line"/>
      <point x="55" y="691" type="line"/>
      <point x="219" y="691" type="line" smooth="yes" name="mh01"/>
      <point x="356.134" y="691"/>
      <point x="494" y="641.779"/>
      <point x="494" y="481" type="curve" smooth="yes"/>
      <point x="494" y="375.812"/>
      <point x="433.885" y="303.604"/>
      <point x="333.5" y="276.5" type="curve" smooth="yes"/>
      <point x="282.569" y="262.749"/>
      <point x="233.438" y="264"/>
      <point x="181" y="264" type="curve"/>
      <point x="181" y="70" type="line"/>
      <point x="321" y="51" type="line"/>
      <point x="321" y="0" type="line"/>
      <point x="62" y="0" type="line"/>
    </contour>
  </outline>
</glyph>
<glyph name="Q" format="1">
  <advance width="649"/>
  <unicode hex="0051"/>
  <outline>
    <contour>
      <point x="283" y="-29" type="line" name="hr00"/>
      <point x="496" y="-102" type="line"/>
      <point x="501" y="-130" type="line"/>
      <point x="417" y="-191" type="line"/>
      <point x="363.221" y="-147.715"/>
      <point x="310.78" y="-102.771"/>
      <point x="260" y="-56" type="curve"/>
    </contour>
    <contour>
      <point x="325" y="-4" type="curve" smooth="yes"/>
      <point x="134.364" y="-4"/>
      <point x="50" y="175.142"/>
      <point x="50" y="343" type="curve" smooth="yes"/>
      <point x="50" y="510.161"/>
      <point x="134.874" y="691"/>
      <point x="325" y="691" type="curve" smooth="yes" name="mh01"/>
      <point x="514.237" y="691"/>
      <point x="600" y="509.568"/>
      <point x="600" y="343" type="curve" smooth="yes"/>
      <point x="600" y="175.736"/>
      <point x="514.743" y="-4"/>
    </contour>
    <contour>
      <point x="123" y="341" type="curve" smooth="yes"/>
      <point x="123" y="213.252"/>
      <point x="173.36" y="64"/>
      <point x="325" y="64" type="curve" smooth="yes"/>
      <point x="475.919" y="64"/>
      <point x="526" y="214.071"/>
      <point x="526" y="341" type="curve" smooth="yes"/>
      <point x="526" y="467.063"/>
      <point x="476.208" y="624"/>
      <point x="325" y="624" type="curve" smooth="yes"/>
      <point x="173.057" y="624"/>
      <point x="123" y="467.887"/>
    </contour>
  </outline>
</glyph>
<glyph name="R" format="1">
  <advance width="544"/>
  <unicode hex="0052"/>
  <outline>
    <contour>
      <point x="55" y="55" type="line" name="hr00"/>
      <point x="112" y="68" type="line"/>
      <point x="112" y="627" type="line"/>
      <point x="55" y="632" type="line"/>
      <point x="55" y="691" type="line"/>
      <point x="229" y="691" type="line" smooth="yes" name="mh01"/>
      <point x="366.078" y="691"/>
      <point x="494" y="637.572"/>
      <point x="494" y="481" type="curve" smooth="yes" name="mh02"/>
      <point x="494" y="381.951"/>
      <point x="436.477" y="311.208"/>
      <point x="343" y="282" type="curve"/>
      <point x="445" y="65" type="line"/>
      <point x="510" y="51" type="line"/>
      <point x="510" y="0" type="line"/>
      <point x="392" y="0" type="line"/>
      <point x="272" y="266" type="line"/>
      <point x="241.74" y="263.249"/>
      <point x="211.349" y="264"/>
      <point x="181" y="264" type="curve"/>
      <point x="181" y="70" type="line"/>
      <point x="259" y="51" type="line"/>
      <point x="259" y="0" type="line"/>
      <point x="62" y="0" type="line"/>
    </contour>
    <contour>
      <point x="235" y="332" type="line" smooth="yes" name="mh03"/>
      <point x="335.821" y="332"/>
      <point x="423" y="364.105"/>
      <point x="423" y="480" type="curve" smooth="yes" name="mh04"/>
      <point x="423" y="582.322"/>
      <point x="348.333" y="623"/>
      <point x="255" y="623" type="curve" smooth="yes"/>
      <point x="181" y="623" type="line"/>
      <point x="181" y="332" type="line"/>
    </contour>
  </outline>
</glyph>
<glyph name="S" format="1">
  <advance width="491"/>
  <unicode hex="0053"/>
  <outline>
    <contour>
      <point x="112" y="183" type="line" name="hr00"/>
      <point x="139" y="84" type="line"/>
      <point x="165.907" y="71.2646"/>
      <point x="203.281" y="64"/>
      <point x="233" y="64" type="curve" smooth="yes"/>
      <point x="303.82" y="64"/>
      <point x="375" y="102.25"/>
      <point x="375" y="181" type="curve" smooth="yes"/>
      <point x="375" y="363.141"/>
      <point x="54" y="307.459"/>
      <point x="54" y="520" type="curve" smooth="yes" name="mh02"/>
      <point x="54" y="630.836"/>
      <point x="156.123" y="691"/>
      <point x="257" y="691" type="curve" smooth="yes" name="mh03"/>
      <point x="310.434" y="691"/>
      <point x="361.306" y="677.803"/>
      <point x="411" y="659" type="curve"/>
      <point x="424" y="505" type="line"/>
      <point x="369" y="505" type="line"/>
      <point x="327" y="611" type="line"/>
      <point x="302.097" y="621.49"/>
      <point x="275.788" y="624"/>
      <point x="249" y="624" type="curve" smooth="yes"/>
      <point x="191.709" y="624"/>
      <point x="125" y="593.73"/>
      <point x="125" y="528" type="curve" smooth="yes"/>
      <point x="125" y="368.083"/>
      <point x="446" y="415.406"/>
      <point x="446" y="189" type="curve" smooth="yes" name="mh04"/>
      <point x="446" y="67.858"/>
      <point x="347.698" y="-4"/>
      <point x="233" y="-4" type="curve" smooth="yes"/>
      <point x="175.967" y="-4"/>
      <point x="116.908" y="4.41238"/>
      <point x="65" y="29" type="curve"/>
      <point x="54" y="183" type="line"/>
    </contour>
  </outline>
</glyph>
<glyph name="V" format="1">
  <advance width="562"/>
  <unicode hex="0056"/>
  <outline>
    <contour>
      <point x="205" y="691" type="line" name="hr00"/>
      <point x="205" y="647" type="line"/>
      <point x="117" y="626" type="line" name="mh01"/>
      <point x="284" y="111" type="line" name="mh02"/>
      <point x="455" y="629" type="line" name="mh03"/>
      <point x="364" y="646" type="line"/>
      <point x="364" y="691" type="line"/>
      <point x="560" y="691" type="line"/>
      <point x="560" y="644" type="line"/>
      <point x="520" y="626" type="line"/>
      <point x="312" y="0" type="line"/>
      <point x="247" y="0" type="line"/>
      <point x="44" y="626" type="line"/>
      <point x="8" y="644" type="line"/>
      <point x="8" y="691" type="line" name="mh04"/>
    </contour>
  </outline>
</glyph>
<glyph name="bracketleft" format="1">
  <advance width="306"/>
  <unicode hex="005B"/>
  <outline>
    <contour>
      <point x="88" y="669" type="line" name="mh01"/>
      <point x="294" y="669" type="line" smooth="yes"/>
      <point x="307.181" y="669"/>
      <point x="300" y="614.267"/>
      <point x="300" y="607" type="curve"/>
      <point x="149" y="607" type="line"/>
      <point x="149" y="-117" type="line"/>
      <point x="300" y="-117" type="line"/>
      <point x="300" y="-171" type="line" smooth="yes" name="hr01"/>
      <point x="300" y="-174.966"/>
      <point x="298.578" y="-179"/>
      <point x="294" y="-179" type="curve" smooth="yes"/>
      <point x="94" y="-179" type="line"/>
      <point x="81" y="-163" type="line" name="hr02"/>
      <point x="81" y="655" type="line"/>
    </contour>
  </outline>
</glyph>
<glyph name="grave" format="1">
  <advance width="284"/>
  <unicode hex="0060"/>
  <outline>
    <contour>
      <point x="195" y="553" type="line" name="hr00"/>
      <point x="55" y="673" type="line"/>
      <point x="99" y="726" type="line" name="mh01"/>
      <point x="125" y="726" type="line" name="mh02"/>
      <point x="229" y="586" type="line"/>
    </contour>
  </outline>
</glyph>
<glyph name="b" format="1">
  <advance width="484"/>
  <unicode hex="0062"/>
  <outline>
    <contour>
      <point x="138" y="697" type="line" name="hr00"/>
      <point x="138" y="442" type="line"/>
      <point x="168.339" y="466.823"/>
      <point x="208.065" y="479"/>
      <point x="247" y="479" type="curve" smooth="yes"/>
      <point x="382.009" y="479"/>
      <point x="442" y="363.111"/>
      <point x="442" y="242" type="curve" smooth="yes"/>
      <point x="442" y="114.305"/>
      <point x="375.541" y="-4"/>
      <point x="235" y="-4" type="curve" smooth="yes"/>
      <point x="197.617" y="-4"/>
      <point x="159.578" y="2.99457"/>
      <point x="127" y="22" type="curve"/>
      <point x="104.705" y="6.39325"/>
      <point x="103.065" y="0"/>
      <point x="75" y="0" type="curve"/>
      <point x="75" y="661" type="line"/>
      <point x="14" y="657" type="line"/>
      <point x="6" y="709" type="line"/>
      <point x="111" y="727" type="line" name="mh01"/>
    </contour>
    <contour>
      <point x="233" y="53" type="curve" smooth="yes"/>
      <point x="339.152" y="53"/>
      <point x="376" y="144.809"/>
      <point x="376" y="237" type="curve" smooth="yes"/>
      <point x="376" y="322.357"/>
      <point x="342.136" y="422"/>
      <point x="241" y="422" type="curve" smooth="yes"/>
      <point x="204.673" y="422"/>
      <point x="157.47" y="402.982"/>
      <point x="138" y="371" type="curve"/>
      <point x="138" y="85" type="line"/>
      <point x="164.775" y="63.5774"/>
      <point x="198.886" y="53"/>
    </contour>
  </outline>
</glyph>
<glyph name="c" format="1">
  <advance width="405"/>
  <unicode hex="0063"/>
  <outline>
    <contour>
      <point x="339" y="373" type="line" name="hr00"/>
      <point x="280" y="420" type="line"/>
      <point x="268.303" y="422.89"/>
      <point x="255.937" y="422"/>
      <point x="244" y="422" type="curve" smooth="yes"/>
      <point x="135.591" y="422"/>
      <point x="109" y="321.879"/>
      <point x="109" y="232" type="curve" smooth="yes"/>
      <point x="109" y="133.559"/>
      <point x="148.472" y="53"/>
      <point x="258" y="53" type="curve" smooth="yes"/>
      <point x="294.889" y="53"/>
      <point x="328.11" y="61.3933"/>
      <point x="360" y="80" type="curve"/>
      <point x="377" y="31" type="line"/>
      <point x="340.845" y="3.1869"/>
      <point x="292.516" y="-4"/>
      <point x="248" y="-4" type="curve" smooth="yes"/>
      <point x="108.718" y="-4"/>
      <point x="43" y="104.52"/>
      <point x="43" y="233" type="curve" smooth="yes"/>
      <point x="43" y="363.651"/>
      <point x="104.383" y="479"/>
      <point x="249" y="479" type="curve" smooth="yes"/>
      <point x="293.057" y="479"/>
      <point x="346.874" y="468.581"/>
      <point x="383" y="442" type="curve"/>
    </contour>
  </outline>
</glyph>
<glyph name="d" format="1">
  <advance width="495"/>
  <unicode hex="0064"/>
  <outline>
    <contour>
      <point x="285" y="657" type="line" name="hr00"/>
      <point x="277" y="709" type="line"/>
      <point x="382" y="727" type="line" name="mh01"/>
      <point x="409" y="697" type="line"/>
      <point x="409" y="79" type="line" smooth="yes"/>
      <point x="409" y="62.9326"/>
      <point x="414.021" y="50"/>
      <point x="432" y="50" type="curve" smooth="yes"/>
      <point x="439.217" y="50"/>
      <point x="446.366" y="52.349"/>
      <point x="453" y="55" type="curve"/>
      <point x="464" y="15" type="line"/>
      <point x="450.933" y="1.93495"/>
      <point x="426.009" y="-4"/>
      <point x="408" y="-4" type="curve" smooth="yes"/>
      <point x="379.229" y="-4"/>
      <point x="360.67" y="9.2397"/>
      <point x="352" y="37" type="curve"/>
      <point x="321.158" y="8.83629"/>
      <point x="281.394" y="-4"/>
      <point x="240" y="-4" type="curve" smooth="yes"/>
      <point x="107.216" y="-4"/>
      <point x="42" y="115.22"/>
      <point x="42" y="235" type="curve" smooth="yes"/>
      <point x="42" y="365.076"/>
      <point x="107.659" y="479"/>
      <point x="250" y="479" type="curve" smooth="yes" name="mh02"/>
      <point x="283.517" y="479"/>
      <point x="315.306" y="472.636"/>
      <point x="346" y="459" type="curve"/>
      <point x="346" y="661" type="line"/>
    </contour>
    <contour>
      <point x="254" y="422" type="curve" smooth="yes" name="mh03"/>
      <point x="148.455" y="422"/>
      <point x="108" y="332.191"/>
      <point x="108" y="239" type="curve" smooth="yes"/>
      <point x="108" y="152.487"/>
      <point x="144.175" y="53"/>
      <point x="246" y="53" type="curve" smooth="yes"/>
      <point x="284.839" y="53"/>
      <point x="324.702" y="70.7103"/>
      <point x="346" y="104" type="curve"/>
      <point x="346" y="387" type="line"/>
      <point x="322.865" y="412.866"/>
      <point x="287.692" y="422"/>
    </contour>
  </outline>
</glyph>
<glyph name="e" format="1">
  <advance width="443"/>
  <unicode hex="0065"/>
  <outline>
    <contour>
      <point x="264" y="52" type="curve" smooth="yes" name="hr00"/>
      <point x="304.678" y="52"/>
      <point x="348.021" y="63.629"/>
      <point x="381" y="88" type="curve"/>
      <point x="398" y="34" type="line"/>
      <point x="358.271" y="5.22868"/>
      <point x="307.207" y="-4"/>
      <point x="259" y="-4" type="curve" smooth="yes"/>
      <point x="117.318" y="-4"/>
      <point x="42" y="97.0402"/>
      <point x="42" y="232" type="curve" smooth="yes"/>
      <point x="42" y="359.558"/>
      <point x="112.199" y="479"/>
      <point x="252" y="479" type="curve" smooth="yes" name="mh01"/>
      <point x="330.632" y="479"/>
      <point x="401" y="432.374"/>
      <point x="401" y="348" type="curve" smooth="yes"/>
      <point x="401" y="199.606"/>
      <point x="222.35" y="185.002"/>
      <point x="111" y="185" type="curve"/>
      <point x="125.572" y="100.407"/>
      <point x="177.097" y="52"/>
    </contour>
    <contour>
      <point x="125" y="244" type="line" smooth="yes"/>
      <point x="197.044" y="244"/>
      <point x="335" y="247.205"/>
      <point x="335" y="348" type="curve" smooth="yes"/>
      <point x="335" y="396.89"/>
      <point x="296.624" y="422"/>
      <point x="251" y="422" type="curve" smooth="yes" name="mh02"/>
      <point x="153.803" y="422"/>
      <point x="110.363" y="329.162"/>
      <point x="108" y="244" type="curve"/>
    </contour>
  </outline>
</glyph>
<glyph name="f" format="1">
  <advance width="311"/>
  <unicode hex="0066"/>
  <outline>
    <contour>
      <point x="38" y="422" type="line" name="hr00"/>
      <point x="24" y="468" type="line"/>
      <point x="31" y="479" type="line"/>
      <point x="101" y="479" type="line"/>
      <point x="101" y="583.366"/>
      <point x="75.9076" y="727"/>
      <point x="223" y="727" type="curve" smooth="yes" name="mh01"/>
      <point x="263.051" y="727"/>
      <point x="301.177" y="710.294"/>
      <point x="335" y="690" type="curve"/>
      <point x="286" y="622" type="line"/>
      <point x="230" y="670" type="line"/>
      <point x="223.972" y="669.993"/>
      <point x="218.028" y="671"/>
      <point x="212" y="671" type="curve" smooth="yes" name="mh02"/>
      <point x="171.672" y="671"/>
      <point x="164" y="642.396"/>
      <point x="164" y="608" type="curve" smooth="yes"/>
      <point x="164" y="479" type="line"/>
      <point x="274" y="479" type="line" smooth="yes"/>
      <point x="283.704" y="479"/>
      <point x="279" y="431.306"/>
      <point x="279" y="422" type="curve"/>
      <point x="164" y="422" type="line"/>
      <point x="164" y="61" type="line"/>
      <point x="274" y="45" type="line"/>
      <point x="274" y="0" type="line"/>
      <point x="50" y="0" type="line"/>
      <point x="42" y="44" type="line"/>
      <point x="101" y="58" type="line"/>
      <point x="101" y="422" type="line"/>
    </contour>
  </outline>
</glyph>
<glyph name="g" format="1">
  <advance width="476"/>
  <unicode hex="0067"/>
  <outline>
    <contour>
      <point x="226" y="479" type="curve" smooth="yes" name="hr00"/>
      <point x="269.223" y="479"/>
      <point x="312.939" y="466.75"/>
      <point x="346" y="438" type="curve"/>
      <point x="437" y="483" type="line"/>
      <point x="456" y="480" type="line"/>
      <point x="466" y="412" type="line"/>
      <point x="379" y="401" type="line"/>
      <point x="397.671" y="372.273"/>
      <point x="406" y="338.041"/>
      <point x="406" y="304" type="curve" smooth="yes"/>
      <point x="406" y="199.569"/>
      <point x="329.176" y="128"/>
      <point x="226" y="128" type="curve" smooth="yes"/>
      <point x="208.517" y="128"/>
      <point x="190.981" y="129.756"/>
      <point x="174" y="134" type="curve"/>
      <point x="153" y="103" type="line"/>
      <point x="156" y="82" type="line"/>
      <point x="180.786" y="74.918"/>
      <point x="205.965" y="66.9747"/>
      <point x="231" y="61" type="curve" smooth="yes"/>
      <point x="319.186" y="39.9546"/>
      <point x="421" y="17.7343"/>
      <point x="421" y="-94" type="curve" smooth="yes"/>
      <point x="421" y="-207.948"/>
      <point x="320.405" y="-265"/>
      <point x="217" y="-265" type="curve" smooth="yes"/>
      <point x="121.194" y="-265"/>
      <point x="22" y="-211.831"/>
      <point x="22" y="-105" type="curve" smooth="yes"/>
      <point x="22" y="-44.5924"/>
      <point x="60.382" y="5.76361"/>
      <point x="114" y="31" type="curve"/>
      <point x="93.1626" y="44.8776"/>
      <point x="81" y="61.3562"/>
      <point x="81" y="87" type="curve" smooth="yes"/>
      <point x="81" y="115.334"/>
      <point x="99.4949" y="139.172"/>
      <point x="118" y="159" type="curve"/>
      <point x="69.5764" y="192.746"/>
      <point x="47" y="244.924"/>
      <point x="47" y="303" type="curve" smooth="yes"/>
      <point x="47" y="407.991"/>
      <point x="121.882" y="479"/>
    </contour>
    <contour>
      <point x="85" y="-103" type="curve" smooth="yes"/>
      <point x="85" y="-169.702"/>
      <point x="162.98" y="-202"/>
      <point x="220" y="-202" type="curve" smooth="yes"/>
      <point x="278.372" y="-202"/>
      <point x="364" y="-172.244"/>
      <point x="364" y="-102" type="curve" smooth="yes"/>
      <point x="364" y="-20.9943"/>
      <point x="237.086" y="-9.24791"/>
      <point x="178" y="6" type="curve"/>
      <point x="129.245" y="-11.1278"/>
      <point x="85" y="-47.5268"/>
    </contour>
    <contour>
      <point x="226" y="422" type="curve" smooth="yes"/>
      <point x="154.992" y="422"/>
      <point x="113" y="373.601"/>
      <point x="113" y="304" type="curve" smooth="yes"/>
      <point x="113" y="234.545"/>
      <point x="154.809" y="185"/>
      <point x="226" y="185" type="curve" smooth="yes"/>
      <point x="297.03" y="185"/>
      <point x="340" y="234.372"/>
      <point x="340" y="304" type="curve" smooth="yes"/>
      <point x="340" y="373.772"/>
      <point x="296.846" y="422"/>
    </contour>
  </outline>
</glyph>
<glyph name="h" format="1">
  <advance width="498"/>
  <unicode hex="0068"/>
  <outline>
    <contour>
      <point x="151" y="697" type="line" name="hr00"/>
      <point x="151" y="441" type="line"/>
      <point x="185.975" y="465.214"/>
      <point x="228.404" y="479"/>
      <point x="271" y="479" type="curve" smooth="yes"/>
      <point x="365.323" y="479"/>
      <point x="414" y="427.617"/>
      <point x="414" y="334" type="curve" smooth="yes"/>
      <point x="414" y="58" type="line"/>
      <point x="475" y="44" type="line"/>
      <point x="475" y="0" type="line"/>
      <point x="295" y="0" type="line"/>
      <point x="291" y="44" type="line"/>
      <point x="351" y="58" type="line"/>
      <point x="351" y="327" type="line" smooth="yes"/>
      <point x="351" y="384.644"/>
      <point x="327.228" y="422"/>
      <point x="266" y="422" type="curve" smooth="yes"/>
      <point x="224.477" y="422"/>
      <point x="182.339" y="406.251"/>
      <point x="151" y="379" type="curve"/>
      <point x="151" y="58" type="line"/>
      <point x="207" y="45" type="line"/>
      <point x="207" y="0" type="line"/>
      <point x="35" y="0" type="line"/>
      <point x="30" y="44" type="line"/>
      <point x="88" y="58" type="line"/>
      <point x="88" y="661" type="line"/>
      <point x="33" y="661" type="line"/>
      <point x="24" y="710" type="line"/>
      <point x="122" y="727" type="line" name="mh01"/>
    </contour>
  </outline>
</glyph>
<glyph name="i" format="1">
  <advance width="249"/>
  <unicode hex="0069"/>
  <outline>
    <contour>
      <point x="160" y="451" type="line" name="hr00"/>
      <point x="160" y="59" type="line"/>
      <point x="221" y="44" type="line"/>
      <point x="221" y="0" type="line"/>
      <point x="46" y="0" type="line"/>
      <point x="37" y="43" type="line"/>
      <point x="97" y="58" type="line"/>
      <point x="97" y="416" type="line"/>
      <point x="43" y="412" type="line"/>
      <point x="34" y="463" type="line"/>
      <point x="133" y="481" type="line" name="mh01"/>
    </contour>
    <contour>
      <point x="59" y="671" type="curve" smooth="yes"/>
      <point x="59" y="700.169"/>
      <point x="81.498" y="724"/>
      <point x="111" y="724" type="curve" smooth="yes" name="mh02"/>
      <point x="140.372" y="724"/>
      <point x="164" y="700.372"/>
      <point x="164" y="671" type="curve" smooth="yes"/>
      <point x="164" y="641.498"/>
      <point x="140.169" y="619"/>
      <point x="111" y="619" type="curve" smooth="yes"/>
      <point x="81.6974" y="619"/>
      <point x="59" y="641.697"/>
    </contour>
  </outline>
</glyph>
<glyph name="j" format="1">
  <advance width="228"/>
  <unicode hex="006A"/>
  <outline>
    <contour>
      <point x="53" y="671" type="curve" smooth="yes" name="hr00"/>
      <point x="53" y="700.169"/>
      <point x="75.498" y="724"/>
      <point x="105" y="724" type="curve" smooth="yes" name="mh01"/>
      <point x="134.372" y="724"/>
      <point x="158" y="700.372"/>
      <point x="158" y="671" type="curve" smooth="yes"/>
      <point x="158" y="641.498"/>
      <point x="134.169" y="619"/>
      <point x="105" y="619" type="curve" smooth="yes"/>
      <point x="75.6974" y="619"/>
      <point x="53" y="641.697"/>
    </contour>
    <contour>
      <point x="23" y="411" type="line"/>
      <point x="15" y="462" type="line"/>
      <point x="128" y="481" type="line" name="mh02"/>
      <point x="155" y="451" type="line"/>
      <point x="155" y="-166" type="line" smooth="yes"/>
      <point x="155" y="-229.83"/>
      <point x="127.181" y="-273"/>
      <point x="59" y="-273" type="curve" smooth="yes"/>
      <point x="28.5846" y="-273"/>
      <point x="-4.38866" y="-259.54"/>
      <point x="-26" y="-238" type="curve"/>
      <point x="7" y="-190" type="line"/>
      <point x="21.1729" y="-204.162"/>
      <point x="39.2638" y="-217"/>
      <point x="60" y="-217" type="curve" smooth="yes"/>
      <point x="92.6891" y="-217"/>
      <point x="92" y="-180.337"/>
      <point x="92" y="-156" type="curve" smooth="yes"/>
      <point x="92" y="416" type="line"/>
    </contour>
  </outline>
</glyph>
<glyph name="n" format="1">
  <advance width="505"/>
  <unicode hex="006E"/>
  <outline>
    <contour>
      <point x="421" y="58" type="line" name="hr00"/>
      <point x="482" y="44" type="line"/>
      <point x="482" y="0" type="line"/>
      <point x="302" y="0" type="line" name="hr01"/>
      <point x="298" y="44" type="line"/>
      <point x="358" y="58" type="line"/>
      <point x="358" y="327" type="line" smooth="yes"/>
      <point x="358" y="384.642"/>
      <point x="334.229" y="422"/>
      <point x="273" y="422" type="curve" smooth="yes"/>
      <point x="231.622" y="422"/>
      <point x="189.332" y="407.245"/>
      <point x="158" y="380" type="curve"/>
      <point x="158" y="59" type="line"/>
      <point x="219" y="44" type="line"/>
      <point x="219" y="0" type="line"/>
      <point x="46" y="0" type="line"/>
      <point x="40" y="43" type="line"/>
      <point x="95" y="58" type="line"/>
      <point x="95" y="420" type="line"/>
      <point x="41" y="416" type="line" name="mh01"/>
      <point x="32" y="463" type="line" name="hr02"/>
      <point x="133" y="481" type="line" name="mh02"/>
      <point x="155" y="440" type="line"/>
      <point x="191.439" y="465.385"/>
      <point x="233.541" y="479"/>
      <point x="278" y="479" type="curve" smooth="yes" name="mh03"/>
      <point x="372.323" y="479"/>
      <point x="421" y="427.617"/>
      <point x="421" y="334" type="curve" smooth="yes" name="mh04"/>
    </contour>
  </outline>
</glyph>
<glyph name="p" format="1">
  <advance width="500"/>
  <unicode hex="0070"/>
  <outline>
    <contour>
      <point x="30" y="412" type="line" name="hr00"/>
      <point x="22" y="463" type="line"/>
      <point x="127" y="481" type="line" name="mh01"/>
      <point x="154" y="445" type="line"/>
      <point x="185.218" y="467.702"/>
      <point x="224.597" y="479"/>
      <point x="263" y="479" type="curve" smooth="yes" name="mh02"/>
      <point x="398.014" y="479"/>
      <point x="458" y="363.105"/>
      <point x="458" y="242" type="curve" smooth="yes" name="hr01"/>
      <point x="458" y="114.304"/>
      <point x="391.54" y="-4"/>
      <point x="251" y="-4" type="curve" smooth="yes"/>
      <point x="217.755" y="-4"/>
      <point x="183.974" y="1.01191"/>
      <point x="154" y="16" type="curve"/>
      <point x="154" y="-208" type="line"/>
      <point x="275" y="-229" type="line"/>
      <point x="275" y="-273" type="line"/>
      <point x="41" y="-273" type="line"/>
      <point x="32" y="-229" type="line"/>
      <point x="91" y="-215" type="line"/>
      <point x="91" y="416" type="line"/>
    </contour>
    <contour>
      <point x="249" y="53" type="curve" smooth="yes"/>
      <point x="355.152" y="53"/>
      <point x="392" y="144.809"/>
      <point x="392" y="237" type="curve" smooth="yes"/>
      <point x="392" y="322.357"/>
      <point x="358.136" y="422"/>
      <point x="257" y="422" type="curve" smooth="yes"/>
      <point x="220.673" y="422"/>
      <point x="173.47" y="402.982"/>
      <point x="154" y="371" type="curve"/>
      <point x="154" y="85" type="line"/>
      <point x="180.775" y="63.5774"/>
      <point x="214.886" y="53"/>
    </contour>
  </outline>
</glyph>
<glyph name="q" format="1">
  <advance width="483"/>
  <unicode hex="0071"/>
  <outline>
    <contour>
      <point x="409" y="470" type="line" name="hr00"/>
      <point x="409" y="-215" type="line"/>
      <point x="468" y="-229" type="line"/>
      <point x="468" y="-273" type="line"/>
      <point x="232" y="-273" type="line"/>
      <point x="225" y="-229" type="line"/>
      <point x="346" y="-202" type="line"/>
      <point x="346" y="32" type="line"/>
      <point x="315.974" y="6.02402"/>
      <point x="275.869" y="-4"/>
      <point x="237" y="-4" type="curve" smooth="yes"/>
      <point x="103.992" y="-4"/>
      <point x="42" y="115.214"/>
      <point x="42" y="234" type="curve" smooth="yes"/>
      <point x="42" y="358.007"/>
      <point x="106.797" y="481"/>
      <point x="246" y="481" type="curve" smooth="yes" name="mh01"/>
      <point x="284.934" y="481"/>
      <point x="318.169" y="472.335"/>
      <point x="351" y="451" type="curve"/>
      <point x="374" y="480" type="line"/>
    </contour>
    <contour>
      <point x="252" y="423" type="curve" smooth="yes"/>
      <point x="145.246" y="423"/>
      <point x="108" y="331.347"/>
      <point x="108" y="239" type="curve" smooth="yes"/>
      <point x="108" y="153.757"/>
      <point x="140.606" y="54"/>
      <point x="243" y="54" type="curve" smooth="yes"/>
      <point x="280.438" y="54"/>
      <point x="325.61" y="70.6882"/>
      <point x="346" y="104" type="curve"/>
      <point x="346" y="387" type="line"/>
      <point x="325.104" y="411.984"/>
      <point x="283.309" y="423"/>
    </contour>
  </outline>
</glyph>
<glyph name="r" format="1">
  <advance width="386"/>
  <unicode hex="0072"/>
  <outline>
    <contour>
      <point x="159" y="440" type="line" name="hr00"/>
      <point x="186.172" y="464.703"/>
      <point x="222.96" y="481"/>
      <point x="260" y="481" type="curve" smooth="yes" name="mh01"/>
      <point x="310.128" y="481"/>
      <point x="348.298" y="454.457"/>
      <point x="377" y="415" type="curve"/>
      <point x="301" y="378" type="line"/>
      <point x="267" y="424" type="line"/>
      <point x="205.539" y="423.971"/>
      <point x="159" y="371.593"/>
      <point x="159" y="312" type="curve" smooth="yes"/>
      <point x="159" y="64" type="line"/>
      <point x="299" y="44" type="line"/>
      <point x="299" y="0" type="line"/>
      <point x="46" y="0" type="line"/>
      <point x="37" y="44" type="line"/>
      <point x="96" y="58" type="line"/>
      <point x="96" y="415" type="line"/>
      <point x="42" y="415" type="line"/>
      <point x="34" y="463" type="line"/>
      <point x="132" y="480" type="line" name="mh02"/>
    </contour>
  </outline>
</glyph>
<glyph name="s" format="1">
  <advance width="397"/>
  <unicode hex="0073"/>
  <outline>
    <contour>
      <point x="199" y="481" type="curve" smooth="yes" name="hr00"/>
      <point x="264.337" y="481"/>
      <point x="333.929" y="445.845"/>
      <point x="361" y="384" type="curve"/>
      <point x="283" y="355" type="line"/>
      <point x="260" y="406" type="line"/>
      <point x="243.033" y="420.018"/>
      <point x="220.18" y="423"/>
      <point x="199" y="423" type="curve" smooth="yes"/>
      <point x="159.999" y="423"/>
      <point x="118" y="398.882"/>
      <point x="118" y="356" type="curve" smooth="yes"/>
      <point x="118" y="247.56"/>
      <point x="351" y="302.872"/>
      <point x="351" y="130" type="curve" smooth="yes" name="mh01"/>
      <point x="351" y="43.6115"/>
      <point x="273.209" y="-4"/>
      <point x="194" y="-4" type="curve" smooth="yes"/>
      <point x="124.903" y="-4"/>
      <point x="64.6678" y="30.773"/>
      <point x="32" y="92" type="curve" name="mh03"/>
      <point x="110" y="122" type="line"/>
      <point x="133" y="70" type="line"/>
      <point x="153.908" y="57.6309"/>
      <point x="176.083" y="54"/>
      <point x="200" y="54" type="curve" smooth="yes"/>
      <point x="239.599" y="54"/>
      <point x="285" y="80.2418"/>
      <point x="285" y="124" type="curve" smooth="yes"/>
      <point x="285" y="243.917"/>
      <point x="52" y="194.003"/>
      <point x="52" y="350" type="curve" smooth="yes" name="mh05"/>
      <point x="52" y="432.519"/>
      <point x="121.58" y="481"/>
    </contour>
  </outline>
</glyph>
<glyph name="t" format="1">
  <advance width="303"/>
  <unicode hex="0074"/>
  <outline>
    <contour>
      <point x="21" y="424" type="line" name="hr00"/>
      <point x="7" y="468" type="line"/>
      <point x="14" y="479" type="line"/>
      <point x="102" y="479" type="line"/>
      <point x="102" y="535.004"/>
      <point x="102.993" y="591.002"/>
      <point x="103" y="647" type="curve"/>
      <point x="159" y="661" type="line"/>
      <point x="165" y="650" type="line"/>
      <point x="164.347" y="634.342"/>
      <point x="164" y="618.671"/>
      <point x="164" y="603" type="curve" smooth="yes"/>
      <point x="164" y="479" type="line"/>
      <point x="270" y="479" type="line" smooth="yes"/>
      <point x="279.637" y="479"/>
      <point x="275" y="432.995"/>
      <point x="275" y="424" type="curve"/>
      <point x="163" y="424" type="line"/>
      <point x="163" y="101" type="line" smooth="yes"/>
      <point x="163" y="68.9516"/>
      <point x="174.975" y="54"/>
      <point x="208" y="54" type="curve" smooth="yes"/>
      <point x="232.152" y="54"/>
      <point x="252.856" y="66.3816"/>
      <point x="272" y="80" type="curve"/>
      <point x="289" y="29" type="line"/>
      <point x="256.891" y="4.9515"/>
      <point x="231.145" y="-4"/>
      <point x="191" y="-4" type="curve" smooth="yes"/>
      <point x="163.653" y="-4"/>
      <point x="137.503" y="3.96368"/>
      <point x="121" y="27" type="curve" smooth="yes"/>
      <point x="104.655" y="49.8154"/>
      <point x="99" y="78.3836"/>
      <point x="99" y="106" type="curve" smooth="yes"/>
      <point x="99" y="212.005"/>
      <point x="101" y="317.995"/>
      <point x="101" y="424" type="curve"/>
    </contour>
  </outline>
</glyph>
<glyph name="y" format="1">
  <advance width="449"/>
  <unicode hex="0079"/>
  <outline>
    <contour>
      <point x="436" y="445" type="line" name="hr00"/>
      <point x="333" y="163.5" type="line" smooth="yes"/>
      <point x="295.934" y="62.1055"/>
      <point x="257.935" y="-38.9293"/>
      <point x="220" y="-140" type="curve" smooth="yes"/>
      <point x="208.528" y="-170.565"/>
      <point x="197.302" y="-201.833"/>
      <point x="178" y="-228.5" type="curve" smooth="yes"/>
      <point x="158.128" y="-255.955"/>
      <point x="133.821" y="-273"/>
      <point x="99" y="-273" type="curve" smooth="yes" name="mh01"/>
      <point x="64.9984" y="-273"/>
      <point x="37.0606" y="-257.575"/>
      <point x="11" y="-237" type="curve"/>
      <point x="42" y="-185" type="line"/>
      <point x="57.6994" y="-200.622"/>
      <point x="76.8765" y="-215"/>
      <point x="100" y="-215" type="curve" smooth="yes" name="mh02"/>
      <point x="154.557" y="-215"/>
      <point x="187.319" y="-79.797"/>
      <point x="199" y="-47" type="curve"/>
      <point x="45" y="425" type="line" name="hr01"/>
      <point x="11" y="425" type="line"/>
      <point x="3" y="474" type="line"/>
      <point x="98" y="480" type="line" name="mh03"/>
      <point x="235" y="54" type="line" name="mh04"/>
      <point x="367" y="425" type="line" name="mh05"/>
      <point x="331" y="425" type="line" name="mh06"/>
      <point x="323" y="474" type="line"/>
      <point x="419" y="480" type="line"/>
    </contour>
  </outline>
</glyph>
<glyph name="braceleft" format="1">
  <advance width="309"/>
  <unicode hex="007B"/>
  <outline>
    <contour>
      <point x="14" y="316" type="line" name="hr00"/>
      <point x="41.7738" y="315.997"/>
      <point x="69.7993" y="324.935"/>
      <point x="91.5" y="342.5" type="curve" smooth="yes"/>
      <point x="142.265" y="383.59"/>
      <point x="125" y="479.189"/>
      <point x="125" y="540" type="curve" smooth="yes"/>
      <point x="125" y="624.323"/>
      <point x="150.105" y="699"/>
      <point x="248" y="699" type="curve" smooth="yes"/>
      <point x="268.461" y="699"/>
      <point x="288.714" y="696.387"/>
      <point x="309" y="694" type="curve"/>
      <point x="288" y="617" type="line"/>
      <point x="231" y="634" type="line"/>
      <point x="174.09" y="624.533"/>
      <point x="193" y="469.89"/>
      <point x="193" y="426" type="curve" smooth="yes"/>
      <point x="193" y="341.36"/>
      <point x="167.959" y="287.098"/>
      <point x="78" y="276" type="curve"/>
      <point x="78" y="272" type="line"/>
      <point x="220.101" y="254.391"/>
      <point x="191" y="127.435"/>
      <point x="191" y="21" type="curve" smooth="yes"/>
      <point x="191" y="-15.6741"/>
      <point x="188.611" y="-83.1413"/>
      <point x="231" y="-96" type="curve"/>
      <point x="288" y="-79" type="line"/>
      <point x="309" y="-155" type="line"/>
      <point x="288.803" y="-158.566"/>
      <point x="268.535" y="-161"/>
      <point x="248" y="-161" type="curve" smooth="yes"/>
      <point x="93.6782" y="-161"/>
      <point x="126" y="28.3325"/>
      <point x="126" y="131" type="curve" smooth="yes"/>
      <point x="126" y="200.954"/>
      <point x="79.9152" y="232.01"/>
      <point x="14" y="232" type="curve"/>
    </contour>
  </outline>
</glyph>
<glyph name="braceright" format="1">
  <advance width="310"/>
  <unicode hex="007D"/>
  <outline>
    <contour>
      <point x="296" y="232" type="line" name="hr00"/>
      <point x="206.076" y="232.013"/>
      <point x="183" y="188.22"/>
      <point x="183" y="106" type="curve" smooth="yes"/>
      <point x="183" y="70.3333"/>
      <point x="184" y="34.6808"/>
      <point x="184" y="-1" type="curve" smooth="yes"/>
      <point x="184" y="-84.9381"/>
      <point x="159.048" y="-161"/>
      <point x="61" y="-161" type="curve" smooth="yes"/>
      <point x="40.4978" y="-161"/>
      <point x="20.1657" y="-158.56"/>
      <point x="0" y="-155" type="curve"/>
      <point x="21" y="-79" type="line"/>
      <point x="78" y="-96" type="line"/>
      <point x="88" y="-93" type="line" smooth="yes"/>
      <point x="130.529" y="-78.763"/>
      <point x="116" y="79.9313"/>
      <point x="116" y="118" type="curve" smooth="yes"/>
      <point x="116" y="205.394"/>
      <point x="137.79" y="260.45"/>
      <point x="231" y="272" type="curve"/>
      <point x="231" y="276" type="line"/>
      <point x="89.0009" y="293.523"/>
      <point x="118" y="421.509"/>
      <point x="118" y="527" type="curve" smooth="yes"/>
      <point x="118" y="559.597"/>
      <point x="119.997" y="627.96"/>
      <point x="78" y="634" type="curve"/>
      <point x="21" y="617" type="line"/>
      <point x="0" y="694" type="line"/>
      <point x="20.2658" y="696.384"/>
      <point x="40.5617" y="699"/>
      <point x="61" y="699" type="curve" smooth="yes"/>
      <point x="213.168" y="699"/>
      <point x="183" y="518.758"/>
      <point x="183" y="417" type="curve" smooth="yes"/>
      <point x="183" y="353.924"/>
      <point x="236.583" y="315.996"/>
      <point x="296" y="316" type="curve"/>
    </contour>
  </outline>
</glyph>
<glyph name="asciitilde" format="1">
  <advance width="387"/>
  <unicode hex="007E"/>
  <outline>
    <contour>
      <point x="266" y="621" type="curve" name="hr02"/>
      <point x="322" y="663" type="line" name="hr01"/>
      <point x="359" y="601" type="line"/>
      <point x="332.091" y="578.34"/>
      <point x="300.71" y="563"/>
      <point x="265" y="563" type="curve" smooth="yes" name="mh01"/>
      <point x="217.787" y="563"/>
      <point x="178.938" y="600"/>
      <point x="132" y="600" type="curve" smooth="yes" name="mh02"/>
      <point x="104.235" y="600"/>
      <point x="83.5479" y="578.555"/>
      <point x="74" y="554" type="curve"/>
      <point x="31" y="580" type="line"/>
      <point x="41.9643" y="624.697"/>
      <point x="87.6682" y="663"/>
      <point x="134" y="663" type="curve" smooth="yes" name="mh03"/>
      <point x="190.734" y="663"/>
      <point x="231.089" y="621.008"/>
    </contour>
  </outline>
</glyph>
<glyph name="exclamdown" format="1">
  <advance width="239"/>
  <unicode hex="00A1"/>
  <outline>
    <contour>
      <point x="146" y="260" type="line" name="hr00"/>
      <point x="173" y="-165" type="line"/>
      <point x="152" y="-203" type="line"/>
      <point x="70" y="-191" type="line"/>
      <point x="88" y="260" type="line" name="mh01"/>
    </contour>
    <contour>
      <point x="65" y="439" type="curve" smooth="yes" name="hr01"/>
      <point x="65" y="468.303"/>
      <point x="87.6973" y="491"/>
      <point x="117" y="491" type="curve" smooth="yes" name="mh02"/>
      <point x="145.86" y="491"/>
      <point x="169" y="467.794"/>
      <point x="169" y="439" type="curve" smooth="yes"/>
      <point x="169" y="410.867"/>
      <point x="145.133" y="387"/>
      <point x="117" y="387" type="curve" smooth="yes"/>
      <point x="88.2058" y="387"/>
      <point x="65" y="410.14"/>
    </contour>
  </outline>
</glyph>
<glyph name="cent" format="1">
  <advance width="408"/>
  <unicode hex="00A2"/>
  <outline>
    <contour>
      <point x="333" y="373" type="line" name="hr00"/>
      <point x="274" y="420" type="line"/>
      <point x="270" y="421" type="line"/>
      <point x="270" y="53" type="line"/>
      <point x="299.82" y="55.5903"/>
      <point x="328.317" y="64.5865"/>
      <point x="354" y="80" type="curve"/>
      <point x="371" y="31" type="line"/>
      <point x="342.126" y="8.99909"/>
      <point x="305.747" y="-0.44813"/>
      <point x="270" y="-3" type="curve"/>
      <point x="270" y="-158" type="line"/>
      <point x="212" y="-158" type="line"/>
      <point x="212" y="-2" type="line"/>
      <point x="89.1861" y="14.006"/>
      <point x="32" y="117.271"/>
      <point x="32" y="233" type="curve" smooth="yes"/>
      <point x="32" y="348.502"/>
      <point x="86.8516" y="461.038"/>
      <point x="212" y="477" type="curve" name="mh01"/>
      <point x="212" y="609" type="line" name="mh02"/>
      <point x="270" y="609" type="line"/>
      <point x="270" y="478" type="line"/>
      <point x="305.662" y="473.928"/>
      <point x="347.155" y="462.487"/>
      <point x="377" y="442" type="curve" name="mh03"/>
    </contour>
    <contour>
      <point x="98" y="232" type="curve" smooth="yes"/>
      <point x="98" y="153.655"/>
      <point x="127.877" y="75.3863"/>
      <point x="212" y="57" type="curve"/>
      <point x="212" y="420" type="line" name="mh04"/>
      <point x="123" y="403.839"/>
      <point x="98" y="310.313"/>
    </contour>
  </outline>
</glyph>
<glyph name="sterling" format="1">
  <advance width="487"/>
  <unicode hex="00A3"/>
  <outline>
    <contour>
      <point x="219" y="329" type="line" name="hr00"/>
      <point x="216.885" y="257.061"/>
      <point x="218.065" y="163.223"/>
      <point x="174" y="103" type="curve"/>
      <point x="235.669" y="97.0338"/>
      <point x="327.276" y="54.0157"/>
      <point x="362" y="54" type="curve"/>
      <point x="418" y="96" type="line"/>
      <point x="454" y="34" type="line"/>
      <point x="426.106" y="12.7472"/>
      <point x="393.79" y="-4"/>
      <point x="358" y="-4" type="curve" smooth="yes"/>
      <point x="281.075" y="-4"/>
      <point x="212.75" y="41"/>
      <point x="154" y="41" type="curve" smooth="yes"/>
      <point x="121.701" y="41"/>
      <point x="91.0172" y="30.0469"/>
      <point x="81" y="-4" type="curve"/>
      <point x="27" y="14" type="line"/>
      <point x="41.2016" y="74.2288"/>
      <point x="115.87" y="79.9998"/>
      <point x="141" y="191" type="curve" smooth="yes"/>
      <point x="151.175" y="235.945"/>
      <point x="151" y="283.124"/>
      <point x="151" y="329" type="curve"/>
      <point x="81" y="329" type="line"/>
      <point x="81" y="383" type="line"/>
      <point x="88" y="392" type="line"/>
      <point x="151" y="392" type="line"/>
      <point x="151" y="518.301"/>
      <point x="124.897" y="691"/>
      <point x="305" y="691" type="curve" smooth="yes" name="mh01"/>
      <point x="347.073" y="691"/>
      <point x="393.366" y="669.063"/>
      <point x="425" y="642" type="curve"/>
      <point x="377" y="576" type="line"/>
      <point x="318" y="626" type="line"/>
      <point x="310.791" y="627.433"/>
      <point x="303.344" y="628"/>
      <point x="296" y="628" type="curve" smooth="yes"/>
      <point x="238.79" y="628"/>
      <point x="219" y="582.035"/>
      <point x="219" y="532" type="curve" smooth="yes"/>
      <point x="219" y="392" type="line"/>
      <point x="357" y="392" type="line" smooth="yes"/>
      <point x="368.251" y="392"/>
      <point x="363" y="339.287"/>
      <point x="363" y="329" type="curve"/>
    </contour>
  </outline>
</glyph>
<glyph name="currency" format="1">
  <advance width="257"/>
  <unicode hex="00A4"/>
  <outline>
    <contour>
      <point x="168" y="800" type="line" name="hr00"/>
      <point x="168" y="356" type="line"/>
      <point x="89" y="356" type="line"/>
      <point x="89" y="800" type="line"/>
    </contour>
    <contour>
      <point x="89" y="-214" type="line"/>
      <point x="89" y="265" type="line"/>
      <point x="168" y="265" type="line"/>
      <point x="168" y="-214" type="line"/>
    </contour>
  </outline>
</glyph>
<glyph name="section" format="1">
  <advance width="495"/>
  <unicode hex="00A7"/>
  <outline>
    <contour>
      <point x="449" y="235" type="curve" smooth="yes" name="hr00"/>
      <point x="449" y="187.599"/>
      <point x="426.433" y="143.584"/>
      <point x="395" y="109" type="curve"/>
      <point x="424.363" y="79.6393"/>
      <point x="439" y="44.4915"/>
      <point x="439" y="3" type="curve" smooth="yes"/>
      <point x="439" y="-112.121"/>
      <point x="327.127" y="-161"/>
      <point x="227" y="-161" type="curve" smooth="yes"/>
      <point x="165.677" y="-161"/>
      <point x="120.673" y="-150.671"/>
      <point x="64" y="-128" type="curve"/>
      <point x="54" y="24" type="line"/>
      <point x="112" y="24" type="line"/>
      <point x="132" y="-82" type="line"/>
      <point x="152.885" y="-92.3011"/>
      <point x="207.063" y="-98"/>
      <point x="231" y="-98" type="curve" smooth="yes"/>
      <point x="295.119" y="-98"/>
      <point x="366" y="-70.6106"/>
      <point x="366" y="4" type="curve" smooth="yes"/>
      <point x="366" y="134.321"/>
      <point x="57" y="127.812"/>
      <point x="57" y="306" type="curve" smooth="yes"/>
      <point x="57" y="350.358"/>
      <point x="75.8229" y="390.823"/>
      <point x="107" y="422" type="curve"/>
      <point x="70.6325" y="451.366"/>
      <point x="53" y="486.12"/>
      <point x="53" y="533" type="curve" smooth="yes"/>
      <point x="53" y="639.461"/>
      <point x="155.844" y="691"/>
      <point x="250" y="691" type="curve" smooth="yes" name="mh01"/>
      <point x="306.561" y="691"/>
      <point x="356.72" y="680.528"/>
      <point x="409" y="659" type="curve"/>
      <point x="421" y="505" type="line"/>
      <point x="367" y="505" type="line"/>
      <point x="325" y="615" type="line"/>
      <point x="301.256" y="625.168"/>
      <point x="275.606" y="628"/>
      <point x="250" y="628" type="curve" smooth="yes" name="mh02"/>
      <point x="200.645" y="628"/>
      <point x="125" y="601.775"/>
      <point x="125" y="542" type="curve" smooth="yes"/>
      <point x="125" y="403.877"/>
      <point x="449" y="431.727"/>
    </contour>
    <contour>
      <point x="160" y="389" type="curve"/>
      <point x="143.764" y="370.056"/>
      <point x="130" y="345.515"/>
      <point x="130" y="320" type="curve" smooth="yes"/>
      <point x="130" y="241.448"/>
      <point x="288.196" y="185.05"/>
      <point x="347" y="147" type="curve"/>
      <point x="363.672" y="168.803"/>
      <point x="375" y="199.448"/>
      <point x="375" y="227" type="curve" smooth="yes"/>
      <point x="375" y="318.237"/>
      <point x="227.187" y="355.408"/>
    </contour>
  </outline>
</glyph>
<glyph name="dieresis" format="1">
  <advance width="355"/>
  <unicode hex="00A8"/>
  <outline>
    <contour>
      <point x="52" y="528" type="curve" smooth="yes" name="hr00"/>
      <point x="52" y="555.501"/>
      <point x="73.57" y="577"/>
      <point x="101" y="577" type="curve" smooth="yes" name="mh01"/>
      <point x="127.652" y="577"/>
      <point x="151" y="554.929"/>
      <point x="151" y="528" type="curve" smooth="yes"/>
      <point x="151" y="500.527"/>
      <point x="128.532" y="478"/>
      <point x="101" y="478" type="curve" smooth="yes"/>
      <point x="72.7518" y="478"/>
      <point x="52" y="500.051"/>
    </contour>
    <contour>
      <point x="204" y="528" type="curve" smooth="yes"/>
      <point x="204" y="555.708"/>
      <point x="227.925" y="577"/>
      <point x="255" y="577" type="curve" smooth="yes"/>
      <point x="281.864" y="577"/>
      <point x="303" y="554.581"/>
      <point x="303" y="528" type="curve" smooth="yes"/>
      <point x="303" y="501.006"/>
      <point x="282.649" y="478"/>
      <point x="255" y="478" type="curve" smooth="yes"/>
      <point x="227.114" y="478"/>
      <point x="204" y="499.828"/>
    </contour>
  </outline>
</glyph>
<glyph name="copyright" format="1">
  <advance width="728"/>
  <unicode hex="00A9"/>
  <outline>
    <contour>
      <point x="230" y="366" type="curve" smooth="yes" name="mh01"/>
      <point x="230" y="279.731"/>
      <point x="283.726" y="226"/>
      <point x="370" y="226" type="curve" smooth="yes"/>
      <point x="392.623" y="226"/>
      <point x="446.571" y="235.575"/>
      <point x="463" y="251" type="curve"/>
      <point x="478" y="198" type="line"/>
      <point x="443.859" y="176.684"/>
      <point x="405.884" y="168"/>
      <point x="366" y="168" type="curve" smooth="yes"/>
      <point x="250.925" y="168"/>
      <point x="171" y="250.599"/>
      <point x="171" y="365" type="curve" smooth="yes" name="mh02"/>
      <point x="171" y="483.907"/>
      <point x="248.354" y="572"/>
      <point x="370" y="572" type="curve" smooth="yes"/>
      <point x="396.15" y="572"/>
      <point x="424.603" y="571.893"/>
      <point x="450" y="565" type="curve"/>
      <point x="460" y="456" type="line"/>
      <point x="420" y="456" type="line"/>
      <point x="407" y="512" type="line"/>
      <point x="394.608" y="514.302"/>
      <point x="380.644" y="514"/>
      <point x="368" y="514" type="curve" smooth="yes"/>
      <point x="278.783" y="514"/>
      <point x="230" y="451.624"/>
    </contour>
    <contour>
      <point x="41" y="372" type="curve" smooth="yes" name="mh03"/>
      <point x="41" y="554.831"/>
      <point x="181.308" y="695"/>
      <point x="364" y="695" type="curve" smooth="yes" name="mh04"/>
      <point x="546.644" y="695"/>
      <point x="687" y="554.713"/>
      <point x="687" y="372" type="curve" smooth="yes"/>
      <point x="687" y="189.287"/>
      <point x="546.644" y="49"/>
      <point x="364" y="49" type="curve" smooth="yes"/>
      <point x="181.308" y="49"/>
      <point x="41" y="189.169"/>
    </contour>
    <contour>
      <point x="99" y="372" type="curve" smooth="yes" name="mh05"/>
      <point x="99" y="218.973"/>
      <point x="210.973" y="107"/>
      <point x="364" y="107" type="curve" smooth="yes"/>
      <point x="517.027" y="107"/>
      <point x="629" y="218.973"/>
      <point x="629" y="372" type="curve" smooth="yes"/>
      <point x="629" y="525.027"/>
      <point x="517.027" y="637"/>
      <point x="364" y="637" type="curve" smooth="yes" name="mh06"/>
      <point x="210.973" y="637"/>
      <point x="99" y="525.027"/>
    </contour>
  </outline>
</glyph>
<glyph name="ordfeminine" format="1">
  <advance width="297"/>
  <unicode hex="00AA"/>
  <outline>
    <contour>
      <point x="238" y="478" type="curve" smooth="yes" name="hr00"/>
      <point x="242.135" y="478"/>
      <point x="245.957" y="480.4"/>
      <point x="250" y="481" type="curve"/>
      <point x="260" y="450" type="line"/>
      <point x="247.755" y="439.808"/>
      <point x="234.007" y="434"/>
      <point x="218" y="434" type="curve" smooth="yes"/>
      <point x="203.107" y="434"/>
      <point x="192.19" y="437.884"/>
      <point x="184" y="451" type="curve"/>
      <point x="167.488" y="438.077"/>
      <point x="146.69" y="433"/>
      <point x="126" y="433" type="curve" smooth="yes"/>
      <point x="84.7136" y="433"/>
      <point x="43" y="459.13"/>
      <point x="43" y="504" type="curve" smooth="yes"/>
      <point x="43" y="575.254"/>
      <point x="121.973" y="586.498"/>
      <point x="177" y="589" type="curve"/>
      <point x="177" y="611" type="line" smooth="yes"/>
      <point x="177" y="637.043"/>
      <point x="160.771" y="649"/>
      <point x="136" y="649" type="curve" smooth="yes"/>
      <point x="127.498" y="649"/>
      <point x="119.024" y="646.918"/>
      <point x="112" y="642" type="curve"/>
      <point x="105" y="613" type="line"/>
      <point x="43" y="622" type="line"/>
      <point x="50.0011" y="666.379"/>
      <point x="91.38" y="691"/>
      <point x="134" y="691" type="curve" smooth="yes" name="mh01"/>
      <point x="184.486" y="691"/>
      <point x="230" y="665.318"/>
      <point x="230" y="610" type="curve" smooth="yes"/>
      <point x="230" y="491" type="line" smooth="yes"/>
      <point x="230" y="485.649"/>
      <point x="231.155" y="478"/>
    </contour>
    <contour>
      <point x="99" y="505" type="curve" smooth="yes"/>
      <point x="99" y="483.833"/>
      <point x="113.961" y="475"/>
      <point x="133" y="475" type="curve" smooth="yes"/>
      <point x="148.938" y="475"/>
      <point x="177" y="486.749"/>
      <point x="177" y="506" type="curve" smooth="yes"/>
      <point x="177" y="547" type="line"/>
      <point x="148.605" y="547"/>
      <point x="99" y="543.08"/>
    </contour>
  </outline>
</glyph>
<glyph name="registered" format="1">
  <advance width="728"/>
  <unicode hex="00AE"/>
  <outline>
    <contour>
      <point x="41" y="372" type="curve" smooth="yes" name="hr00"/>
      <point x="41" y="554.831"/>
      <point x="181.308" y="695"/>
      <point x="364" y="695" type="curve" smooth="yes"/>
      <point x="546.644" y="695"/>
      <point x="687" y="554.713"/>
      <point x="687" y="372" type="curve" smooth="yes"/>
      <point x="687" y="189.287"/>
      <point x="546.644" y="49"/>
      <point x="364" y="49" type="curve" smooth="yes"/>
      <point x="181.308" y="49"/>
      <point x="41" y="189.169"/>
    </contour>
    <contour>
      <point x="99" y="372" type="curve" smooth="yes"/>
      <point x="99" y="218.973"/>
      <point x="210.973" y="107"/>
      <point x="364" y="107" type="curve" smooth="yes"/>
      <point x="517.027" y="107"/>
      <point x="629" y="218.973"/>
      <point x="629" y="372" type="curve" smooth="yes"/>
      <point x="629" y="525.027"/>
      <point x="517.027" y="637"/>
      <point x="364" y="637" type="curve" smooth="yes"/>
      <point x="210.973" y="637"/>
      <point x="99" y="525.027"/>
    </contour>
    <contour>
      <point x="234" y="224" type="line"/>
      <point x="260" y="231" type="line"/>
      <point x="260" y="523" type="line"/>
      <point x="234" y="526" type="line"/>
      <point x="234" y="577" type="line"/>
      <point x="325" y="577" type="line" smooth="yes"/>
      <point x="411.149" y="577"/>
      <point x="502" y="551.558"/>
      <point x="502" y="448" type="curve" smooth="yes"/>
      <point x="502" y="392.277"/>
      <point x="467.915" y="354.261"/>
      <point x="417" y="336" type="curve"/>
      <point x="489" y="229" type="line"/>
      <point x="523" y="222" type="line"/>
      <point x="523" y="178" type="line"/>
      <point x="448" y="178" type="line"/>
      <point x="360" y="323" type="line"/>
      <point x="346.109" y="321.251"/>
      <point x="331.962" y="322"/>
      <point x="318" y="322" type="curve"/>
      <point x="318" y="232" type="line"/>
      <point x="369" y="222" type="line"/>
      <point x="369" y="178" type="line"/>
      <point x="238" y="178" type="line"/>
    </contour>
    <contour>
      <point x="334" y="380" type="line" smooth="yes"/>
      <point x="380.421" y="380"/>
      <point x="439" y="389.817"/>
      <point x="439" y="448" type="curve" smooth="yes"/>
      <point x="439" y="504.816"/>
      <point x="389.164" y="520"/>
      <point x="341" y="520" type="curve" smooth="yes"/>
      <point x="318" y="520" type="line"/>
      <point x="318" y="380" type="line"/>
    </contour>
  </outline>
</glyph>
<glyph name="degree" format="1">
  <advance width="264"/>
  <unicode hex="00B0"/>
  <outline>
    <contour>
      <point x="38" y="630" type="curve" smooth="yes" name="hr00"/>
      <point x="38" y="690.622"/>
      <point x="68.1981" y="734"/>
      <point x="132" y="734" type="curve" smooth="yes" name="mh01"/>
      <point x="195.802" y="734"/>
      <point x="226" y="690.622"/>
      <point x="226" y="630" type="curve" smooth="yes"/>
      <point x="226" y="569.532"/>
      <point x="195.973" y="525"/>
      <point x="132" y="525" type="curve" smooth="yes"/>
      <point x="68.0272" y="525"/>
      <point x="38" y="569.532"/>
    </contour>
    <contour>
      <point x="91" y="630" type="curve" smooth="yes"/>
      <point x="91" y="604.79"/>
      <point x="102.013" y="572"/>
      <point x="132" y="572" type="curve" smooth="yes"/>
      <point x="161.918" y="572"/>
      <point x="174" y="604.559"/>
      <point x="174" y="630" type="curve" smooth="yes"/>
      <point x="174" y="654.826"/>
      <point x="160.76" y="687"/>
      <point x="132" y="687" type="curve" smooth="yes"/>
      <point x="103.096" y="687"/>
      <point x="91" y="654.612"/>
    </contour>
  </outline>
</glyph>
<glyph name="twosuperior" format="1">
  <advance width="265"/>
  <unicode hex="00B2"/>
  <outline>
    <contour>
      <point x="53" y="434" type="line" name="hr00"/>
      <point x="50" y="462" type="line"/>
      <point x="85.9618" y="492.847"/>
      <point x="158" y="560.047"/>
      <point x="158" y="610" type="curve" smooth="yes"/>
      <point x="158" y="631.966"/>
      <point x="147.323" y="644"/>
      <point x="125" y="644" type="curve" smooth="yes"/>
      <point x="116.334" y="644"/>
      <point x="108.039" y="642.21"/>
      <point x="100" y="639" type="curve"/>
      <point x="98.4274" y="637.477"/>
      <point x="89.9761" y="610.806"/>
      <point x="89" y="608" type="curve"/>
      <point x="42" y="622" type="line"/>
      <point x="53.8102" y="666.913"/>
      <point x="88.9447" y="691"/>
      <point x="135" y="691" type="curve" smooth="yes" name="mh01"/>
      <point x="180.136" y="691"/>
      <point x="211" y="659.873"/>
      <point x="211" y="615" type="curve" smooth="yes"/>
      <point x="211" y="557.896"/>
      <point x="166.574" y="513.551"/>
      <point x="129" y="476" type="curve"/>
      <point x="175" y="476" type="line"/>
      <point x="189" y="508" type="line"/>
      <point x="220" y="508" type="line"/>
      <point x="209" y="434" type="line"/>
    </contour>
  </outline>
</glyph>
<glyph name="threesuperior" format="1">
  <advance width="264"/>
  <unicode hex="00B3"/>
  <outline>
    <contour>
      <point x="68" y="507" type="line" name="hr00"/>
      <point x="87.2942" y="489.461"/>
      <point x="102.454" y="481"/>
      <point x="129" y="481" type="curve" smooth="yes"/>
      <point x="147.92" y="481"/>
      <point x="172" y="488.709"/>
      <point x="172" y="512" type="curve" smooth="yes"/>
      <point x="172" y="541.542"/>
      <point x="124.624" y="542"/>
      <point x="104" y="542" type="curve"/>
      <point x="104" y="586" type="line" name="mv01"/>
      <point x="125.621" y="585.992"/>
      <point x="159" y="589.539"/>
      <point x="159" y="618" type="curve" smooth="yes"/>
      <point x="159" y="636.764"/>
      <point x="144.642" y="644"/>
      <point x="128" y="644" type="curve" smooth="yes"/>
      <point x="120.049" y="644"/>
      <point x="110.366" y="643.428"/>
      <point x="104" y="638" type="curve"/>
      <point x="92" y="607" type="line"/>
      <point x="43" y="622" type="line" name="mv02"/>
      <point x="55.9142" y="665.06"/>
      <point x="88.7888" y="691"/>
      <point x="134" y="691" type="curve" smooth="yes" name="mv03"/>
      <point x="170.529" y="691"/>
      <point x="210" y="664.414"/>
      <point x="210" y="625" type="curve" smooth="yes" name="mh01"/>
      <point x="210" y="596.154"/>
      <point x="195.52" y="572.904"/>
      <point x="166" y="568" type="curve" name="hr01"/>
      <point x="199.221" y="561.854"/>
      <point x="225" y="544.737"/>
      <point x="225" y="508" type="curve" smooth="yes" name="mh02"/>
      <point x="225" y="452.725"/>
      <point x="174.427" y="434"/>
      <point x="127" y="434" type="curve" smooth="yes" name="mv04"/>
      <point x="93.3475" y="434"/>
      <point x="63.8101" y="444.967"/>
      <point x="39" y="468" type="curve"/>
    </contour>
  </outline>
</glyph>
<glyph name="mu" format="1">
  <advance width="513"/>
  <unicode hex="00B5"/>
  <unicode hex="03BC"/>
  <outline>
    <contour>
      <point x="302" y="415" type="line" name="hr00"/>
      <point x="295" y="463" type="line"/>
      <point x="395" y="482" type="line"/>
      <point x="419" y="453" type="line"/>
      <point x="419" y="73" type="line" smooth="yes"/>
      <point x="419" y="58.5046"/>
      <point x="427.562" y="51"/>
      <point x="442" y="51" type="curve" smooth="yes"/>
      <point x="448.396" y="51"/>
      <point x="453.8" y="53.1907"/>
      <point x="460" y="54" type="curve"/>
      <point x="468" y="19" type="line"/>
      <point x="454.505" y="3.3197"/>
      <point x="432.105" y="-4"/>
      <point x="412" y="-4" type="curve" smooth="yes"/>
      <point x="384.687" y="-4"/>
      <point x="367.204" y="9.7589"/>
      <point x="360" y="36" type="curve"/>
      <point x="328.519" y="7.66785"/>
      <point x="288.745" y="-4"/>
      <point x="247" y="-4" type="curve" smooth="yes"/>
      <point x="214.589" y="-4"/>
      <point x="183.26" y="5.95904"/>
      <point x="157" y="25" type="curve"/>
      <point x="153.189" y="-1.66926"/>
      <point x="157" y="-30.9749"/>
      <point x="157" y="-58" type="curve" smooth="yes"/>
      <point x="157" y="-274" type="line"/>
      <point x="94" y="-274" type="line"/>
      <point x="94" y="415" type="line"/>
      <point x="40" y="415" type="line"/>
      <point x="31" y="463" type="line"/>
      <point x="130" y="481" type="line"/>
      <point x="157" y="449" type="line"/>
      <point x="157" y="146" type="line" smooth="yes"/>
      <point x="157" y="83.6968"/>
      <point x="199.913" y="54"/>
      <point x="259" y="54" type="curve" smooth="yes"/>
      <point x="293.364" y="54"/>
      <point x="336.923" y="70.0211"/>
      <point x="356" y="100" type="curve"/>
      <point x="356" y="415" type="line"/>
    </contour>
  </outline>
</glyph>
<glyph name="paragraph" format="1">
  <advance width="523"/>
  <unicode hex="00B6"/>
  <outline>
    <contour>
      <point x="31" y="500" type="curve" smooth="yes" name="hr00"/>
      <point x="31" y="627.319"/>
      <point x="132.985" y="691"/>
      <point x="250" y="691" type="curve" smooth="yes" name="mh01"/>
      <point x="462" y="691" type="line"/>
      <point x="462" y="632" type="line"/>
      <point x="420" y="632" type="line"/>
      <point x="420" y="0" type="line"/>
      <point x="363" y="0" type="line"/>
      <point x="363" y="632" type="line"/>
      <point x="331" y="632" type="line"/>
      <point x="331" y="125" type="line" smooth="yes"/>
      <point x="331" y="114.878"/>
      <point x="331.054" y="104.581"/>
      <point x="330" y="94.5" type="curve" smooth="yes"/>
      <point x="327.456" y="70.1515"/>
      <point x="261.181" y="11.1731"/>
      <point x="241" y="-8" type="curve"/>
      <point x="188" y="66" type="line"/>
      <point x="263" y="109" type="line" name="hr01"/>
      <point x="263" y="299" type="line"/>
      <point x="141.761" y="301.238"/>
      <point x="31" y="367.072"/>
    </contour>
  </outline>
</glyph>
<glyph name="cedilla" format="1">
  <advance width="398"/>
  <unicode hex="00B8"/>
  <outline>
    <contour>
      <point x="155" y="-106" type="curve" name="hr00"/>
      <point x="137" y="-87" type="line"/>
      <point x="175" y="15" type="line" name="ah01"/>
      <point x="243" y="15" type="line"/>
      <point x="221" y="-49" type="line"/>
      <point x="279.866" y="-55.1972"/>
      <point x="326" y="-96.7631"/>
      <point x="326" y="-158" type="curve" smooth="yes"/>
      <point x="326" y="-241.425"/>
      <point x="261.359" y="-273"/>
      <point x="187" y="-273" type="curve" smooth="yes"/>
      <point x="142.62" y="-273"/>
      <point x="112.737" y="-260.665"/>
      <point x="72" y="-246" type="curve"/>
      <point x="115" y="-164" type="line"/>
      <point x="189" y="-210" type="line"/>
      <point x="219.532" y="-210.015"/>
      <point x="252" y="-194.722"/>
      <point x="252" y="-160" type="curve" smooth="yes"/>
      <point x="252" y="-110.968"/>
      <point x="189.984" y="-106"/>
    </contour>
  </outline>
</glyph>
<glyph name="ordmasculine" format="1">
  <advance width="296"/>
  <unicode hex="00BA"/>
  <outline>
    <contour>
      <point x="39" y="563" type="curve" smooth="yes" name="hr00"/>
      <point x="39" y="630.577"/>
      <point x="71.5249" y="692"/>
      <point x="147" y="692" type="curve" smooth="yes" name="mh01"/>
      <point x="224.085" y="692"/>
      <point x="257" y="632.93"/>
      <point x="257" y="563" type="curve" smooth="yes"/>
      <point x="257" y="493.394"/>
      <point x="224.226" y="433"/>
      <point x="147" y="433" type="curve" smooth="yes"/>
      <point x="70.3681" y="433"/>
      <point x="39" y="494.834"/>
    </contour>
    <contour>
      <point x="95" y="561" type="curve" smooth="yes"/>
      <point x="95" y="527.744"/>
      <point x="106.01" y="484"/>
      <point x="147" y="484" type="curve" smooth="yes"/>
      <point x="189.825" y="484"/>
      <point x="201" y="525.692"/>
      <point x="201" y="561" type="curve" smooth="yes"/>
      <point x="201" y="595.631"/>
      <point x="189.385" y="640"/>
      <point x="147" y="640" type="curve" smooth="yes" name="mh02"/>
      <point x="106.468" y="640"/>
      <point x="95" y="593.62"/>
    </contour>
  </outline>
</glyph>
<glyph name="onehalf" format="1">
  <advance width="625"/>
  <unicode hex="00BD"/>
  <outline>
    <contour>
      <point x="344" y="0" type="line" name="hr00"/>
      <point x="339" y="31" type="line"/>
      <point x="389.658" y="88.7097"/>
      <point x="529" y="186.732"/>
      <point x="529" y="269" type="curve" smooth="yes"/>
      <point x="529" y="311.3"/>
      <point x="503.49" y="337"/>
      <point x="461" y="337" type="curve" smooth="yes"/>
      <point x="445.492" y="337"/>
      <point x="430.219" y="333.069"/>
      <point x="416" y="327" type="curve"/>
      <point x="387" y="267" type="line"/>
      <point x="333" y="301" type="line"/>
      <point x="360.281" y="347.982"/>
      <point x="408.182" y="379"/>
      <point x="463" y="379" type="curve" smooth="yes" name="mv01"/>
      <point x="532.809" y="379"/>
      <point x="581" y="341.363"/>
      <point x="581" y="269" type="curve" smooth="yes"/>
      <point x="581" y="179.338"/>
      <point x="479.909" y="99.8942"/>
      <point x="422" y="42" type="curve"/>
      <point x="533" y="42" type="line"/>
      <point x="552" y="93" type="line"/>
      <point x="590" y="93" type="line"/>
      <point x="578" y="0" type="line"/>
    </contour>
    <contour>
      <point x="50" y="350" type="line"/>
      <point x="93" y="357" type="line"/>
      <point x="93" y="635" type="line"/>
      <point x="43" y="629" type="line"/>
      <point x="35" y="664" type="line"/>
      <point x="138" y="693" type="line" name="mv02"/>
      <point x="147" y="688" type="line"/>
      <point x="147" y="360" type="line"/>
      <point x="182" y="352" type="line"/>
      <point x="182" y="315" type="line"/>
      <point x="53" y="315" type="line"/>
    </contour>
    <contour>
      <point x="125" y="-21" type="line"/>
      <point x="77" y="-21" type="line"/>
      <point x="74" y="-8" type="line"/>
      <point x="423" y="691" type="line" name="mv03"/>
      <point x="475" y="691" type="line" name="mv04"/>
      <point x="474" y="677" type="line"/>
    </contour>
  </outline>
</glyph>
<glyph name="threequarters" format="1">
  <advance width="654"/>
  <unicode hex="00BE"/>
  <outline>
    <contour>
      <point x="436" y="37" type="line" name="hr00"/>
      <point x="520" y="48" type="line"/>
      <point x="520" y="117" type="line"/>
      <point x="373" y="117" type="line"/>
      <point x="373" y="181" type="line"/>
      <point x="520" y="376" type="line"/>
      <point x="573" y="376" type="line"/>
      <point x="573" y="164" type="line"/>
      <point x="622" y="164" type="line"/>
      <point x="622" y="117" type="line"/>
      <point x="573" y="117" type="line"/>
      <point x="573" y="47" type="line"/>
      <point x="609" y="41" type="line"/>
      <point x="609" y="0" type="line"/>
      <point x="438" y="0" type="line"/>
    </contour>
    <contour>
      <point x="182" y="-21" type="line"/>
      <point x="134" y="-21" type="line"/>
      <point x="130" y="-8" type="line"/>
      <point x="480" y="691" type="line"/>
      <point x="532" y="691" type="line"/>
      <point x="531.766" y="689.361"/>
      <point x="530.416" y="677.834"/>
      <point x="530" y="677" type="curve"/>
    </contour>
    <contour>
      <point x="62" y="379" type="line"/>
      <point x="84.7623" y="357.757"/>
      <point x="112.798" y="346"/>
      <point x="144" y="346" type="curve" smooth="yes"/>
      <point x="183.861" y="346"/>
      <point x="225" y="368.976"/>
      <point x="225" y="413" type="curve" smooth="yes"/>
      <point x="225" y="477.155"/>
      <point x="153.679" y="484.004"/>
      <point x="105" y="484" type="curve"/>
      <point x="105" y="526" type="line"/>
      <point x="154.48" y="526"/>
      <point x="222" y="523.594"/>
      <point x="222" y="591" type="curve" smooth="yes"/>
      <point x="222" y="623.568"/>
      <point x="183.676" y="647"/>
      <point x="154" y="647" type="curve" smooth="yes"/>
      <point x="132.282" y="647"/>
      <point x="125.903" y="643.181"/>
      <point x="106" y="635" type="curve"/>
      <point x="79" y="589" type="line"/>
      <point x="35" y="617" type="line"/>
      <point x="59.0069" y="664.993"/>
      <point x="106.572" y="689"/>
      <point x="159" y="689" type="curve" smooth="yes"/>
      <point x="218.746" y="689"/>
      <point x="269" y="653.422"/>
      <point x="269" y="590" type="curve" smooth="yes"/>
      <point x="269" y="546.547"/>
      <point x="242.136" y="509.294"/>
      <point x="198" y="503" type="curve"/>
      <point x="243.093" y="496.246"/>
      <point x="275" y="462.631"/>
      <point x="275" y="416" type="curve" smooth="yes"/>
      <point x="275" y="344.856"/>
      <point x="208.153" y="304"/>
      <point x="143" y="304" type="curve" smooth="yes"/>
      <point x="104.598" y="304"/>
      <point x="65.5773" y="313.446"/>
      <point x="34" y="336" type="curve"/>
    </contour>
    <contour>
      <point x="520" y="164" type="line"/>
      <point x="520" y="300" type="line"/>
      <point x="417" y="164" type="line"/>
    </contour>
  </outline>
</glyph>
<glyph name="questiondown" format="1">
  <advance width="383"/>
  <unicode hex="00BF"/>
  <outline>
    <contour>
      <point x="286" y="243" type="line" name="hr00"/>
      <point x="288.547" y="233.613"/>
      <point x="289" y="223.677"/>
      <point x="289" y="214" type="curve" smooth="yes"/>
      <point x="289" y="68.0424"/>
      <point x="100" y="80.5615"/>
      <point x="100" y="-63" type="curve" smooth="yes"/>
      <point x="100" y="-121.241"/>
      <point x="144.932" y="-147"/>
      <point x="198" y="-147" type="curve" smooth="yes"/>
      <point x="220.22" y="-147"/>
      <point x="243.351" y="-143.99"/>
      <point x="265" y="-139" type="curve"/>
      <point x="293" y="-42" type="line"/>
      <point x="343" y="-42" type="line"/>
      <point x="324" y="-189" type="line"/>
      <point x="288.529" y="-200.814"/>
      <point x="232.509" y="-208"/>
      <point x="195" y="-208" type="curve" smooth="yes"/>
      <point x="102.695" y="-208"/>
      <point x="26" y="-169.007"/>
      <point x="26" y="-67" type="curve" smooth="yes"/>
      <point x="26" y="110.287"/>
      <point x="244.99" y="104.008"/>
      <point x="229" y="241" type="curve"/>
    </contour>
    <contour>
      <point x="303" y="430" type="curve" smooth="yes"/>
      <point x="303" y="401.022"/>
      <point x="279.613" y="379"/>
      <point x="251" y="379" type="curve" smooth="yes"/>
      <point x="223.042" y="379"/>
      <point x="199" y="401.762"/>
      <point x="199" y="430" type="curve" smooth="yes"/>
      <point x="199" y="459.319"/>
      <point x="221.304" y="483"/>
      <point x="251" y="483" type="curve" smooth="yes" name="mh02"/>
      <point x="281.243" y="483"/>
      <point x="303" y="459.915"/>
    </contour>
  </outline>
</glyph>
<glyph name="Atilde" format="1">
  <advance width="570"/>
  <unicode hex="00C3"/>
  <outline>
    <contour>
      <point x="429" y="836" type="line" name="hr00"/>
      <point x="466" y="770" type="line"/>
      <point x="445.167" y="751.774"/>
      <point x="410.631" y="727"/>
      <point x="382" y="727" type="curve" smooth="yes" name="mh01"/>
      <point x="327.425" y="727"/>
      <point x="296.91" y="778"/>
      <point x="243" y="778" type="curve" smooth="yes" name="mh02"/>
      <point x="204.908" y="778"/>
      <point x="186.993" y="760.078"/>
      <point x="168" y="729" type="curve"/>
      <point x="131" y="760" type="line"/>
      <point x="131" y="776" type="line"/>
      <point x="153.313" y="820.437"/>
      <point x="196.549" y="842"/>
      <point x="245" y="842" type="curve" smooth="yes" name="mh03"/>
      <point x="294.799" y="842"/>
      <point x="327.993" y="812.817"/>
      <point x="367" y="786" type="curve" name="mh04"/>
    </contour>
    <contour>
      <point x="364" y="0" type="line"/>
      <point x="364" y="44" type="line"/>
      <point x="445" y="65" type="line"/>
      <point x="392" y="241" type="line"/>
      <point x="169" y="241" type="line"/>
      <point x="117" y="62" type="line"/>
      <point x="205" y="45" type="line"/>
      <point x="205" y="0" type="line"/>
      <point x="11" y="0" type="line"/>
      <point x="-2" y="47" type="line"/>
      <point x="52" y="65" type="line"/>
      <point x="243" y="691" type="line" name="mh05"/>
      <point x="327" y="691" type="line" name="mh06"/>
      <point x="519" y="65" type="line"/>
      <point x="566" y="47" type="line"/>
      <point x="555" y="0" type="line"/>
    </contour>
    <contour>
      <point x="279" y="616" type="line"/>
      <point x="188" y="304" type="line"/>
      <point x="373" y="304" type="line"/>
    </contour>
  </outline>
</glyph>
<glyph name="Aring" format="1">
  <advance width="567"/>
  <unicode hex="00C5"/>
  <outline>
    <contour>
      <point x="363" y="0" type="line" name="hr00"/>
      <point x="363" y="44" type="line"/>
      <point x="444" y="65" type="line"/>
      <point x="391" y="241" type="line"/>
      <point x="168" y="241" type="line"/>
      <point x="116" y="62" type="line"/>
      <point x="204" y="45" type="line"/>
      <point x="204" y="0" type="line"/>
      <point x="10" y="0" type="line"/>
      <point x="-3" y="47" type="line"/>
      <point x="51" y="65" type="line"/>
      <point x="235" y="670" type="line"/>
      <point x="206.878" y="686.871"/>
      <point x="191" y="718.63"/>
      <point x="191" y="751" type="curve" smooth="yes"/>
      <point x="191" y="803.59"/>
      <point x="233.77" y="845"/>
      <point x="286" y="845" type="curve" smooth="yes" name="mh01"/>
      <point x="337.718" y="845"/>
      <point x="380" y="802.718"/>
      <point x="380" y="751" type="curve" smooth="yes"/>
      <point x="380" y="716.486"/>
      <point x="362.259" y="686.11"/>
      <point x="333" y="668" type="curve"/>
      <point x="518" y="65" type="line"/>
      <point x="565" y="47" type="line"/>
      <point x="554" y="0" type="line"/>
    </contour>
    <contour>
      <point x="278" y="616" type="line" name="mh02"/>
      <point x="187" y="304" type="line"/>
      <point x="372" y="304" type="line"/>
    </contour>
    <contour>
      <point x="248" y="751" type="curve" smooth="yes"/>
      <point x="248" y="728.335"/>
      <point x="263.335" y="713"/>
      <point x="286" y="713" type="curve" smooth="yes"/>
      <point x="308.804" y="713"/>
      <point x="323" y="728.521"/>
      <point x="323" y="751" type="curve" smooth="yes"/>
      <point x="323" y="773.479"/>
      <point x="308.804" y="789"/>
      <point x="286" y="789" type="curve" smooth="yes" name="mh03"/>
      <point x="263.335" y="789"/>
      <point x="248" y="773.665"/>
    </contour>
  </outline>
</glyph>
<glyph name="Ccedilla" format="1">
  <advance width="559"/>
  <unicode hex="00C7"/>
  <outline>
    <contour>
      <point x="293" y="-90" type="curve" name="hr00"/>
      <point x="278" y="-74" type="line"/>
      <point x="306" y="2" type="line"/>
      <point x="134.755" y="32.8722"/>
      <point x="42" y="179.038"/>
      <point x="42" y="346" type="curve" smooth="yes"/>
      <point x="42" y="537.785"/>
      <point x="182.139" y="691"/>
      <point x="377" y="691" type="curve" smooth="yes"/>
      <point x="416.442" y="691"/>
      <point x="455.417" y="685.983"/>
      <point x="494" y="678" type="curve"/>
      <point x="512" y="520" type="line"/>
      <point x="455" y="520" type="line"/>
      <point x="431" y="618" type="line"/>
      <point x="412.998" y="620.269"/>
      <point x="397.402" y="623"/>
      <point x="379" y="623" type="curve" smooth="yes"/>
      <point x="222.504" y="623"/>
      <point x="113" y="501.798"/>
      <point x="113" y="348" type="curve" smooth="yes"/>
      <point x="113" y="191.671"/>
      <point x="210.072" y="64"/>
      <point x="374" y="64" type="curve" smooth="yes"/>
      <point x="416.884" y="64"/>
      <point x="465.649" y="75.7439"/>
      <point x="502" y="99" type="curve"/>
      <point x="527" y="38" type="line"/>
      <point x="484.614" y="8.67483"/>
      <point x="414.075" y="-7.25623"/>
      <point x="363" y="-3" type="curve"/>
      <point x="351" y="-41" type="line"/>
      <point x="403.753" y="-47.6059"/>
      <point x="443" y="-80.0766"/>
      <point x="443" y="-136" type="curve" smooth="yes"/>
      <point x="443" y="-209.181"/>
      <point x="385.69" y="-236"/>
      <point x="321" y="-236" type="curve" smooth="yes"/>
      <point x="279.014" y="-236"/>
      <point x="258.85" y="-223.776"/>
      <point x="221" y="-212" type="curve"/>
      <point x="258" y="-141" type="line"/>
      <point x="323" y="-181" type="line"/>
      <point x="349.901" y="-181.038"/>
      <point x="378" y="-167.462"/>
      <point x="378" y="-137" type="curve" smooth="yes"/>
      <point x="378" y="-94.4388"/>
      <point x="323.232" y="-90"/>
    </contour>
  </outline>
</glyph>
<glyph name="Edieresis" format="1">
  <advance width="523"/>
  <unicode hex="00CB"/>
  <outline>
    <contour>
      <point x="55" y="632" type="line" name="hr00"/>
      <point x="55" y="691" type="line" name="ah01"/>
      <point x="453" y="691" type="line"/>
      <point x="473" y="520" type="line"/>
      <point x="425" y="520" type="line"/>
      <point x="391" y="623" type="line"/>
      <point x="181" y="623" type="line"/>
      <point x="181" y="377" type="line"/>
      <point x="343" y="377" type="line"/>
      <point x="343" y="314" type="line"/>
      <point x="181" y="314" type="line"/>
      <point x="181" y="68" type="line"/>
      <point x="401" y="68" type="line"/>
      <point x="436" y="171" type="line"/>
      <point x="483" y="171" type="line"/>
      <point x="464" y="0" type="line"/>
      <point x="62" y="0" type="line"/>
      <point x="55" y="56" type="line"/>
      <point x="112" y="68" type="line" name="hr01"/>
      <point x="112" y="627" type="line"/>
    </contour>
    <contour>
      <point x="119" y="793" type="curve" smooth="yes" name="hr02"/>
      <point x="119" y="825.131"/>
      <point x="143.869" y="850"/>
      <point x="176" y="850" type="curve" smooth="yes" name="ah02"/>
      <point x="207.429" y="850"/>
      <point x="234" y="824.652"/>
      <point x="234" y="793" type="curve" smooth="yes"/>
      <point x="234" y="761.478"/>
      <point x="207.577" y="735"/>
      <point x="176" y="735" type="curve" smooth="yes"/>
      <point x="143.681" y="735"/>
      <point x="119" y="761.024"/>
    </contour>
    <contour>
      <point x="295" y="793" type="curve" smooth="yes"/>
      <point x="295" y="826.229"/>
      <point x="322.68" y="850"/>
      <point x="355" y="850" type="curve" smooth="yes"/>
      <point x="386.755" y="850"/>
      <point x="410" y="824.139"/>
      <point x="410" y="793" type="curve" smooth="yes" name="hr03"/>
      <point x="410" y="762.002"/>
      <point x="386.899" y="735"/>
      <point x="355" y="735" type="curve" smooth="yes"/>
      <point x="322.494" y="735"/>
      <point x="295" y="759.885"/>
    </contour>
  </outline>
</glyph>
<glyph name="Idieresis" format="1">
  <advance width="293"/>
  <unicode hex="00CF"/>
  <outline>
    <contour>
      <point x="20" y="793" type="curve" smooth="yes" name="hr01"/>
      <point x="20" y="824.367"/>
      <point x="44.368" y="850"/>
      <point x="76" y="850" type="curve" smooth="yes" name="ah02"/>
      <point x="107.347" y="850"/>
      <point x="134" y="824.693"/>
      <point x="134" y="793" type="curve" smooth="yes"/>
      <point x="134" y="760.945"/>
      <point x="108.055" y="735"/>
      <point x="76" y="735" type="curve" smooth="yes"/>
      <point x="43.5533" y="735"/>
      <point x="20" y="761.202"/>
    </contour>
    <contour>
      <point x="165" y="793" type="curve" smooth="yes"/>
      <point x="165" y="824.693"/>
      <point x="191.653" y="850"/>
      <point x="223" y="850" type="curve" smooth="yes"/>
      <point x="254.632" y="850"/>
      <point x="279" y="824.367"/>
      <point x="279" y="793" type="curve" smooth="yes"/>
      <point x="279" y="761.202"/>
      <point x="255.447" y="735"/>
      <point x="223" y="735" type="curve" smooth="yes"/>
      <point x="190.945" y="735"/>
      <point x="165" y="760.945"/>
    </contour>
    <contour>
      <point x="112" y="64" type="line"/>
      <point x="112" y="627" type="line"/>
      <point x="55" y="631" type="line"/>
      <point x="55" y="691" type="line" name="ah01"/>
      <point x="231" y="691" type="line"/>
      <point x="235" y="635" type="line"/>
      <point x="181" y="627" type="line"/>
      <point x="181" y="64" type="line"/>
      <point x="238" y="60" type="line"/>
      <point x="238" y="0" type="line"/>
      <point x="62" y="0" type="line"/>
      <point x="58" y="56" type="line"/>
    </contour>
  </outline>
</glyph>
<glyph name="Eth" format="1">
  <advance width="606"/>
  <unicode hex="00D0"/>
  <outline>
    <contour>
      <point x="56" y="56" type="line" name="hr00"/>
      <point x="113" y="69" type="line"/>
      <point x="113" y="314" type="line"/>
      <point x="23" y="314" type="line"/>
      <point x="23" y="369" type="line"/>
      <point x="30" y="377" type="line"/>
      <point x="113" y="377" type="line"/>
      <point x="113" y="627" type="line"/>
      <point x="56" y="632" type="line"/>
      <point x="56" y="691" type="line"/>
      <point x="199" y="691" type="line" smooth="yes"/>
      <point x="414.93" y="691"/>
      <point x="562" y="572.621"/>
      <point x="562" y="349" type="curve" smooth="yes"/>
      <point x="562" y="123.458"/>
      <point x="437.699" y="0"/>
      <point x="212" y="0" type="curve" smooth="yes"/>
      <point x="63" y="0" type="line"/>
    </contour>
    <contour>
      <point x="491" y="348" type="curve" smooth="yes"/>
      <point x="491" y="462.677"/>
      <point x="438.792" y="560.907"/>
      <point x="328.5" y="603" type="curve" smooth="yes"/>
      <point x="280.174" y="621.444"/>
      <point x="233.021" y="623"/>
      <point x="182" y="623" type="curve"/>
      <point x="182" y="377" type="line"/>
      <point x="350" y="377" type="line" smooth="yes"/>
      <point x="354.441" y="377"/>
      <point x="357" y="374.441"/>
      <point x="357" y="370" type="curve" smooth="yes"/>
      <point x="357" y="314" type="line"/>
      <point x="182" y="314" type="line"/>
      <point x="182" y="68" type="line"/>
      <point x="226" y="68" type="line" smooth="yes"/>
      <point x="404.785" y="68"/>
      <point x="491" y="174.053"/>
    </contour>
  </outline>
</glyph>
<glyph name="Oacute" format="1">
  <advance width="645"/>
  <unicode hex="00D3"/>
  <outline>
    <contour>
      <point x="208" y="764" type="line" name="hr00"/>
      <point x="366" y="897" type="line" name="ah02"/>
      <point x="396" y="890" type="line"/>
      <point x="433" y="818" type="line"/>
      <point x="240" y="717" type="line" name="ah05"/>
    </contour>
    <contour>
      <point x="323" y="-4" type="curve" smooth="yes"/>
      <point x="132.916" y="-4"/>
      <point x="50" y="176.165"/>
      <point x="50" y="343" type="curve" smooth="yes" name="ah03"/>
      <point x="50" y="509.141"/>
      <point x="133.425" y="691"/>
      <point x="323" y="691" type="curve" smooth="yes" name="ah01"/>
      <point x="512.668" y="691"/>
      <point x="595" y="508.925"/>
      <point x="595" y="343" type="curve" smooth="yes" name="ah04"/>
      <point x="595" y="176.381"/>
      <point x="513.174" y="-4"/>
    </contour>
    <contour>
      <point x="121" y="341" type="curve" smooth="yes"/>
      <point x="121" y="213.252"/>
      <point x="171.36" y="64"/>
      <point x="323" y="64" type="curve" smooth="yes"/>
      <point x="473.919" y="64"/>
      <point x="524" y="214.071"/>
      <point x="524" y="341" type="curve" smooth="yes"/>
      <point x="524" y="467.092"/>
      <point x="474.083" y="623"/>
      <point x="323" y="623" type="curve" smooth="yes"/>
      <point x="171.185" y="623"/>
      <point x="121" y="467.915"/>
    </contour>
  </outline>
</glyph>
<glyph name="Odieresis" format="1">
  <advance width="645"/>
  <unicode hex="00D6"/>
  <outline>
    <contour>
      <point x="323" y="-4" type="curve" smooth="yes" name="hr00"/>
      <point x="132.916" y="-4"/>
      <point x="50" y="176.165"/>
      <point x="50" y="343" type="curve" smooth="yes"/>
      <point x="50" y="509.141"/>
      <point x="133.425" y="691"/>
      <point x="323" y="691" type="curve" smooth="yes" name="mh01"/>
      <point x="512.668" y="691"/>
      <point x="595" y="508.925"/>
      <point x="595" y="343" type="curve" smooth="yes"/>
      <point x="595" y="176.381"/>
      <point x="513.174" y="-4"/>
    </contour>
    <contour>
      <point x="121" y="341" type="curve" smooth="yes"/>
      <point x="121" y="213.252"/>
      <point x="171.36" y="64"/>
      <point x="323" y="64" type="curve" smooth="yes"/>
      <point x="473.919" y="64"/>
      <point x="524" y="214.071"/>
      <point x="524" y="341" type="curve" smooth="yes"/>
      <point x="524" y="467.092"/>
      <point x="474.083" y="623"/>
      <point x="323" y="623" type="curve" smooth="yes"/>
      <point x="171.185" y="623"/>
      <point x="121" y="467.915"/>
    </contour>
    <contour>
      <point x="187" y="793" type="curve" smooth="yes"/>
      <point x="187" y="825.131"/>
      <point x="211.869" y="850"/>
      <point x="244" y="850" type="curve" smooth="yes" name="mh02"/>
      <point x="275.429" y="850"/>
      <point x="302" y="824.652"/>
      <point x="302" y="793" type="curve" smooth="yes"/>
      <point x="302" y="761.478"/>
      <point x="275.577" y="735"/>
      <point x="244" y="735" type="curve" smooth="yes"/>
      <point x="211.681" y="735"/>
      <point x="187" y="761.024"/>
    </contour>
    <contour>
      <point x="363" y="793" type="curve" smooth="yes"/>
      <point x="363" y="826.229"/>
      <point x="390.68" y="850"/>
      <point x="423" y="850" type="curve" smooth="yes" name="mh03"/>
      <point x="454.755" y="850"/>
      <point x="478" y="824.139"/>
      <point x="478" y="793" type="curve" smooth="yes"/>
      <point x="478" y="762.002"/>
      <point x="454.899" y="735"/>
      <point x="423" y="735" type="curve" smooth="yes"/>
      <point x="390.494" y="735"/>
      <point x="363" y="759.885"/>
    </contour>
  </outline>
</glyph>
<glyph name="Oslash" format="1">
  <advance width="645"/>
  <unicode hex="00D8"/>
  <outline>
    <contour>
      <point x="323" y="-4" type="curve" smooth="yes" name="hr00"/>
      <point x="277.512" y="-4"/>
      <point x="232.116" y="6.24969"/>
      <point x="193" y="30" type="curve"/>
      <point x="158" y="-42" type="line"/>
      <point x="94" y="-42" type="line"/>
      <point x="91" y="-29" type="line"/>
      <point x="141" y="73" type="line"/>
      <point x="75.6907" y="143.867"/>
      <point x="50" y="248.645"/>
      <point x="50" y="343" type="curve" smooth="yes"/>
      <point x="50" y="509.096"/>
      <point x="133.397" y="691"/>
      <point x="323" y="691" type="curve" smooth="yes" name="mh01"/>
      <point x="361.16" y="691"/>
      <point x="398.777" y="683.11"/>
      <point x="433" y="666" type="curve"/>
      <point x="472" y="745" type="line"/>
      <point x="539" y="745" type="line"/>
      <point x="538" y="731" type="line"/>
      <point x="488" y="629" type="line"/>
      <point x="564.939" y="557.661"/>
      <point x="595" y="445.149"/>
      <point x="595" y="343" type="curve" smooth="yes"/>
      <point x="595" y="176.436"/>
      <point x="513.205" y="-4"/>
    </contour>
    <contour>
      <point x="323" y="64" type="curve" smooth="yes"/>
      <point x="473.914" y="64"/>
      <point x="524" y="214.064"/>
      <point x="524" y="341" type="curve" smooth="yes"/>
      <point x="524" y="417.525"/>
      <point x="506.995" y="504.505"/>
      <point x="456" y="564" type="curve" name="mh02"/>
      <point x="224" y="92" type="line"/>
      <point x="252.989" y="71.7073"/>
      <point x="288.041" y="64"/>
    </contour>
    <contour>
      <point x="121" y="341" type="curve" smooth="yes"/>
      <point x="121" y="272.096"/>
      <point x="134.562" y="197.75"/>
      <point x="174" y="140" type="curve"/>
      <point x="403" y="605" type="line"/>
      <point x="377.978" y="616.77"/>
      <point x="350.651" y="623"/>
      <point x="323" y="623" type="curve" smooth="yes" name="mh03"/>
      <point x="171.19" y="623"/>
      <point x="121" y="467.92"/>
    </contour>
  </outline>
</glyph>
<glyph name="Ucircumflex" format="1">
  <advance width="628"/>
  <unicode hex="00DB"/>
  <outline>
    <contour>
      <point x="303" y="884" type="line" name="hr00"/>
      <point x="319" y="884" type="line"/>
      <point x="460" y="727" type="line"/>
      <point x="386" y="727" type="line"/>
      <point x="310" y="790" type="line"/>
      <point x="235" y="727" type="line"/>
      <point x="161" y="727" type="line"/>
    </contour>
    <contour>
      <point x="417" y="631" type="line"/>
      <point x="417" y="691" type="line"/>
      <point x="587" y="691" type="line"/>
      <point x="591" y="635" type="line"/>
      <point x="536" y="627" type="line"/>
      <point x="536" y="202" type="line" smooth="yes"/>
      <point x="536" y="72.047"/>
      <point x="437.327" y="-4"/>
      <point x="313" y="-4" type="curve" smooth="yes"/>
      <point x="189.082" y="-4"/>
      <point x="96" y="74.4924"/>
      <point x="96" y="202" type="curve" smooth="yes"/>
      <point x="96" y="627" type="line"/>
      <point x="38" y="631" type="line"/>
      <point x="38" y="691" type="line" name="ah01"/>
      <point x="215" y="691" type="line" name="ah02"/>
      <point x="219" y="635" type="line"/>
      <point x="164" y="627" type="line"/>
      <point x="164" y="213" type="line" smooth="yes"/>
      <point x="164" y="115.386"/>
      <point x="223.134" y="63"/>
      <point x="319" y="63" type="curve" smooth="yes"/>
      <point x="414.845" y="63"/>
      <point x="474" y="115.325"/>
      <point x="474" y="213" type="curve" smooth="yes"/>
      <point x="474" y="627" type="line"/>
    </contour>
  </outline>
</glyph>
<glyph name="Udieresis" format="1">
  <advance width="628"/>
  <unicode hex="00DC"/>
  <outline>
    <contour>
      <point x="417" y="631" type="line" name="hr00"/>
      <point x="417" y="691" type="line" name="mh01"/>
      <point x="587" y="691" type="line"/>
      <point x="591" y="635" type="line"/>
      <point x="536" y="627" type="line"/>
      <point x="536" y="202" type="line" smooth="yes"/>
      <point x="536" y="72.047"/>
      <point x="437.327" y="-4"/>
      <point x="313" y="-4" type="curve" smooth="yes"/>
      <point x="189.082" y="-4"/>
      <point x="96" y="74.4924"/>
      <point x="96" y="202" type="curve" smooth="yes"/>
      <point x="96" y="627" type="line"/>
      <point x="38" y="631" type="line"/>
      <point x="38" y="691" type="line"/>
      <point x="215" y="691" type="line" name="mh02"/>
      <point x="219" y="635" type="line"/>
      <point x="164" y="627" type="line"/>
      <point x="164" y="213" type="line" smooth="yes"/>
      <point x="164" y="115.386"/>
      <point x="223.134" y="63"/>
      <point x="319" y="63" type="curve" smooth="yes"/>
      <point x="414.845" y="63"/>
      <point x="474" y="115.325"/>
      <point x="474" y="213" type="curve" smooth="yes"/>
      <point x="474" y="627" type="line"/>
    </contour>
    <contour>
      <point x="164" y="793" type="curve" smooth="yes"/>
      <point x="164" y="825.131"/>
      <point x="188.869" y="850"/>
      <point x="221" y="850" type="curve" smooth="yes" name="mh03"/>
      <point x="252.429" y="850"/>
      <point x="279" y="824.652"/>
      <point x="279" y="793" type="curve" smooth="yes"/>
      <point x="279" y="761.478"/>
      <point x="252.577" y="735"/>
      <point x="221" y="735" type="curve" smooth="yes"/>
      <point x="188.681" y="735"/>
      <point x="164" y="761.024"/>
    </contour>
    <contour>
      <point x="340" y="793" type="curve" smooth="yes"/>
      <point x="340" y="826.229"/>
      <point x="367.68" y="850"/>
      <point x="400" y="850" type="curve" smooth="yes" name="mh04"/>
      <point x="431.755" y="850"/>
      <point x="455" y="824.139"/>
      <point x="455" y="793" type="curve" smooth="yes"/>
      <point x="455" y="762.002"/>
      <point x="431.899" y="735"/>
      <point x="400" y="735" type="curve" smooth="yes"/>
      <point x="367.494" y="735"/>
      <point x="340" y="759.885"/>
    </contour>
  </outline>
</glyph>
<glyph name="Thorn" format="1">
  <advance width="500"/>
  <unicode hex="00DE"/>
  <outline>
    <contour>
      <point x="112" y="64" type="line" name="hr00"/>
      <point x="112" y="627" type="line" name="mv01"/>
      <point x="55" y="631" type="line" name="mv02"/>
      <point x="55" y="691" type="line" name="at01"/>
      <point x="232" y="691" type="line" name="mv03"/>
      <point x="236" y="635" type="line"/>
      <point x="181" y="627" type="line" name="mv04"/>
      <point x="181" y="561" type="line" name="mh01"/>
      <point x="316.081" y="561"/>
      <point x="475" y="545.315"/>
      <point x="475" y="371" type="curve" smooth="yes" name="av01"/>
      <point x="475" y="196.827"/>
      <point x="317.512" y="175"/>
      <point x="181" y="175" type="curve"/>
      <point x="181" y="64" type="line"/>
      <point x="291" y="51" type="line"/>
      <point x="291" y="0" type="line"/>
      <point x="63" y="0" type="line"/>
      <point x="58" y="56" type="line"/>
    </contour>
    <contour>
      <point x="217" y="244" type="line" smooth="yes"/>
      <point x="304.426" y="244"/>
      <point x="402" y="261.619"/>
      <point x="402" y="370" type="curve" smooth="yes" name="hr01"/>
      <point x="402" y="478.813"/>
      <point x="304.69" y="492"/>
      <point x="218" y="492" type="curve" smooth="yes"/>
      <point x="181" y="492" type="line"/>
      <point x="181" y="244" type="line"/>
    </contour>
  </outline>
</glyph>
<glyph name="germandbls" format="1">
  <advance width="511"/>
  <unicode hex="00DF"/>
  <outline>
    <contour>
      <point x="214" y="87" type="line" name="hr00"/>
      <point x="243.044" y="74.5518"/>
      <point x="272.719" y="64.6328"/>
      <point x="302" y="53" type="curve"/>
      <point x="369.851" y="52.9862"/>
      <point x="417" y="97.1974"/>
      <point x="417" y="166" type="curve" smooth="yes"/>
      <point x="417" y="301.812"/>
      <point x="223" y="282.381"/>
      <point x="223" y="397" type="curve" smooth="yes"/>
      <point x="223" y="474.555"/>
      <point x="314" y="495.61"/>
      <point x="314" y="586" type="curve" smooth="yes"/>
      <point x="314" y="633.385"/>
      <point x="279.797" y="670"/>
      <point x="232" y="670" type="curve" smooth="yes"/>
      <point x="164.792" y="670"/>
      <point x="150" y="615.553"/>
      <point x="150" y="559" type="curve" smooth="yes"/>
      <point x="150" y="0" type="line"/>
      <point x="35" y="0" type="line"/>
      <point x="35" y="44" type="line"/>
      <point x="87" y="55" type="line"/>
      <point x="87" y="558" type="line" smooth="yes"/>
      <point x="87" y="651.136"/>
      <point x="130.059" y="727"/>
      <point x="232" y="727" type="curve" smooth="yes" name="mh01"/>
      <point x="319.986" y="727"/>
      <point x="380" y="675.019"/>
      <point x="380" y="585" type="curve" smooth="yes"/>
      <point x="380" y="487.402"/>
      <point x="281" y="432.762"/>
      <point x="281" y="405" type="curve" smooth="yes"/>
      <point x="281" y="319.932"/>
      <point x="483" y="352.444"/>
      <point x="483" y="166" type="curve" smooth="yes"/>
      <point x="483" y="69.9994"/>
      <point x="395.375" y="-4"/>
      <point x="302" y="-4" type="curve" smooth="yes"/>
      <point x="263.454" y="-4"/>
      <point x="225.966" y="6.92437"/>
      <point x="190" y="20" type="curve"/>
    </contour>
  </outline>
</glyph>
<glyph name="aacute" format="1">
  <advance width="448"/>
  <unicode hex="00E1"/>
  <outline>
    <contour>
      <point x="389" y="50" type="curve" smooth="yes" name="hr00"/>
      <point x="396.217" y="50"/>
      <point x="403.366" y="52.349"/>
      <point x="410" y="55" type="curve"/>
      <point x="421" y="17" type="line"/>
      <point x="406.574" y="2.56348"/>
      <point x="386.144" y="-4"/>
      <point x="366" y="-4" type="curve" smooth="yes"/>
      <point x="334.992" y="-4"/>
      <point x="316.007" y="9.51244"/>
      <point x="308" y="40" type="curve"/>
      <point x="275.164" y="10.0181"/>
      <point x="234.145" y="-4"/>
      <point x="190" y="-4" type="curve" smooth="yes"/>
      <point x="111.625" y="-4"/>
      <point x="41" y="44.138"/>
      <point x="41" y="128" type="curve" smooth="yes"/>
      <point x="41" y="261.139"/>
      <point x="200.428" y="285.147"/>
      <point x="303" y="288" type="curve"/>
      <point x="303" y="352" type="line" smooth="yes"/>
      <point x="303" y="401.882"/>
      <point x="258.855" y="422"/>
      <point x="215" y="422" type="curve" smooth="yes"/>
      <point x="194.169" y="422"/>
      <point x="164.01" y="420.067"/>
      <point x="146" y="409" type="curve"/>
      <point x="130" y="356" type="line"/>
      <point x="48" y="371" type="line"/>
      <point x="70.7745" y="441.882"/>
      <point x="137.016" y="479"/>
      <point x="209" y="479" type="curve" smooth="yes" name="mh01"/>
      <point x="304.308" y="479"/>
      <point x="366" y="437.625"/>
      <point x="366" y="337" type="curve" smooth="yes"/>
      <point x="366" y="79" type="line" smooth="yes" name="hr00"/>
      <point x="366" y="62.9326"/>
      <point x="371.021" y="50"/>
    </contour>
    <contour>
      <point x="107" y="131" type="curve" smooth="yes"/>
      <point x="107" y="77.9869"/>
      <point x="148.295" y="53"/>
      <point x="197" y="53" type="curve" smooth="yes"/>
      <point x="238.298" y="53"/>
      <point x="280.168" y="73.072"/>
      <point x="303" y="108" type="curve"/>
      <point x="303" y="232" type="line"/>
      <point x="237.564" y="231.994"/>
      <point x="107" y="219.973"/>
    </contour>
    <contour>
      <point x="149" y="586" type="line"/>
      <point x="253" y="725" type="line" name="mh02"/>
      <point x="280" y="725" type="line"/>
      <point x="324" y="673" type="line"/>
      <point x="184" y="553" type="line"/>
    </contour>
  </outline>
</glyph>
<glyph name="adieresis" format="1">
  <advance width="448"/>
  <unicode hex="00E4"/>
  <outline>
    <contour>
      <point x="89" y="619" type="curve" smooth="yes" name="mh01"/>
      <point x="89" y="646.501"/>
      <point x="110.57" y="668"/>
      <point x="138" y="668" type="curve" smooth="yes"/>
      <point x="164.301" y="668"/>
      <point x="186" y="644.965"/>
      <point x="186" y="619" type="curve" smooth="yes"/>
      <point x="186" y="593.604"/>
      <point x="163.659" y="570"/>
      <point x="138" y="570" type="curve" smooth="yes"/>
      <point x="111.145" y="570"/>
      <point x="89" y="592.089"/>
    </contour>
    <contour>
      <point x="229" y="619" type="curve" smooth="yes"/>
      <point x="229" y="646.316"/>
      <point x="249.412" y="668"/>
      <point x="277" y="668" type="curve" smooth="yes"/>
      <point x="303.394" y="668"/>
      <point x="324" y="644.773"/>
      <point x="324" y="619" type="curve" smooth="yes" name="mh02"/>
      <point x="324" y="593.819"/>
      <point x="302.71" y="570"/>
      <point x="277" y="570" type="curve" smooth="yes"/>
      <point x="249.993" y="570"/>
      <point x="229" y="592.222"/>
    </contour>
    <contour>
      <point x="389" y="50" type="curve" smooth="yes"/>
      <point x="396.217" y="50"/>
      <point x="403.366" y="52.349"/>
      <point x="410" y="55" type="curve"/>
      <point x="421" y="17" type="line"/>
      <point x="406.574" y="2.56348"/>
      <point x="386.144" y="-4"/>
      <point x="366" y="-4" type="curve" smooth="yes"/>
      <point x="334.992" y="-4"/>
      <point x="316.007" y="9.51244"/>
      <point x="308" y="40" type="curve"/>
      <point x="275.164" y="10.0181"/>
      <point x="234.145" y="-4"/>
      <point x="190" y="-4" type="curve" smooth="yes"/>
      <point x="111.625" y="-4"/>
      <point x="41" y="44.138"/>
      <point x="41" y="128" type="curve" smooth="yes" name="mh04"/>
      <point x="41" y="261.139"/>
      <point x="200.428" y="285.147"/>
      <point x="303" y="288" type="curve"/>
      <point x="303" y="352" type="line" smooth="yes"/>
      <point x="303" y="401.882"/>
      <point x="258.855" y="422"/>
      <point x="215" y="422" type="curve" smooth="yes"/>
      <point x="194.169" y="422"/>
      <point x="164.01" y="420.067"/>
      <point x="146" y="409" type="curve"/>
      <point x="130" y="356" type="line" name="mh05"/>
      <point x="48" y="371" type="line"/>
      <point x="70.7745" y="441.882"/>
      <point x="137.016" y="479"/>
      <point x="209" y="479" type="curve" smooth="yes" name="mh06"/>
      <point x="304.308" y="479"/>
      <point x="366" y="437.625"/>
      <point x="366" y="337" type="curve" smooth="yes" name="mh07"/>
      <point x="366" y="79" type="line" smooth="yes"/>
      <point x="366" y="62.9326"/>
      <point x="371.021" y="50"/>
    </contour>
    <contour>
      <point x="107" y="131" type="curve" smooth="yes"/>
      <point x="107" y="77.9869"/>
      <point x="148.295" y="53"/>
      <point x="197" y="53" type="curve" smooth="yes"/>
      <point x="238.298" y="53"/>
      <point x="280.168" y="73.072"/>
      <point x="303" y="108" type="curve"/>
      <point x="303" y="232" type="line"/>
      <point x="237.564" y="231.994"/>
      <point x="107" y="219.973"/>
    </contour>
  </outline>
</glyph>
<glyph name="aring" format="1">
  <advance width="448"/>
  <unicode hex="00E5"/>
  <outline>
    <contour>
      <point x="124" y="601" type="curve" smooth="yes" name="mh01"/>
      <point x="124" y="651.948"/>
      <point x="163.052" y="691"/>
      <point x="214" y="691" type="curve" smooth="yes" name="mh02"/>
      <point x="264.948" y="691"/>
      <point x="304" y="651.948"/>
      <point x="304" y="601" type="curve" smooth="yes"/>
      <point x="304" y="549.577"/>
      <point x="265.838" y="510"/>
      <point x="214" y="510" type="curve" smooth="yes"/>
      <point x="162.162" y="510"/>
      <point x="124" y="549.577"/>
    </contour>
    <contour>
      <point x="176" y="601" type="curve" smooth="yes"/>
      <point x="176" y="577.756"/>
      <point x="190.656" y="563"/>
      <point x="214" y="563" type="curve" smooth="yes"/>
      <point x="237.344" y="563"/>
      <point x="252" y="577.756"/>
      <point x="252" y="601" type="curve" smooth="yes"/>
      <point x="252" y="623.804"/>
      <point x="236.479" y="638"/>
      <point x="214" y="638" type="curve" smooth="yes"/>
      <point x="191.521" y="638"/>
      <point x="176" y="623.804"/>
    </contour>
    <contour>
      <point x="389" y="50" type="curve" smooth="yes"/>
      <point x="396.217" y="50"/>
      <point x="403.366" y="52.349"/>
      <point x="410" y="55" type="curve"/>
      <point x="421" y="17" type="line"/>
      <point x="406.574" y="2.56348"/>
      <point x="386.144" y="-4"/>
      <point x="366" y="-4" type="curve" smooth="yes"/>
      <point x="334.992" y="-4"/>
      <point x="316.007" y="9.51244"/>
      <point x="308" y="40" type="curve"/>
      <point x="275.164" y="10.0181"/>
      <point x="234.145" y="-4"/>
      <point x="190" y="-4" type="curve" smooth="yes"/>
      <point x="111.625" y="-4"/>
      <point x="41" y="44.138"/>
      <point x="41" y="128" type="curve" smooth="yes"/>
      <point x="41" y="261.139"/>
      <point x="200.428" y="285.147"/>
      <point x="303" y="288" type="curve"/>
      <point x="303" y="352" type="line" smooth="yes"/>
      <point x="303" y="401.882"/>
      <point x="258.855" y="422"/>
      <point x="215" y="422" type="curve" smooth="yes"/>
      <point x="194.169" y="422"/>
      <point x="164.01" y="420.067"/>
      <point x="146" y="409" type="curve"/>
      <point x="130" y="356" type="line"/>
      <point x="48" y="371" type="line"/>
      <point x="70.7745" y="441.882"/>
      <point x="137.016" y="479"/>
      <point x="209" y="479" type="curve" smooth="yes" name="mh03"/>
      <point x="304.308" y="479"/>
      <point x="366" y="437.625"/>
      <point x="366" y="337" type="curve" smooth="yes"/>
      <point x="366" y="79" type="line" smooth="yes"/>
      <point x="366" y="62.9326"/>
      <point x="371.021" y="50"/>
    </contour>
    <contour>
      <point x="107" y="131" type="curve" smooth="yes"/>
      <point x="107" y="77.9869"/>
      <point x="148.295" y="53"/>
      <point x="197" y="53" type="curve" smooth="yes"/>
      <point x="238.298" y="53"/>
      <point x="280.168" y="73.072"/>
      <point x="303" y="108" type="curve"/>
      <point x="303" y="232" type="line"/>
      <point x="237.564" y="231.994"/>
      <point x="107" y="219.973"/>
    </contour>
  </outline>
</glyph>
<glyph name="ae" format="1">
  <advance width="698"/>
  <unicode hex="00E6"/>
  <outline>
    <contour>
      <point x="303" y="352" type="line" smooth="yes" name="hr00"/>
      <point x="303" y="397.406"/>
      <point x="243.866" y="422"/>
      <point x="206" y="422" type="curve" smooth="yes" name="mh01"/>
      <point x="189.448" y="422"/>
      <point x="158.784" y="420.099"/>
      <point x="146" y="409" type="curve"/>
      <point x="130" y="356" type="line"/>
      <point x="48" y="371" type="line"/>
      <point x="58.5992" y="442.672"/>
      <point x="141.857" y="479"/>
      <point x="207" y="479" type="curve" smooth="yes" name="mh02"/>
      <point x="268.59" y="479"/>
      <point x="326.981" y="458.879"/>
      <point x="353" y="399" type="curve"/>
      <point x="390.284" y="449.146"/>
      <point x="447.989" y="481"/>
      <point x="511" y="481" type="curve" smooth="yes" name="mh03"/>
      <point x="593.965" y="481"/>
      <point x="664" y="443.405"/>
      <point x="664" y="352" type="curve" smooth="yes"/>
      <point x="664" y="199.821"/>
      <point x="475.532" y="209"/>
      <point x="369" y="209" type="curve"/>
      <point x="374.744" y="120.746"/>
      <point x="427.312" y="56"/>
      <point x="520" y="56" type="curve" smooth="yes"/>
      <point x="554.628" y="56"/>
      <point x="591.251" y="66.986"/>
      <point x="617" y="91" type="curve"/>
      <point x="635" y="36" type="line"/>
      <point x="594.881" y="4.60275"/>
      <point x="553.618" y="-2"/>
      <point x="504" y="-2" type="curve" smooth="yes"/>
      <point x="440.468" y="-2"/>
      <point x="382.234" y="26.5147"/>
      <point x="346" y="79" type="curve"/>
      <point x="340.955" y="66.2791"/>
      <point x="326.118" y="52.0193"/>
      <point x="316.5" y="42.5" type="curve" smooth="yes"/>
      <point x="284.478" y="10.8061"/>
      <point x="240.473" y="-4"/>
      <point x="196" y="-4" type="curve" smooth="yes"/>
      <point x="120.992" y="-4"/>
      <point x="41" y="38.8955"/>
      <point x="41" y="123" type="curve" smooth="yes"/>
      <point x="41" y="267.192"/>
      <point x="197.555" y="267"/>
      <point x="303" y="267" type="curve"/>
    </contour>
    <contour>
      <point x="427" y="266" type="curve" smooth="yes"/>
      <point x="480.068" y="266"/>
      <point x="598" y="271.407"/>
      <point x="598" y="346" type="curve" smooth="yes"/>
      <point x="598" y="396.942"/>
      <point x="554.931" y="423"/>
      <point x="508" y="423" type="curve" smooth="yes" name="mh04"/>
      <point x="421.734" y="423"/>
      <point x="378.576" y="342.808"/>
      <point x="371" y="267" type="curve"/>
      <point x="389.672" y="266.998"/>
      <point x="408.324" y="266"/>
    </contour>
    <contour>
      <point x="107" y="133" type="curve" smooth="yes"/>
      <point x="107" y="82.6762"/>
      <point x="148.898" y="54"/>
      <point x="196" y="54" type="curve" smooth="yes"/>
      <point x="236.33" y="54"/>
      <point x="281.046" y="71.13"/>
      <point x="303" y="107" type="curve"/>
      <point x="303" y="211" type="line"/>
      <point x="270" y="211" type="line" smooth="yes"/>
      <point x="214.008" y="211"/>
      <point x="107" y="212.155"/>
    </contour>
  </outline>
</glyph>
<glyph name="ccedilla" format="1">
  <advance width="406"/>
  <unicode hex="00E7"/>
  <outline>
    <contour>
      <point x="218" y="-73" type="curve" name="hr00"/>
      <point x="205" y="-60" type="line"/>
      <point x="225" y="-3" type="line"/>
      <point x="97.7646" y="7.59104"/>
      <point x="43" y="116.579"/>
      <point x="43" y="233" type="curve" smooth="yes"/>
      <point x="43" y="363.671"/>
      <point x="104.401" y="479"/>
      <point x="249" y="479" type="curve" smooth="yes"/>
      <point x="293.044" y="479"/>
      <point x="346.892" y="468.581"/>
      <point x="383" y="442" type="curve"/>
      <point x="339" y="373" type="line"/>
      <point x="280" y="420" type="line"/>
      <point x="268.303" y="422.89"/>
      <point x="255.937" y="422"/>
      <point x="244" y="422" type="curve" smooth="yes"/>
      <point x="135.59" y="422"/>
      <point x="109" y="321.874"/>
      <point x="109" y="232" type="curve" smooth="yes"/>
      <point x="109" y="133.499"/>
      <point x="148.513" y="53"/>
      <point x="258" y="53" type="curve" smooth="yes"/>
      <point x="294.888" y="53"/>
      <point x="328.107" y="61.3924"/>
      <point x="360" y="80" type="curve"/>
      <point x="377" y="31" type="line"/>
      <point x="348.125" y="8.9992"/>
      <point x="311.747" y="-0.447706"/>
      <point x="276" y="-3" type="curve"/>
      <point x="266" y="-32" type="line"/>
      <point x="309.989" y="-35.1413"/>
      <point x="343" y="-67.3393"/>
      <point x="343" y="-112" type="curve" smooth="yes"/>
      <point x="343" y="-172.046"/>
      <point x="294.334" y="-196"/>
      <point x="241" y="-196" type="curve" smooth="yes"/>
      <point x="208.59" y="-196"/>
      <point x="186.625" y="-187.52"/>
      <point x="157" y="-176" type="curve"/>
      <point x="188" y="-116" type="line"/>
      <point x="243" y="-150" type="line"/>
      <point x="265.596" y="-150.025"/>
      <point x="289" y="-138.466"/>
      <point x="289" y="-113" type="curve" smooth="yes"/>
      <point x="289" y="-77.1535"/>
      <point x="243.725" y="-73"/>
    </contour>
  </outline>
</glyph>
<glyph name="ecircumflex" format="1">
  <advance width="443"/>
  <unicode hex="00EA"/>
  <outline>
    <contour>
      <point x="120" y="548" type="line" name="hr00"/>
      <point x="236" y="691" type="line" name="mh01"/>
      <point x="252" y="691" type="line"/>
      <point x="368" y="550" type="line"/>
      <point x="365" y="544" type="line"/>
      <point x="310" y="544" type="line"/>
      <point x="244" y="602" type="line"/>
      <point x="178" y="544" type="line" name="hr01"/>
      <point x="124" y="544" type="line"/>
    </contour>
    <contour>
      <point x="264" y="52" type="curve" smooth="yes"/>
      <point x="304.678" y="52"/>
      <point x="348.021" y="63.629"/>
      <point x="381" y="88" type="curve"/>
      <point x="398" y="34" type="line"/>
      <point x="358.271" y="5.22868"/>
      <point x="307.207" y="-4"/>
      <point x="259" y="-4" type="curve" smooth="yes"/>
      <point x="117.318" y="-4"/>
      <point x="42" y="97.0402"/>
      <point x="42" y="232" type="curve" smooth="yes"/>
      <point x="42" y="359.558"/>
      <point x="112.199" y="479"/>
      <point x="252" y="479" type="curve" smooth="yes" name="mh02"/>
      <point x="330.632" y="479"/>
      <point x="401" y="432.374"/>
      <point x="401" y="348" type="curve" smooth="yes"/>
      <point x="401" y="199.606"/>
      <point x="222.35" y="185.002"/>
      <point x="111" y="185" type="curve"/>
      <point x="125.572" y="100.407"/>
      <point x="177.097" y="52"/>
    </contour>
    <contour>
      <point x="125" y="244" type="line" smooth="yes"/>
      <point x="197.044" y="244"/>
      <point x="335" y="247.205"/>
      <point x="335" y="348" type="curve" smooth="yes"/>
      <point x="335" y="396.89"/>
      <point x="296.624" y="422"/>
      <point x="251" y="422" type="curve" smooth="yes"/>
      <point x="153.803" y="422"/>
      <point x="110.363" y="329.162"/>
      <point x="108" y="244" type="curve"/>
    </contour>
  </outline>
</glyph>
<glyph name="edieresis" format="1">
  <advance width="443"/>
  <unicode hex="00EB"/>
  <outline>
    <contour>
      <point x="122" y="619" type="curve" smooth="yes" name="hr00"/>
      <point x="122" y="646.501"/>
      <point x="143.57" y="668"/>
      <point x="171" y="668" type="curve" smooth="yes" name="mh01"/>
      <point x="197.301" y="668"/>
      <point x="219" y="644.965"/>
      <point x="219" y="619" type="curve" smooth="yes"/>
      <point x="219" y="593.604"/>
      <point x="196.659" y="570"/>
      <point x="171" y="570" type="curve" smooth="yes"/>
      <point x="144.145" y="570"/>
      <point x="122" y="592.089"/>
    </contour>
    <contour>
      <point x="262" y="619" type="curve" smooth="yes"/>
      <point x="262" y="646.316"/>
      <point x="282.412" y="668"/>
      <point x="310" y="668" type="curve" smooth="yes" name="mh02"/>
      <point x="336.394" y="668"/>
      <point x="357" y="644.773"/>
      <point x="357" y="619" type="curve" smooth="yes"/>
      <point x="357" y="593.819"/>
      <point x="335.71" y="570"/>
      <point x="310" y="570" type="curve" smooth="yes"/>
      <point x="282.993" y="570"/>
      <point x="262" y="592.222"/>
    </contour>
    <contour>
      <point x="264" y="52" type="curve" smooth="yes"/>
      <point x="304.678" y="52"/>
      <point x="348.021" y="63.629"/>
      <point x="381" y="88" type="curve"/>
      <point x="398" y="34" type="line"/>
      <point x="358.271" y="5.22868"/>
      <point x="307.207" y="-4"/>
      <point x="259" y="-4" type="curve" smooth="yes"/>
      <point x="117.318" y="-4"/>
      <point x="42" y="97.0402"/>
      <point x="42" y="232" type="curve" smooth="yes" name="mh03"/>
      <point x="42" y="359.558"/>
      <point x="112.199" y="479"/>
      <point x="252" y="479" type="curve" smooth="yes" name="mh04"/>
      <point x="330.632" y="479"/>
      <point x="401" y="432.374"/>
      <point x="401" y="348" type="curve" smooth="yes" name="mh05"/>
      <point x="401" y="199.606"/>
      <point x="222.35" y="185.002"/>
      <point x="111" y="185" type="curve"/>
      <point x="125.572" y="100.407"/>
      <point x="177.097" y="52"/>
    </contour>
    <contour>
      <point x="125" y="244" type="line" smooth="yes"/>
      <point x="197.044" y="244"/>
      <point x="335" y="247.205"/>
      <point x="335" y="348" type="curve" smooth="yes"/>
      <point x="335" y="396.89"/>
      <point x="296.624" y="422"/>
      <point x="251" y="422" type="curve" smooth="yes"/>
      <point x="153.803" y="422"/>
      <point x="110.363" y="329.162"/>
      <point x="108" y="244" type="curve"/>
    </contour>
  </outline>
</glyph>
<glyph name="idieresis" format="1">
  <advance width="249"/>
  <unicode hex="00EF"/>
  <outline>
    <contour>
      <point x="3" y="619" type="curve" smooth="yes" name="hr00"/>
      <point x="3" y="646.475"/>
      <point x="24.5517" y="668"/>
      <point x="52" y="668" type="curve" smooth="yes" name="mh01"/>
      <point x="78.394" y="668"/>
      <point x="99" y="644.773"/>
      <point x="99" y="619" type="curve" smooth="yes"/>
      <point x="99" y="593.819"/>
      <point x="77.7104" y="570"/>
      <point x="52" y="570" type="curve" smooth="yes"/>
      <point x="25.1454" y="570"/>
      <point x="3" y="592.089"/>
    </contour>
    <contour>
      <point x="132" y="619" type="curve" smooth="yes"/>
      <point x="132" y="646.316"/>
      <point x="152.412" y="668"/>
      <point x="180" y="668" type="curve" smooth="yes" name="mh02"/>
      <point x="206.394" y="668"/>
      <point x="227" y="644.773"/>
      <point x="227" y="619" type="curve" smooth="yes"/>
      <point x="227" y="593.819"/>
      <point x="205.71" y="570"/>
      <point x="180" y="570" type="curve" smooth="yes"/>
      <point x="152.993" y="570"/>
      <point x="132" y="592.222"/>
    </contour>
    <contour>
      <point x="160" y="451" type="line"/>
      <point x="160" y="59" type="line"/>
      <point x="221" y="44" type="line"/>
      <point x="221" y="0" type="line"/>
      <point x="46" y="0" type="line"/>
      <point x="37" y="43" type="line"/>
      <point x="97" y="58" type="line"/>
      <point x="97" y="416" type="line"/>
      <point x="43" y="412" type="line"/>
      <point x="34" y="463" type="line"/>
      <point x="133" y="481" type="line" name="mh03"/>
    </contour>
  </outline>
</glyph>
<glyph name="eth" format="1">
  <advance width="511"/>
  <unicode hex="00F0"/>
  <outline>
    <contour>
      <point x="169" y="528" type="line" name="hr00"/>
      <point x="275" y="589" type="line"/>
      <point x="240.857" y="623.144"/>
      <point x="201.235" y="651.695"/>
      <point x="159" y="675" type="curve"/>
      <point x="188" y="728" type="line" name="av01"/>
      <point x="241.614" y="701.955"/>
      <point x="290.136" y="665.271"/>
      <point x="331" y="622" type="curve"/>
      <point x="450" y="692" type="line"/>
      <point x="483" y="633" type="line"/>
      <point x="370" y="574" type="line"/>
      <point x="429.264" y="491.94"/>
      <point x="459" y="399.088"/>
      <point x="459" y="298" type="curve" smooth="yes" name="av02"/>
      <point x="459" y="162.834"/>
      <point x="418.851" y="-4"/>
      <point x="253" y="-4" type="curve" smooth="yes"/>
      <point x="113.772" y="-4"/>
      <point x="43" y="100.456"/>
      <point x="43" y="231" type="curve" smooth="yes"/>
      <point x="43" y="347.651"/>
      <point x="109.672" y="458"/>
      <point x="237" y="458" type="curve" smooth="yes"/>
      <point x="289.004" y="458"/>
      <point x="337.938" y="445.821"/>
      <point x="378" y="411" type="curve"/>
      <point x="365.369" y="459.007"/>
      <point x="344.042" y="504.4"/>
      <point x="314" y="544" type="curve"/>
      <point x="197" y="482" type="line"/>
    </contour>
    <contour>
      <point x="241" y="401" type="curve" smooth="yes"/>
      <point x="146.375" y="401"/>
      <point x="111" y="311.387"/>
      <point x="111" y="230" type="curve" smooth="yes"/>
      <point x="111" y="143.026"/>
      <point x="148.402" y="53"/>
      <point x="249" y="53" type="curve" smooth="yes"/>
      <point x="364.712" y="53"/>
      <point x="390" y="182.87"/>
      <point x="390" y="275" type="curve" smooth="yes"/>
      <point x="390" y="350.548"/>
      <point x="309.166" y="401"/>
    </contour>
  </outline>
</glyph>
<glyph name="ntilde" format="1">
  <advance width="505"/>
  <unicode hex="00F1"/>
  <outline>
    <contour>
      <point x="371" y="663" type="line" name="hr00"/>
      <point x="408" y="601" type="line"/>
      <point x="381.796" y="578.725"/>
      <point x="360.873" y="563"/>
      <point x="325" y="563" type="curve" smooth="yes"/>
      <point x="280.646" y="563"/>
      <point x="251.175" y="600"/>
      <point x="216" y="600" type="curve" smooth="yes"/>
      <point x="187.606" y="600"/>
      <point x="167.807" y="578.531"/>
      <point x="158" y="554" type="curve"/>
      <point x="115" y="580" type="line"/>
      <point x="116" y="597" type="line"/>
      <point x="137.433" y="633.741"/>
      <point x="163.648" y="663"/>
      <point x="209" y="663" type="curve" smooth="yes" name="mh01"/>
      <point x="248.038" y="663"/>
      <point x="282.14" y="633.958"/>
      <point x="318" y="622" type="curve" name="mh02"/>
    </contour>
    <contour>
      <point x="421" y="58" type="line"/>
      <point x="482" y="44" type="line"/>
      <point x="482" y="0" type="line"/>
      <point x="302" y="0" type="line"/>
      <point x="298" y="44" type="line"/>
      <point x="358" y="58" type="line"/>
      <point x="358" y="327" type="line" smooth="yes"/>
      <point x="358" y="384.642"/>
      <point x="334.229" y="422"/>
      <point x="273" y="422" type="curve" smooth="yes"/>
      <point x="231.622" y="422"/>
      <point x="189.332" y="407.245"/>
      <point x="158" y="380" type="curve"/>
      <point x="158" y="59" type="line"/>
      <point x="219" y="44" type="line"/>
      <point x="219" y="0" type="line"/>
      <point x="46" y="0" type="line"/>
      <point x="40" y="43" type="line"/>
      <point x="95" y="58" type="line"/>
      <point x="95" y="420" type="line"/>
      <point x="41" y="416" type="line"/>
      <point x="32" y="463" type="line"/>
      <point x="133" y="481" type="line"/>
      <point x="155" y="440" type="line"/>
      <point x="191.439" y="465.385"/>
      <point x="233.541" y="479"/>
      <point x="278" y="479" type="curve" smooth="yes" name="mh03"/>
      <point x="372.323" y="479"/>
      <point x="421" y="427.617"/>
      <point x="421" y="334" type="curve" smooth="yes"/>
    </contour>
  </outline>
</glyph>
<glyph name="oacute" format="1">
  <advance width="489"/>
  <unicode hex="00F3"/>
  <outline>
    <contour>
      <point x="42" y="240" type="curve" smooth="yes" name="hr00"/>
      <point x="42" y="363.573"/>
      <point x="107.685" y="481"/>
      <point x="244" y="481" type="curve" smooth="yes" name="mh01"/>
      <point x="383.247" y="481"/>
      <point x="447" y="366.749"/>
      <point x="447" y="240" type="curve" smooth="yes"/>
      <point x="447" y="113.92"/>
      <point x="383.852" y="-4"/>
      <point x="244" y="-4" type="curve" smooth="yes"/>
      <point x="106.388" y="-4"/>
      <point x="42" y="116.151"/>
    </contour>
    <contour>
      <point x="108" y="228" type="curve" smooth="yes"/>
      <point x="108" y="143.56"/>
      <point x="147.207" y="54"/>
      <point x="244" y="54" type="curve" smooth="yes"/>
      <point x="346.029" y="54"/>
      <point x="381" y="147.545"/>
      <point x="381" y="235" type="curve" smooth="yes"/>
      <point x="381" y="320.026"/>
      <point x="344.709" y="423"/>
      <point x="244" y="423" type="curve" smooth="yes" name="mh02"/>
      <point x="144.98" y="423"/>
      <point x="108" y="310.397"/>
    </contour>
    <contour>
      <point x="170" y="586" type="line"/>
      <point x="274" y="725" type="line" name="mh03"/>
      <point x="301" y="725" type="line"/>
      <point x="345" y="673" type="line"/>
      <point x="205" y="553" type="line"/>
    </contour>
  </outline>
</glyph>
<glyph name="otilde" format="1">
  <advance width="489"/>
  <unicode hex="00F5"/>
  <outline>
    <contour>
      <point x="350" y="663" type="line" name="hr00"/>
      <point x="387" y="601" type="line"/>
      <point x="360.796" y="578.725"/>
      <point x="339.873" y="563"/>
      <point x="304" y="563" type="curve" smooth="yes" name="mh01"/>
      <point x="259.646" y="563"/>
      <point x="230.175" y="600"/>
      <point x="195" y="600" type="curve" smooth="yes" name="mh02"/>
      <point x="166.606" y="600"/>
      <point x="146.807" y="578.531"/>
      <point x="137" y="554" type="curve"/>
      <point x="94" y="580" type="line"/>
      <point x="95" y="597" type="line"/>
      <point x="116.433" y="633.741"/>
      <point x="142.648" y="663"/>
      <point x="188" y="663" type="curve" smooth="yes" name="mh03"/>
      <point x="227.038" y="663"/>
      <point x="261.14" y="633.958"/>
      <point x="297" y="622" type="curve" name="mh04"/>
    </contour>
    <contour>
      <point x="42" y="240" type="curve" smooth="yes"/>
      <point x="42" y="363.573"/>
      <point x="107.685" y="481"/>
      <point x="244" y="481" type="curve" smooth="yes" name="mh05"/>
      <point x="383.247" y="481"/>
      <point x="447" y="366.749"/>
      <point x="447" y="240" type="curve" smooth="yes"/>
      <point x="447" y="113.92"/>
      <point x="383.852" y="-4"/>
      <point x="244" y="-4" type="curve" smooth="yes"/>
      <point x="106.388" y="-4"/>
      <point x="42" y="116.151"/>
    </contour>
    <contour>
      <point x="108" y="228" type="curve" smooth="yes"/>
      <point x="108" y="143.56"/>
      <point x="147.207" y="54"/>
      <point x="244" y="54" type="curve" smooth="yes" name="mh07"/>
      <point x="346.029" y="54"/>
      <point x="381" y="147.545"/>
      <point x="381" y="235" type="curve" smooth="yes"/>
      <point x="381" y="320.026"/>
      <point x="344.709" y="423"/>
      <point x="244" y="423" type="curve" smooth="yes" name="mh08"/>
      <point x="144.98" y="423"/>
      <point x="108" y="310.397"/>
    </contour>
  </outline>
</glyph>
<glyph name="odieresis" format="1">
  <advance width="489"/>
  <unicode hex="00F6"/>
  <outline>
    <contour>
      <point x="132" y="619" type="curve" smooth="yes" name="hr00"/>
      <point x="132" y="646.501"/>
      <point x="153.57" y="668"/>
      <point x="181" y="668" type="curve" smooth="yes" name="mh01"/>
      <point x="207.301" y="668"/>
      <point x="229" y="644.965"/>
      <point x="229" y="619" type="curve" smooth="yes"/>
      <point x="229" y="593.604"/>
      <point x="206.659" y="570"/>
      <point x="181" y="570" type="curve" smooth="yes"/>
      <point x="154.145" y="570"/>
      <point x="132" y="592.089"/>
    </contour>
    <contour>
      <point x="272" y="619" type="curve" smooth="yes"/>
      <point x="272" y="646.316"/>
      <point x="292.412" y="668"/>
      <point x="320" y="668" type="curve" smooth="yes" name="mh02"/>
      <point x="346.394" y="668"/>
      <point x="367" y="644.773"/>
      <point x="367" y="619" type="curve" smooth="yes"/>
      <point x="367" y="593.819"/>
      <point x="345.71" y="570"/>
      <point x="320" y="570" type="curve" smooth="yes"/>
      <point x="292.993" y="570"/>
      <point x="272" y="592.222"/>
    </contour>
    <contour>
      <point x="42" y="240" type="curve" smooth="yes"/>
      <point x="42" y="363.573"/>
      <point x="107.685" y="481"/>
      <point x="244" y="481" type="curve" smooth="yes" name="mh03"/>
      <point x="383.247" y="481"/>
      <point x="447" y="366.749"/>
      <point x="447" y="240" type="curve" smooth="yes"/>
      <point x="447" y="113.92"/>
      <point x="383.852" y="-4"/>
      <point x="244" y="-4" type="curve" smooth="yes"/>
      <point x="106.388" y="-4"/>
      <point x="42" y="116.151"/>
    </contour>
    <contour>
      <point x="108" y="228" type="curve" smooth="yes"/>
      <point x="108" y="143.56"/>
      <point x="147.207" y="54"/>
      <point x="244" y="54" type="curve" smooth="yes"/>
      <point x="346.029" y="54"/>
      <point x="381" y="147.545"/>
      <point x="381" y="235" type="curve" smooth="yes"/>
      <point x="381" y="320.026"/>
      <point x="344.709" y="423"/>
      <point x="244" y="423" type="curve" smooth="yes" name="mh04"/>
      <point x="144.98" y="423"/>
      <point x="108" y="310.397"/>
    </contour>
  </outline>
</glyph>
<glyph name="divide" format="1">
  <advance width="414"/>
  <unicode hex="00F7"/>
  <outline>
    <contour>
      <point x="56" y="360" type="line" name="hr00"/>
      <point x="358" y="360" type="line"/>
      <point x="358" y="297" type="line"/>
      <point x="56" y="297" type="line"/>
    </contour>
    <contour>
      <point x="157" y="182" type="curve" smooth="yes"/>
      <point x="157" y="211.005"/>
      <point x="181.34" y="234"/>
      <point x="210" y="234" type="curve" smooth="yes"/>
      <point x="238.238" y="234"/>
      <point x="261" y="209.958"/>
      <point x="261" y="182" type="curve" smooth="yes"/>
      <point x="261" y="153.387"/>
      <point x="238.978" y="130"/>
      <point x="210" y="130" type="curve" smooth="yes"/>
      <point x="180.808" y="130"/>
      <point x="157" y="152.52"/>
    </contour>
    <contour>
      <point x="157" y="472" type="curve" smooth="yes"/>
      <point x="157" y="501.005"/>
      <point x="181.34" y="524"/>
      <point x="210" y="524" type="curve" smooth="yes"/>
      <point x="238.238" y="524"/>
      <point x="261" y="499.958"/>
      <point x="261" y="472" type="curve" smooth="yes"/>
      <point x="261" y="443.387"/>
      <point x="238.978" y="420"/>
      <point x="210" y="420" type="curve" smooth="yes"/>
      <point x="180.808" y="420"/>
      <point x="157" y="442.52"/>
    </contour>
  </outline>
</glyph>
<glyph name="oslash" format="1">
  <advance width="489"/>
  <unicode hex="00F8"/>
  <outline>
    <contour>
      <point x="111" y="-90" type="line" name="hr00"/>
      <point x="63" y="-90" type="line"/>
      <point x="60" y="-77" type="line"/>
      <point x="119" y="41" type="line"/>
      <point x="62.8677" y="90.1105"/>
      <point x="42" y="167.624"/>
      <point x="42" y="240" type="curve" smooth="yes"/>
      <point x="42" y="363.573"/>
      <point x="107.685" y="481"/>
      <point x="244" y="481" type="curve" smooth="yes" name="mh01"/>
      <point x="273.896" y="481"/>
      <point x="302.481" y="474.585"/>
      <point x="330" y="463" type="curve"/>
      <point x="399" y="602" type="line" name="mh02"/>
      <point x="450" y="602" type="line" name="mh03"/>
      <point x="449" y="587" type="line"/>
      <point x="373" y="435" type="line"/>
      <point x="426.967" y="386.718"/>
      <point x="447" y="310.26"/>
      <point x="447" y="240" type="curve" smooth="yes"/>
      <point x="447" y="113.809"/>
      <point x="383.774" y="-4"/>
      <point x="244" y="-4" type="curve" smooth="yes"/>
      <point x="215.928" y="-4"/>
      <point x="187.916" y="1.08765"/>
      <point x="162" y="12" type="curve"/>
    </contour>
    <contour>
      <point x="108" y="228" type="curve" smooth="yes"/>
      <point x="108" y="182.603"/>
      <point x="119.012" y="134.889"/>
      <point x="148" y="99" type="curve" name="mh04"/>
      <point x="302" y="408" type="line" name="mh05"/>
      <point x="284.431" y="418.246"/>
      <point x="264.255" y="423"/>
      <point x="244" y="423" type="curve" smooth="yes" name="mh07"/>
      <point x="144.967" y="423"/>
      <point x="108" y="310.378"/>
    </contour>
    <contour>
      <point x="244" y="54" type="curve" smooth="yes"/>
      <point x="346.005" y="54"/>
      <point x="381" y="147.506"/>
      <point x="381" y="235" type="curve" smooth="yes"/>
      <point x="381" y="282.015"/>
      <point x="368.934" y="333.945"/>
      <point x="342" y="373" type="curve" name="mh08"/>
      <point x="189" y="66" type="line"/>
      <point x="206.025" y="57.489"/>
      <point x="225.063" y="54"/>
    </contour>
  </outline>
</glyph>
<glyph name="uacute" format="1">
  <advance width="490"/>
  <unicode hex="00FA"/>
  <outline>
    <contour>
      <point x="290" y="415" type="line" name="hr00"/>
      <point x="283" y="463" type="line"/>
      <point x="383" y="482" type="line" name="mh01"/>
      <point x="407" y="453" type="line"/>
      <point x="407" y="73" type="line" smooth="yes"/>
      <point x="407" y="57.9548"/>
      <point x="415.17" y="51"/>
      <point x="430" y="51" type="curve" smooth="yes"/>
      <point x="436.391" y="51"/>
      <point x="441.815" y="53.1927"/>
      <point x="448" y="54" type="curve"/>
      <point x="456" y="19" type="line"/>
      <point x="442.607" y="3.46027"/>
      <point x="418.919" y="-4"/>
      <point x="399" y="-4" type="curve" smooth="yes" name="mh02"/>
      <point x="371.518" y="-4"/>
      <point x="354.966" y="10.9768"/>
      <point x="348" y="37" type="curve"/>
      <point x="315.69" y="10.3103"/>
      <point x="272.744" y="-4"/>
      <point x="231" y="-4" type="curve" smooth="yes" name="mh03"/>
      <point x="130.045" y="-4"/>
      <point x="82" y="59.5476"/>
      <point x="82" y="156" type="curve" smooth="yes"/>
      <point x="82" y="415" type="line"/>
      <point x="28" y="415" type="line"/>
      <point x="19" y="463" type="line"/>
      <point x="120" y="481" type="line" name="mh04"/>
      <point x="145" y="453" type="line"/>
      <point x="145" y="159" type="line" smooth="yes"/>
      <point x="145" y="89.24"/>
      <point x="173.169" y="54"/>
      <point x="245" y="54" type="curve" smooth="yes" name="mh05"/>
      <point x="277.971" y="54"/>
      <point x="325.849" y="72.2768"/>
      <point x="344" y="101" type="curve"/>
      <point x="344" y="415" type="line"/>
    </contour>
    <contour>
      <point x="170" y="586" type="line"/>
      <point x="274" y="725" type="line" name="mh06"/>
      <point x="301" y="725" type="line" name="mh07"/>
      <point x="345" y="673" type="line"/>
      <point x="205" y="553" type="line"/>
    </contour>
  </outline>
</glyph>
<glyph name="yacute" format="1">
  <advance width="449"/>
  <unicode hex="00FD"/>
  <outline>
    <contour>
      <point x="436" y="445" type="line" name="hr00"/>
      <point x="333" y="163.5" type="line" smooth="yes"/>
      <point x="295.934" y="62.1055"/>
      <point x="257.935" y="-38.9293"/>
      <point x="220" y="-140" type="curve" smooth="yes"/>
      <point x="208.528" y="-170.565"/>
      <point x="197.302" y="-201.833"/>
      <point x="178" y="-228.5" type="curve" smooth="yes"/>
      <point x="158.128" y="-255.955"/>
      <point x="133.821" y="-273"/>
      <point x="99" y="-273" type="curve" smooth="yes"/>
      <point x="64.9984" y="-273"/>
      <point x="37.0606" y="-257.575"/>
      <point x="11" y="-237" type="curve"/>
      <point x="42" y="-185" type="line"/>
      <point x="57.6994" y="-200.622"/>
      <point x="76.8765" y="-215"/>
      <point x="100" y="-215" type="curve" smooth="yes"/>
      <point x="154.557" y="-215"/>
      <point x="187.319" y="-79.797"/>
      <point x="199" y="-47" type="curve"/>
      <point x="45" y="425" type="line"/>
      <point x="11" y="425" type="line"/>
      <point x="3" y="474" type="line"/>
      <point x="98" y="480" type="line"/>
      <point x="235" y="54" type="line"/>
      <point x="367" y="425" type="line"/>
      <point x="331" y="425" type="line"/>
      <point x="323" y="474" type="line"/>
      <point x="419" y="480" type="line"/>
    </contour>
    <contour>
      <point x="176" y="586" type="line"/>
      <point x="280" y="725" type="line"/>
      <point x="307" y="725" type="line"/>
      <point x="351" y="673" type="line"/>
      <point x="211" y="553" type="line"/>
    </contour>
  </outline>
</glyph>
<glyph name="thorn" format="1">
  <advance width="486"/>
  <unicode hex="00FE"/>
  <outline>
    <contour>
      <point x="14" y="666" type="line" name="hr00"/>
      <point x="6" y="717" type="line"/>
      <point x="111" y="735" type="line" name="mv01"/>
      <point x="138" y="706" type="line"/>
      <point x="138" y="444" type="line"/>
      <point x="168.291" y="470.21"/>
      <point x="208.694" y="481"/>
      <point x="248" y="481" type="curve" smooth="yes"/>
      <point x="379.517" y="481"/>
      <point x="444" y="360.637"/>
      <point x="444" y="243" type="curve" smooth="yes"/>
      <point x="444" y="117.476"/>
      <point x="379.844" y="-4"/>
      <point x="239" y="-4" type="curve" smooth="yes"/>
      <point x="201.113" y="-4"/>
      <point x="167.129" y="3.11821"/>
      <point x="135" y="24" type="curve"/>
      <point x="135" y="-0.40895"/>
      <point x="138" y="-24.6322"/>
      <point x="138" y="-49" type="curve" smooth="yes"/>
      <point x="138" y="-208" type="line"/>
      <point x="259" y="-229" type="line"/>
      <point x="259" y="-273" type="line"/>
      <point x="25" y="-273" type="line"/>
      <point x="16" y="-229" type="line"/>
      <point x="75" y="-215" type="line"/>
      <point x="75" y="670" type="line"/>
    </contour>
    <contour>
      <point x="234" y="54" type="curve" smooth="yes"/>
      <point x="340.824" y="54"/>
      <point x="377" y="144.651"/>
      <point x="377" y="237" type="curve" smooth="yes"/>
      <point x="377" y="322.421"/>
      <point x="344.839" y="423"/>
      <point x="242" y="423" type="curve" smooth="yes"/>
      <point x="202.779" y="423"/>
      <point x="157.666" y="407.312"/>
      <point x="138" y="371" type="curve"/>
      <point x="138" y="87" type="line"/>
      <point x="161.519" y="63.5547"/>
      <point x="201.831" y="54"/>
    </contour>
  </outline>
</glyph>
<glyph name="ydieresis" format="1">
  <advance width="449"/>
  <unicode hex="00FF"/>
  <outline>
    <contour>
      <point x="110" y="619" type="curve" smooth="yes" name="hr00"/>
      <point x="110" y="646.475"/>
      <point x="131.552" y="668"/>
      <point x="159" y="668" type="curve" smooth="yes"/>
      <point x="185.394" y="668"/>
      <point x="206" y="644.773"/>
      <point x="206" y="619" type="curve" smooth="yes"/>
      <point x="206" y="593.819"/>
      <point x="184.71" y="570"/>
      <point x="159" y="570" type="curve" smooth="yes"/>
      <point x="132.145" y="570"/>
      <point x="110" y="592.089"/>
    </contour>
    <contour>
      <point x="249" y="619" type="curve" smooth="yes"/>
      <point x="249" y="646.346"/>
      <point x="269.432" y="668"/>
      <point x="297" y="668" type="curve" smooth="yes"/>
      <point x="323.301" y="668"/>
      <point x="345" y="644.965"/>
      <point x="345" y="619" type="curve" smooth="yes"/>
      <point x="345" y="593.604"/>
      <point x="322.659" y="570"/>
      <point x="297" y="570" type="curve" smooth="yes"/>
      <point x="269.993" y="570"/>
      <point x="249" y="592.222"/>
    </contour>
    <contour>
      <point x="436" y="445" type="line"/>
      <point x="333" y="163.5" type="line" smooth="yes"/>
      <point x="295.934" y="62.1055"/>
      <point x="257.935" y="-38.9293"/>
      <point x="220" y="-140" type="curve" smooth="yes"/>
      <point x="208.528" y="-170.565"/>
      <point x="197.302" y="-201.833"/>
      <point x="178" y="-228.5" type="curve" smooth="yes"/>
      <point x="158.128" y="-255.955"/>
      <point x="133.821" y="-273"/>
      <point x="99" y="-273" type="curve" smooth="yes"/>
      <point x="64.9984" y="-273"/>
      <point x="37.0606" y="-257.575"/>
      <point x="11" y="-237" type="curve"/>
      <point x="42" y="-185" type="line"/>
      <point x="57.6994" y="-200.622"/>
      <point x="76.8765" y="-215"/>
      <point x="100" y="-215" type="curve" smooth="yes"/>
      <point x="154.557" y="-215"/>
      <point x="187.319" y="-79.797"/>
      <point x="199" y="-47" type="curve"/>
      <point x="45" y="425" type="line"/>
      <point x="11" y="425" type="line"/>
      <point x="3" y="474" type="line"/>
      <point x="98" y="480" type="line" name="ah01"/>
      <point x="235" y="54" type="line"/>
      <point x="367" y="425" type="line"/>
      <point x="331" y="425" type="line"/>
      <point x="323" y="474" type="line"/>
      <point x="419" y="480" type="line"/>
    </contour>
  </outline>
</glyph>
<glyph name="OE" format="1">
  <advance width="858"/>
  <unicode hex="0152"/>
  <outline>
    <contour>
      <point x="331" y="-4" type="curve" smooth="yes" name="hr00"/>
      <point x="139.806" y="-4"/>
      <point x="48" y="171.84"/>
      <point x="48" y="343" type="curve" smooth="yes"/>
      <point x="48" y="464.062"/>
      <point x="96.8174" y="596.943"/>
      <point x="203.5" y="663" type="curve" smooth="yes"/>
      <point x="245.591" y="689.063"/>
      <point x="286.405" y="695"/>
      <point x="335" y="695" type="curve" smooth="yes"/>
      <point x="355.733" y="695"/>
      <point x="376.642" y="691"/>
      <point x="397" y="691" type="curve" smooth="yes"/>
      <point x="788" y="691" type="line"/>
      <point x="808" y="520" type="line"/>
      <point x="760" y="520" type="line"/>
      <point x="726" y="623" type="line"/>
      <point x="516" y="623" type="line"/>
      <point x="516" y="377" type="line"/>
      <point x="688" y="377" type="line"/>
      <point x="688" y="314" type="line"/>
      <point x="516" y="314" type="line"/>
      <point x="516" y="68" type="line"/>
      <point x="736" y="68" type="line"/>
      <point x="771" y="171" type="line"/>
      <point x="818" y="171" type="line"/>
      <point x="799" y="0" type="line"/>
      <point x="387" y="0" type="line" smooth="yes"/>
      <point x="368.672" y="0"/>
      <point x="349.761" y="-4"/>
    </contour>
    <contour>
      <point x="336" y="624" type="curve" smooth="yes"/>
      <point x="192.616" y="624"/>
      <point x="119" y="465.798"/>
      <point x="119" y="341" type="curve" smooth="yes"/>
      <point x="119" y="210.798"/>
      <point x="180.532" y="64"/>
      <point x="331" y="64" type="curve" smooth="yes"/>
      <point x="373.256" y="64"/>
      <point x="414.997" y="72.7679"/>
      <point x="447" y="102" type="curve"/>
      <point x="447" y="591" type="line"/>
      <point x="414.156" y="619.585"/>
      <point x="378.023" y="624"/>
    </contour>
  </outline>
</glyph>
<glyph name="oe" format="1">
  <advance width="782"/>
  <unicode hex="0153"/>
  <outline>
    <contour>
      <point x="42" y="240" type="curve" smooth="yes" name="hr00"/>
      <point x="42" y="363.573"/>
      <point x="107.685" y="481"/>
      <point x="244" y="481" type="curve" smooth="yes" name="ah01"/>
      <point x="322.542" y="481"/>
      <point x="383.068" y="446.401"/>
      <point x="418" y="375" type="curve"/>
      <point x="454.851" y="438.186"/>
      <point x="516.643" y="480"/>
      <point x="591" y="480" type="curve" smooth="yes"/>
      <point x="669.543" y="480"/>
      <point x="740" y="433.462"/>
      <point x="740" y="349" type="curve" smooth="yes"/>
      <point x="740" y="196.879"/>
      <point x="563.672" y="186"/>
      <point x="450" y="186" type="curve"/>
      <point x="464.571" y="101.393"/>
      <point x="516.108" y="53"/>
      <point x="603" y="53" type="curve" smooth="yes"/>
      <point x="643.679" y="53"/>
      <point x="687.02" y="64.6292"/>
      <point x="720" y="89" type="curve"/>
      <point x="737" y="35" type="line"/>
      <point x="697.27" y="6.2277"/>
      <point x="646.207" y="-3"/>
      <point x="598" y="-3" type="curve" smooth="yes"/>
      <point x="520.151" y="-3"/>
      <point x="453.954" y="26.8351"/>
      <point x="414" y="96" type="curve"/>
      <point x="378.013" y="28.507"/>
      <point x="319.711" y="-4"/>
      <point x="244" y="-4" type="curve" smooth="yes"/>
      <point x="106.345" y="-4"/>
      <point x="42" y="116.215"/>
    </contour>
    <contour>
      <point x="108" y="228" type="curve" smooth="yes"/>
      <point x="108" y="143.56"/>
      <point x="147.207" y="54"/>
      <point x="244" y="54" type="curve" smooth="yes"/>
      <point x="345.203" y="54"/>
      <point x="381" y="148.197"/>
      <point x="381" y="235" type="curve" smooth="yes"/>
      <point x="381" y="320.026"/>
      <point x="344.709" y="423"/>
      <point x="244" y="423" type="curve" smooth="yes" name="ah02"/>
      <point x="144.98" y="423"/>
      <point x="108" y="310.397"/>
    </contour>
    <contour>
      <point x="464" y="245" type="line" smooth="yes"/>
      <point x="536.044" y="245"/>
      <point x="674" y="248.205"/>
      <point x="674" y="349" type="curve" smooth="yes"/>
      <point x="674" y="397.89"/>
      <point x="635.624" y="423"/>
      <point x="590" y="423" type="curve" smooth="yes" name="ah03"/>
      <point x="492.803" y="423"/>
      <point x="449.363" y="330.162"/>
      <point x="447" y="245" type="curve"/>
    </contour>
  </outline>
</glyph>
<glyph name="endash" format="1">
  <advance width="495"/>
  <unicode hex="2013"/>
  <outline>
    <contour>
      <point x="61" y="363" type="line" name="hr00"/>
      <point x="432" y="363" type="line"/>
      <point x="432" y="301" type="line"/>
      <point x="61" y="301" type="line"/>
    </contour>
  </outline>
</glyph>
<glyph name="quoteleft" format="1">
  <advance width="187"/>
  <unicode hex="2018"/>
  <outline>
    <contour>
      <point x="145" y="665" type="line" name="hr00"/>
      <point x="112" y="578" type="line"/>
      <point x="135" y="462" type="line"/>
      <point x="57" y="449" type="line"/>
      <point x="49.8109" y="474.453"/>
      <point x="46" y="500.561"/>
      <point x="46" y="527" type="curve" smooth="yes"/>
      <point x="46" y="592.162"/>
      <point x="65.8534" y="646.408"/>
      <point x="102" y="700" type="curve"/>
      <point x="145" y="675" type="line"/>
    </contour>
  </outline>
</glyph>
<glyph name="quoteright" format="1">
  <advance width="181"/>
  <unicode hex="2019"/>
  <outline>
    <contour>
      <point x="41" y="485" type="line" name="hr00"/>
      <point x="74" y="572" type="line"/>
      <point x="51" y="688" type="line"/>
      <point x="129" y="701" type="line"/>
      <point x="135.479" y="674.966"/>
      <point x="140" y="649.915"/>
      <point x="140" y="623" type="curve" smooth="yes"/>
      <point x="140" y="557.838"/>
      <point x="120.147" y="503.592"/>
      <point x="84" y="450" type="curve"/>
      <point x="41" y="475" type="line"/>
    </contour>
  </outline>
</glyph>
<glyph name="quotesinglbase" format="1">
  <advance width="207"/>
  <unicode hex="201A"/>
  <outline>
    <contour>
      <point x="45" y="-79" type="line" name="hr00"/>
      <point x="84" y="9" type="line"/>
      <point x="45" y="108" type="line"/>
      <point x="129" y="136" type="line"/>
      <point x="142.489" y="108.936"/>
      <point x="153" y="75.4249"/>
      <point x="153" y="45" type="curve" smooth="yes"/>
      <point x="153" y="-12.6484"/>
      <point x="118.684" y="-73.1168"/>
      <point x="81" y="-115" type="curve"/>
      <point x="45" y="-93" type="line"/>
    </contour>
  </outline>
</glyph>
<glyph name="quotedblleft" format="1">
  <advance width="295"/>
  <unicode hex="201C"/>
  <outline>
    <contour>
      <point x="258" y="691" type="line" name="hr00"/>
      <point x="225" y="604" type="line"/>
      <point x="248" y="488" type="line"/>
      <point x="170" y="475" type="line"/>
      <point x="162.811" y="500.453"/>
      <point x="159" y="526.561"/>
      <point x="159" y="553" type="curve" smooth="yes"/>
      <point x="159" y="618.162"/>
      <point x="178.853" y="672.408"/>
      <point x="215" y="726" type="curve"/>
      <point x="258" y="701" type="line"/>
    </contour>
    <contour>
      <point x="147" y="691" type="line"/>
      <point x="114" y="604" type="line"/>
      <point x="137" y="475" type="line"/>
      <point x="59" y="459" type="line"/>
      <point x="51.9606" y="488.524"/>
      <point x="48" y="522.66"/>
      <point x="48" y="553" type="curve" smooth="yes"/>
      <point x="48" y="618.135"/>
      <point x="67.8352" y="672.379"/>
      <point x="104" y="726" type="curve"/>
      <point x="147" y="701" type="line"/>
    </contour>
  </outline>
</glyph>
<glyph name="quotedblright" format="1">
  <advance width="292"/>
  <unicode hex="201D"/>
  <outline>
    <contour>
      <point x="41" y="485" type="line" name="hr00"/>
      <point x="74" y="572" type="line"/>
      <point x="51" y="688" type="line"/>
      <point x="129" y="701" type="line"/>
      <point x="135.479" y="674.966"/>
      <point x="140" y="649.915"/>
      <point x="140" y="623" type="curve" smooth="yes"/>
      <point x="140" y="557.838"/>
      <point x="120.147" y="503.592"/>
      <point x="84" y="450" type="curve"/>
      <point x="41" y="475" type="line"/>
    </contour>
    <contour>
      <point x="152" y="485" type="line"/>
      <point x="185" y="572" type="line"/>
      <point x="162" y="701" type="line"/>
      <point x="240" y="717" type="line"/>
      <point x="247.168" y="687.643"/>
      <point x="251" y="653.191"/>
      <point x="251" y="623" type="curve" smooth="yes"/>
      <point x="251" y="557.865"/>
      <point x="231.165" y="503.621"/>
      <point x="195" y="450" type="curve"/>
      <point x="152" y="475" type="line"/>
    </contour>
  </outline>
</glyph>
<glyph name="quotedblbase" format="1">
  <advance width="321"/>
  <unicode hex="201E"/>
  <outline>
    <contour>
      <point x="41" y="-79" type="line" name="hr00"/>
      <point x="80" y="9" type="line"/>
      <point x="41" y="108" type="line"/>
      <point x="125" y="136" type="line"/>
      <point x="138.489" y="108.936"/>
      <point x="149" y="75.4249"/>
      <point x="149" y="45" type="curve" smooth="yes"/>
      <point x="149" y="-12.6484"/>
      <point x="114.684" y="-73.1168"/>
      <point x="77" y="-115" type="curve"/>
      <point x="41" y="-93" type="line"/>
    </contour>
    <contour>
      <point x="159" y="-79" type="line"/>
      <point x="198" y="9" type="line"/>
      <point x="159" y="131" type="line"/>
      <point x="243" y="156" type="line"/>
      <point x="255.167" y="131.347"/>
      <point x="267" y="72.6206"/>
      <point x="267" y="45" type="curve" smooth="yes"/>
      <point x="267" y="-12.6407"/>
      <point x="232.662" y="-73.1393"/>
      <point x="195" y="-115" type="curve"/>
      <point x="159" y="-93" type="line"/>
    </contour>
  </outline>
</glyph>
<glyph name="Euro" format="1">
  <advance width="573"/>
  <unicode hex="20AC"/>
  <outline>
    <contour>
      <point x="34" y="310" type="line" name="hr00"/>
      <point x="104" y="310" type="line"/>
      <point x="104" y="330.298"/>
      <point x="103.154" y="350.754"/>
      <point x="105" y="371" type="curve"/>
      <point x="34" y="371" type="line"/>
      <point x="34" y="434" type="line"/>
      <point x="111" y="434" type="line"/>
      <point x="133.79" y="580.9"/>
      <point x="208.097" y="691"/>
      <point x="369" y="691" type="curve" smooth="yes"/>
      <point x="414.277" y="691"/>
      <point x="459.623" y="687.179"/>
      <point x="504" y="678" type="curve"/>
      <point x="526" y="520" type="line"/>
      <point x="469" y="520" type="line"/>
      <point x="441" y="618" type="line"/>
      <point x="417.922" y="620.895"/>
      <point x="396.329" y="623"/>
      <point x="373" y="623" type="curve" smooth="yes"/>
      <point x="254.132" y="623"/>
      <point x="200.803" y="541.466"/>
      <point x="182" y="434" type="curve"/>
      <point x="457" y="434" type="line"/>
      <point x="457" y="371" type="line"/>
      <point x="176" y="371" type="line"/>
      <point x="173.522" y="351.043"/>
      <point x="175" y="330.071"/>
      <point x="175" y="310" type="curve"/>
      <point x="456" y="310" type="line"/>
      <point x="456" y="247" type="line"/>
      <point x="181" y="247" type="line"/>
      <point x="198.496" y="133.241"/>
      <point x="254.797" y="64"/>
      <point x="376" y="64" type="curve" smooth="yes"/>
      <point x="418.883" y="64"/>
      <point x="467.651" y="75.7438"/>
      <point x="504" y="99" type="curve"/>
      <point x="529" y="38" type="line"/>
      <point x="488.655" y="10.0847"/>
      <point x="425.578" y="-4"/>
      <point x="377" y="-4" type="curve" smooth="yes"/>
      <point x="213.153" y="-4"/>
      <point x="128.644" y="89.7996"/>
      <point x="109" y="247" type="curve"/>
      <point x="34" y="247" type="line"/>
    </contour>
  </outline>
</glyph>
